<svg width="64" height="81" viewBox="0 0 64 81" fill="none" xmlns="http://www.w3.org/2000/svg">
<path d="M31.902 60.2549C42.7448 60.2549 51.5349 51.3832 51.5349 40.4392C51.5349 29.4952 42.7448 20.6235 31.902 20.6235C21.0586 20.6235 12.2686 29.4952 12.2686 40.4392C12.2805 51.3776 21.0636 60.2422 31.902 60.2549ZM31.902 22.5651C41.6828 22.5651 49.6112 30.5677 49.6112 40.4392C49.6112 50.3107 41.6828 58.3133 31.902 58.3133C22.1207 58.3133 14.1923 50.3107 14.1923 40.4392C14.2035 30.5721 22.1257 22.5765 31.902 22.5651Z" fill="url(#paint0_linear)"/>
<path d="M28.4989 46.3782C28.8583 46.7713 29.4645 46.7972 29.8552 46.4364L41.2822 35.873C41.6736 35.5109 41.7005 34.8966 41.3417 34.5009C40.9829 34.1059 40.3742 34.0787 39.9829 34.4409L29.2628 44.3507L23.8787 38.4579C23.5187 38.0642 22.91 38.0389 22.5199 38.4023C22.1291 38.7663 22.1047 39.38 22.4648 39.7744L28.4989 46.3782Z" fill="url(#paint1_linear)"/>
<path d="M63.296 15.8412L32.3112 0.475045C32.0463 0.342954 31.7363 0.342954 31.4714 0.475045L0.505404 15.7989C0.183532 15.9657 -0.013097 16.3058 0.000679543 16.6704V45.3083C0.000679543 52.821 4.79117 62.0232 10.9449 66.2583L31.375 80.3308C31.5322 80.4407 31.7181 80.4995 31.9098 80.4995C32.1014 80.4995 32.2892 80.4407 32.4477 80.3308L52.8602 66.2583C59.0146 62.0226 63.8038 52.8204 63.8038 45.307V16.7128C63.8157 16.3475 63.6178 16.0081 63.296 15.8412ZM61.8801 45.307C61.8801 52.2447 57.4578 60.7427 51.7743 64.653L31.8872 78.3532L12.0214 64.653C6.33854 60.7427 1.92439 52.2447 1.92439 45.307V17.2759L31.9022 2.42797L61.8801 17.3176V45.307Z" fill="url(#paint2_linear)"/>
<path d="M4.7413 18.5017C4.40315 18.661 4.18272 18.9972 4.16895 19.3733V45.3062C4.16895 51.3268 8.36893 59.2807 13.3016 62.6746L31.3433 75.0817C31.5061 75.1917 31.6977 75.2505 31.8937 75.2505C32.0885 75.2505 32.2788 75.1917 32.4398 75.0817L50.5002 62.6753C55.4329 59.2807 59.636 51.3274 59.636 45.3062V19.4124C59.6222 19.0364 59.4018 18.7002 59.0643 18.5409L32.3433 5.30267C32.0672 5.16994 31.7465 5.16994 31.471 5.30267L4.7413 18.5017ZM57.7123 20.0166V45.3062C57.7123 50.7706 53.8955 57.9895 49.4181 61.0706L31.9187 73.1048L14.3943 61.0706C9.91691 57.9901 6.09266 50.7712 6.09266 45.3062V19.9787L31.9025 7.25497L57.7123 20.0166Z" fill="url(#paint3_linear)"/>
<defs>
<linearGradient id="paint0_linear" x1="31.9018" y1="4.47381" x2="31.9018" y2="76.6868" gradientUnits="userSpaceOnUse">
<stop stop-color="#00EFD1"/>
<stop offset="1" stop-color="#00ACEA"/>
</linearGradient>
<linearGradient id="paint1_linear" x1="31.902" y1="4.47391" x2="31.902" y2="76.6855" gradientUnits="userSpaceOnUse">
<stop stop-color="#00EFD1"/>
<stop offset="1" stop-color="#00ACEA"/>
</linearGradient>
<linearGradient id="paint2_linear" x1="31.902" y1="4.47215" x2="31.902" y2="76.6847" gradientUnits="userSpaceOnUse">
<stop stop-color="#00EFD1"/>
<stop offset="1" stop-color="#00ACEA"/>
</linearGradient>
<linearGradient id="paint3_linear" x1="31.9022" y1="4.47117" x2="31.9022" y2="76.6839" gradientUnits="userSpaceOnUse">
<stop stop-color="#00EFD1"/>
<stop offset="1" stop-color="#00ACEA"/>
</linearGradient>
</defs>
</svg>
