<svg width="64" height="64" viewBox="0 0 64 64" fill="none" xmlns="http://www.w3.org/2000/svg">
<path d="M43.25 39.875C42.5597 39.875 42 40.4346 42 41.125V49.75C42 53.1963 39.1963 56 35.75 56H22.254C21.5639 56 21.0045 56.5591 21.004 57.2491L21.0023 59.7344L18.0187 56.751C17.8256 56.3076 17.3836 56 16.8724 56H8.75C5.30375 56 2.5 53.1963 2.5 49.75V30.5C2.5 27.0538 5.30375 24.25 8.75 24.25H21.375C22.0653 24.25 22.625 23.6904 22.625 23C22.625 22.3096 22.0653 21.75 21.375 21.75H8.75C3.92525 21.75 0 25.6753 0 30.5V49.75C0 54.5747 3.92525 58.5 8.75 58.5H16.2323L21.3661 63.6339C21.6052 63.873 21.9249 64 22.2502 64C22.4111 64 22.5735 63.9689 22.7279 63.905C23.195 63.7118 23.4996 63.2562 23.5 62.7509L23.503 58.5H35.75C40.5747 58.5 44.5 54.5747 44.5 49.75V41.125C44.5 40.4346 43.9403 39.875 43.25 39.875Z" fill="#114B9D"/>
<path d="M45.8319 0H42.6683C32.6503 0 24.5 8.15025 24.5 18.1682C24.5 28.1862 32.6503 36.3364 42.6681 36.3364H45.8317C47.3954 36.3364 48.943 36.1378 50.443 35.7453L55.1164 40.416C55.3555 40.6549 55.675 40.7819 56.0003 40.7819C56.1614 40.7819 56.3239 40.7508 56.4785 40.6866C56.9455 40.4931 57.25 40.0374 57.25 39.5319V32.2999C59.2286 30.6975 60.8722 28.6734 62.0257 26.4121C63.3359 23.8439 64 21.0702 64 18.1682C64 8.15025 55.8498 0 45.8319 0ZM55.2479 30.6919C54.9345 30.928 54.75 31.2977 54.75 31.6904V36.5154L51.6911 33.4581C51.4531 33.2204 51.1339 33.0923 50.8074 33.0923C50.6849 33.0923 50.5611 33.1104 50.4404 33.1475C48.9525 33.6047 47.402 33.8365 45.8319 33.8365H42.6683C34.0286 33.8365 27 26.8077 27 18.1682C27 9.52875 34.0288 2.5 42.6683 2.5H45.8319C54.4714 2.5 61.5 9.52875 61.5 18.1682C61.5 23.1346 59.2212 27.6994 55.2479 30.6919Z" fill="#114B9D"/>
<path d="M49.879 13.6775C49.6986 11.0607 47.5891 8.95117 44.9721 8.77079C43.4886 8.66892 42.0729 9.16929 40.9892 10.1809C39.9205 11.1785 39.3076 12.5888 39.3076 14.0502C39.3076 14.7405 39.8674 15.3002 40.5576 15.3002C41.2479 15.3002 41.8076 14.7405 41.8076 14.0502C41.8076 13.2678 42.1229 12.5427 42.6951 12.0085C43.2669 11.4749 44.0141 11.2108 44.8004 11.265C46.1789 11.36 47.29 12.4712 47.385 13.8495C47.481 15.2417 46.5676 16.4719 45.2134 16.7749C44.1161 17.0204 43.3499 17.9739 43.3499 19.0935V22.0967C43.3499 22.787 43.9096 23.3467 44.5999 23.3467C45.2902 23.3467 45.8499 22.787 45.8497 22.0967V19.1934C48.3685 18.5849 50.0584 16.2802 49.879 13.6775Z" fill="url(#paint0_linear)"/>
<path d="M49.879 13.6775C49.6986 11.0607 47.5891 8.95117 44.9721 8.77079C43.4886 8.66892 42.0729 9.16929 40.9892 10.1809C39.9205 11.1785 39.3076 12.5888 39.3076 14.0502C39.3076 14.7405 39.8674 15.3002 40.5576 15.3002C41.2479 15.3002 41.8076 14.7405 41.8076 14.0502C41.8076 13.2678 42.1229 12.5427 42.6951 12.0085C43.2669 11.4749 44.0141 11.2108 44.8004 11.265C46.1789 11.36 47.29 12.4712 47.385 13.8495C47.481 15.2417 46.5676 16.4719 45.2134 16.7749C44.1161 17.0204 43.3499 17.9739 43.3499 19.0935V22.0967C43.3499 22.787 43.9096 23.3467 44.5999 23.3467C45.2902 23.3467 45.8499 22.787 45.8497 22.0967V19.1934C48.3685 18.5849 50.0584 16.2802 49.879 13.6775Z" fill="url(#paint1_linear)"/>
<path d="M49.879 13.6775C49.6986 11.0607 47.5891 8.95117 44.9721 8.77079C43.4886 8.66892 42.0729 9.16929 40.9892 10.1809C39.9205 11.1785 39.3076 12.5888 39.3076 14.0502C39.3076 14.7405 39.8674 15.3002 40.5576 15.3002C41.2479 15.3002 41.8076 14.7405 41.8076 14.0502C41.8076 13.2678 42.1229 12.5427 42.6951 12.0085C43.2669 11.4749 44.0141 11.2108 44.8004 11.265C46.1789 11.36 47.29 12.4712 47.385 13.8495C47.481 15.2417 46.5676 16.4719 45.2134 16.7749C44.1161 17.0204 43.3499 17.9739 43.3499 19.0935V22.0967C43.3499 22.787 43.9096 23.3467 44.5999 23.3467C45.2902 23.3467 45.8499 22.787 45.8497 22.0967V19.1934C48.3685 18.5849 50.0584 16.2802 49.879 13.6775Z" fill="url(#paint2_linear)"/>
<path d="M45.4838 26.1575C45.2513 25.925 44.9288 25.7913 44.6001 25.7913C44.2713 25.7913 43.9489 25.925 43.7164 26.1575C43.4839 26.39 43.3501 26.7125 43.3501 27.0413C43.3501 27.3713 43.484 27.6938 43.7164 27.9263C43.9489 28.1588 44.2713 28.2913 44.6001 28.2913C44.9288 28.2913 45.2513 28.1588 45.4838 27.9263C45.7163 27.6925 45.8501 27.3713 45.8501 27.0413C45.8501 26.7125 45.7162 26.39 45.4838 26.1575Z" fill="#114B9D"/>
<path d="M34.375 38.75H8C7.30975 38.75 6.75 39.3096 6.75 40C6.75 40.6904 7.30975 41.25 8 41.25H34.375C35.0654 41.25 35.625 40.6904 35.625 40C35.625 39.3096 35.0653 38.75 34.375 38.75Z" fill="#114B9D"/>
<path d="M35.2586 46.1162C35.0263 45.8837 34.7038 45.75 34.375 45.75C34.0462 45.75 33.7237 45.8837 33.4912 46.1162C33.2586 46.3487 33.125 46.6712 33.125 47C33.125 47.3288 33.2587 47.6513 33.4912 47.8838C33.7237 48.1163 34.0462 48.25 34.375 48.25C34.7038 48.25 35.0263 48.1163 35.2586 47.8838C35.4913 47.6513 35.625 47.33 35.625 47C35.625 46.6712 35.4911 46.3487 35.2586 46.1162Z" fill="#114B9D"/>
<path d="M29.4584 45.75H8C7.30975 45.75 6.75 46.3096 6.75 47C6.75 47.6904 7.30975 48.25 8 48.25H29.4584C30.1488 48.25 30.7084 47.6904 30.7084 47C30.7084 46.3096 30.1486 45.75 29.4584 45.75Z" fill="#114B9D"/>
<path d="M26.25 31.75H8C7.30975 31.75 6.75 32.3096 6.75 33C6.75 33.6904 7.30975 34.25 8 34.25H26.25C26.9404 34.25 27.5 33.6904 27.5 33C27.5 32.3096 26.9403 31.75 26.25 31.75Z" fill="#114B9D"/>
<defs>
<linearGradient id="paint0_linear" x1="44.5998" y1="8.75781" x2="44.5998" y2="22.4349" gradientUnits="userSpaceOnUse">
<stop stop-color="#A02C18"/>
<stop offset="1" stop-color="#D93013"/>
</linearGradient>
<linearGradient id="paint1_linear" x1="44.5998" y1="8.75781" x2="44.5998" y2="16.0522" gradientUnits="userSpaceOnUse">
<stop stop-color="white" stop-opacity="0.33"/>
<stop offset="0.244792" stop-color="white" stop-opacity="0"/>
</linearGradient>
<linearGradient id="paint2_linear" x1="44.2911" y1="19.6995" x2="44.2911" y2="23.3467" gradientUnits="userSpaceOnUse">
<stop stop-color="#210707" stop-opacity="0"/>
<stop offset="1" stop-color="#052D2D" stop-opacity="0.33"/>
</linearGradient>
</defs>
</svg>
