<svg width="64" height="64" viewBox="0 0 64 64" fill="none" xmlns="http://www.w3.org/2000/svg">
<path d="M52.6909 25.0658C53.0356 25.0658 53.3152 24.7939 53.3152 24.4585V23.9927C54.384 23.7348 55.0707 22.8517 55.2217 21.9786C55.4179 20.8431 54.8082 19.8563 53.6684 19.4644C53.5522 19.4245 53.4338 19.3828 53.3152 19.34V17.3107C53.5539 17.3933 53.6952 17.507 53.7117 17.5207C53.9654 17.7429 54.3565 17.7257 54.5885 17.4812C54.8222 17.2347 54.8063 16.8505 54.5528 16.623C54.5244 16.5976 54.0668 16.1964 53.3152 16.0558V15.6941C53.3152 15.3586 53.0356 15.0868 52.6909 15.0868C52.3461 15.0868 52.0666 15.3587 52.0666 15.6941V16.0985C52.0224 16.1095 51.9778 16.1213 51.9328 16.1346C51.1768 16.356 50.6123 16.9838 50.4593 17.7729C50.319 18.4967 50.5601 19.1969 51.0887 19.6001C51.342 19.7933 51.6511 19.9704 52.0664 20.1548V22.8306C51.7627 22.7917 51.5358 22.6956 51.1801 22.4693C50.8914 22.2858 50.5046 22.3645 50.3157 22.6452C50.127 22.9259 50.208 23.3023 50.4966 23.4858C51.1105 23.8765 51.542 24.0108 52.0663 24.0527V24.4584C52.0666 24.7939 52.3461 25.0658 52.6909 25.0658ZM53.3153 20.6344C54.0497 20.9209 54.034 21.5252 53.9903 21.7771C53.9292 22.1305 53.7005 22.5033 53.3153 22.7046V20.6344ZM51.8593 18.6444C51.7015 18.5239 51.6336 18.2702 51.6864 17.9979C51.7262 17.7921 51.8466 17.5537 52.0664 17.405V18.7837C51.9916 18.7382 51.9215 18.6918 51.8593 18.6444Z" fill="url(#paint0_linear)"/>
<path d="M52.6909 25.0658C53.0356 25.0658 53.3152 24.7939 53.3152 24.4585V23.9927C54.384 23.7348 55.0707 22.8517 55.2217 21.9786C55.4179 20.8431 54.8082 19.8563 53.6684 19.4644C53.5522 19.4245 53.4338 19.3828 53.3152 19.34V17.3107C53.5539 17.3933 53.6952 17.507 53.7117 17.5207C53.9654 17.7429 54.3565 17.7257 54.5885 17.4812C54.8222 17.2347 54.8063 16.8505 54.5528 16.623C54.5244 16.5976 54.0668 16.1964 53.3152 16.0558V15.6941C53.3152 15.3586 53.0356 15.0868 52.6909 15.0868C52.3461 15.0868 52.0666 15.3587 52.0666 15.6941V16.0985C52.0224 16.1095 51.9778 16.1213 51.9328 16.1346C51.1768 16.356 50.6123 16.9838 50.4593 17.7729C50.319 18.4967 50.5601 19.1969 51.0887 19.6001C51.342 19.7933 51.6511 19.9704 52.0664 20.1548V22.8306C51.7627 22.7917 51.5358 22.6956 51.1801 22.4693C50.8914 22.2858 50.5046 22.3645 50.3157 22.6452C50.127 22.9259 50.208 23.3023 50.4966 23.4858C51.1105 23.8765 51.542 24.0108 52.0663 24.0527V24.4584C52.0666 24.7939 52.3461 25.0658 52.6909 25.0658ZM53.3153 20.6344C54.0497 20.9209 54.034 21.5252 53.9903 21.7771C53.9292 22.1305 53.7005 22.5033 53.3153 22.7046V20.6344ZM51.8593 18.6444C51.7015 18.5239 51.6336 18.2702 51.6864 17.9979C51.7262 17.7921 51.8466 17.5537 52.0664 17.405V18.7837C51.9916 18.7382 51.9215 18.6918 51.8593 18.6444Z" fill="url(#paint1_linear)"/>
<path d="M52.6909 25.0658C53.0356 25.0658 53.3152 24.7939 53.3152 24.4585V23.9927C54.384 23.7348 55.0707 22.8517 55.2217 21.9786C55.4179 20.8431 54.8082 19.8563 53.6684 19.4644C53.5522 19.4245 53.4338 19.3828 53.3152 19.34V17.3107C53.5539 17.3933 53.6952 17.507 53.7117 17.5207C53.9654 17.7429 54.3565 17.7257 54.5885 17.4812C54.8222 17.2347 54.8063 16.8505 54.5528 16.623C54.5244 16.5976 54.0668 16.1964 53.3152 16.0558V15.6941C53.3152 15.3586 53.0356 15.0868 52.6909 15.0868C52.3461 15.0868 52.0666 15.3587 52.0666 15.6941V16.0985C52.0224 16.1095 51.9778 16.1213 51.9328 16.1346C51.1768 16.356 50.6123 16.9838 50.4593 17.7729C50.319 18.4967 50.5601 19.1969 51.0887 19.6001C51.342 19.7933 51.6511 19.9704 52.0664 20.1548V22.8306C51.7627 22.7917 51.5358 22.6956 51.1801 22.4693C50.8914 22.2858 50.5046 22.3645 50.3157 22.6452C50.127 22.9259 50.208 23.3023 50.4966 23.4858C51.1105 23.8765 51.542 24.0108 52.0663 24.0527V24.4584C52.0666 24.7939 52.3461 25.0658 52.6909 25.0658ZM53.3153 20.6344C54.0497 20.9209 54.034 21.5252 53.9903 21.7771C53.9292 22.1305 53.7005 22.5033 53.3153 22.7046V20.6344ZM51.8593 18.6444C51.7015 18.5239 51.6336 18.2702 51.6864 17.9979C51.7262 17.7921 51.8466 17.5537 52.0664 17.405V18.7837C51.9916 18.7382 51.9215 18.6918 51.8593 18.6444Z" fill="url(#paint2_linear)"/>
<path d="M64 35.8333V33.7689C64 32.4211 63.2757 31.2354 62.1864 30.5585C62.2406 30.5103 62.294 30.461 62.3459 30.4102C63.2283 29.5482 63.7113 28.4185 63.7059 27.2292C63.7007 26.0651 63.2424 24.9606 62.4152 24.1189C62.155 23.8541 62.0057 23.4715 62.0057 23.0694V21.9445C62.0057 21.4413 61.5863 21.0335 61.0691 21.0335C60.5519 21.0335 60.1326 21.4413 60.1326 21.9445V23.0694C60.1326 23.9488 60.4623 24.7684 61.0613 25.3779C61.5557 25.881 61.8297 26.5413 61.8329 27.2371C61.836 27.9383 61.5468 28.6086 61.0186 29.1247C60.4746 29.6562 59.7284 29.961 58.9712 29.961H46.4989C45.7417 29.961 44.9955 29.6562 44.4515 29.1247C43.9233 28.6086 43.6341 27.9383 43.6372 27.2372C43.6404 26.5413 43.9143 25.8811 44.409 25.3778C45.0078 24.7684 45.3375 23.9486 45.3375 23.0694V15.2708C45.3375 13.945 46.0469 12.7259 47.235 12.0095L50.2497 10.1916H55.2205L58.2354 12.0095C59.4234 12.7259 60.1327 13.945 60.1327 15.2708V17.6933C60.1327 18.1965 60.5521 18.6043 61.0693 18.6043C61.5865 18.6043 62.0058 18.1965 62.0058 17.6933V15.2708C62.0058 13.31 60.9651 11.5118 59.2222 10.4609L56.418 8.77003V6.69918C57.0314 6.23773 58.0213 5.24424 58.6133 3.35597C58.7907 2.78984 58.6851 2.19255 58.3235 1.71747C57.9628 1.24373 57.4083 0.971924 56.8023 0.971924H48.6681C48.062 0.971924 47.5076 1.24349 47.147 1.71735C46.7852 2.19255 46.6795 2.78972 46.857 3.35585C47.4491 5.24412 48.4389 6.23773 49.0524 6.69918V8.77003L46.2483 10.4609C44.5052 11.5118 43.4646 13.3099 43.4646 15.2708V23.0694C43.4646 23.4716 43.3153 23.8541 43.0551 24.1189C42.2281 24.9605 41.7697 26.065 41.7644 27.2293C41.7592 28.4185 42.2421 29.5482 43.1244 30.4102C43.1764 30.461 43.2298 30.5103 43.284 30.5585C42.1946 31.2354 41.4703 32.4211 41.4703 33.7689V35.8333C41.4703 36.9923 42.0061 38.0315 42.8486 38.7305C42.6748 38.8748 42.5134 39.0329 42.3677 39.2042C41.649 38.359 40.5632 37.8196 39.3503 37.8196H24.6502C22.4915 37.8196 20.7352 39.5278 20.7352 41.6278V43.692C20.7352 44.8511 21.271 45.8902 22.1136 46.5893C21.9398 46.7335 21.7783 46.8916 21.6327 47.0629C20.914 46.2178 19.8282 45.6783 18.6151 45.6783H10.2834C9.76617 45.6783 9.34683 46.0861 9.34683 46.5893C9.34683 47.0925 9.76617 47.5002 10.2834 47.5002H18.6151C19.7409 47.5002 20.6571 48.3912 20.6571 49.4865V51.5508C20.6571 52.5326 19.9201 53.3481 18.9566 53.507C18.844 53.4975 3.68645 53.4975 3.57383 53.507C2.61026 53.3481 1.87332 52.5326 1.87332 51.5508V49.4865C1.87332 48.3914 2.78933 47.5002 3.9152 47.5002H5.91291C6.43011 47.5002 6.84945 47.0925 6.84945 46.5893C6.84945 46.0861 6.43011 45.6783 5.91291 45.6783H3.91495C1.75619 45.6781 0 47.3864 0 49.4862V51.5505C0 52.6971 0.524455 53.7263 1.35137 54.425C0.524455 55.1237 0 56.1527 0 57.2993V59.3637C0 61.4636 1.75619 63.1719 3.91495 63.1719H18.615C19.8279 63.1719 20.9139 62.6324 21.6325 61.7873C22.3512 62.6324 23.437 63.1719 24.6501 63.1719H39.3501C40.5631 63.1719 41.6489 62.6324 42.3676 61.7873C43.0863 62.6324 44.1721 63.1719 45.385 63.1719H60.085C62.2438 63.1719 64 61.4637 64 59.3637V57.2993C64 56.1527 63.4755 55.1237 62.6486 54.425C63.4755 53.7263 64 52.6971 64 51.5505V49.4862C64 48.3272 63.4643 47.2881 62.6217 46.589C63.4643 45.89 64 44.851 64 43.6918V41.6275C64 40.4685 63.4643 39.4293 62.6217 38.7303C63.4643 38.0314 64 36.9923 64 35.8333V35.8333ZM54.5449 8.36957H50.9253V7.12277H54.5449V8.36957ZM48.6484 2.82441C48.6463 2.81771 48.6444 2.81163 48.652 2.80153C48.6579 2.79386 48.6609 2.79386 48.6679 2.79386H56.8022C56.8093 2.79386 56.8122 2.79386 56.8181 2.80153C56.8257 2.81151 56.8238 2.81759 56.8217 2.82441C56.3373 4.36942 55.5488 5.06385 55.2137 5.30072H50.2567C49.9213 5.06385 49.1328 4.36942 48.6484 2.82441ZM20.6568 59.3636C20.6568 60.4587 19.7408 61.3499 18.6148 61.3499H3.91495C2.78908 61.3499 1.87307 60.4589 1.87307 59.3636V57.2992C1.87307 56.3174 2.61001 55.502 3.57358 55.3431C3.6862 55.3526 18.8437 55.3526 18.9563 55.3431C19.9199 55.5019 20.6568 56.3174 20.6568 57.2992V59.3636ZM21.6325 54.8758C21.4944 54.7135 21.3421 54.5631 21.1787 54.425C21.3422 54.2868 21.4945 54.1365 21.6325 53.9741C21.7707 54.1365 21.923 54.2868 22.0864 54.425C21.9229 54.5631 21.7706 54.7135 21.6325 54.8758ZM41.3919 59.3636C41.3919 60.4587 40.4759 61.3499 39.35 61.3499H24.65C23.5241 61.3499 22.608 60.4589 22.608 59.3636V57.2992C22.608 56.3174 23.3449 55.502 24.3085 55.3431C24.4211 55.3526 39.5786 55.3526 39.6913 55.3431C40.6548 55.5019 41.3918 56.3174 41.3918 57.2992V59.3636H41.3919ZM41.3919 51.5505C41.3919 52.5323 40.6549 53.3479 39.6914 53.5067C39.5788 53.4972 24.4212 53.4972 24.3086 53.5067C23.3451 53.3479 22.6081 52.5323 22.6081 51.5505V49.4862C22.6081 48.3911 23.5241 47.5 24.6501 47.5H39.3501C40.476 47.5 41.392 48.391 41.392 49.4862V51.5505H41.3919ZM41.3919 43.6919C41.3919 44.787 40.4759 45.6782 39.35 45.6782H24.65C23.5241 45.6782 22.608 44.7872 22.608 43.6919V41.6276C22.608 40.5325 23.524 39.6414 24.65 39.6414H39.35C40.4759 39.6414 41.3919 40.5324 41.3919 41.6276V43.6919ZM42.3675 54.8758C42.2294 54.7135 42.077 54.5631 41.9136 54.425C42.0771 54.2868 42.2294 54.1365 42.3675 53.9741C42.5055 54.1365 42.6579 54.2868 42.8213 54.425C42.6579 54.5631 42.5056 54.7135 42.3675 54.8758ZM42.3675 47.0626C42.2218 46.8914 42.0605 46.7333 41.8866 46.589C42.0604 46.4448 42.2218 46.2868 42.3675 46.1154C42.5131 46.2867 42.6744 46.4448 42.8484 46.589C42.6746 46.7333 42.5131 46.8914 42.3675 47.0626ZM62.1269 59.3636C62.1269 60.4587 61.2109 61.3499 60.085 61.3499H45.385C44.2592 61.3499 43.3432 60.4589 43.3432 59.3636V57.2992C43.3432 56.3174 44.0801 55.502 45.0437 55.3431C45.1563 55.3526 60.3139 55.3526 60.4266 55.3431C61.3901 55.5019 62.1271 56.3174 62.1271 57.2992V59.3636H62.1269ZM62.1269 51.5505C62.1269 52.5323 61.39 53.3479 60.4264 53.5067C60.3138 53.4972 45.1562 53.4972 45.0435 53.5067C44.08 53.3479 43.343 52.5323 43.343 51.5505V49.4862C43.343 48.3911 44.2591 47.5 45.3849 47.5H60.0849C61.2108 47.5 62.1268 48.391 62.1268 49.4862V51.5505H62.1269ZM62.1269 43.6919C62.1269 44.787 61.2109 45.6782 60.085 45.6782H45.385C44.2592 45.6782 43.3432 44.7872 43.3432 43.6919V41.6276C43.3432 40.5325 44.2592 39.6414 45.385 39.6414H60.085C61.2109 39.6414 62.1269 40.5324 62.1269 41.6276V43.6919ZM62.1269 35.8333C62.1269 36.9284 61.2109 37.8196 60.085 37.8196H45.385C44.2592 37.8196 43.3432 36.9286 43.3432 35.8333V33.7689C43.3432 32.6738 44.2592 31.7828 45.385 31.7828H60.085C61.2109 31.7828 62.1269 32.6737 62.1269 33.7689V35.8333Z" fill="#114B9D"/>
<defs>
<linearGradient id="paint0_linear" x1="52.7359" y1="15.0868" x2="52.7359" y2="24.4421" gradientUnits="userSpaceOnUse">
<stop stop-color="#A02C18"/>
<stop offset="1" stop-color="#D93013"/>
</linearGradient>
<linearGradient id="paint1_linear" x1="52.7359" y1="15.0868" x2="52.7359" y2="20.0763" gradientUnits="userSpaceOnUse">
<stop stop-color="white" stop-opacity="0.33"/>
<stop offset="0.244792" stop-color="white" stop-opacity="0"/>
</linearGradient>
<linearGradient id="paint2_linear" x1="52.5888" y1="22.571" x2="52.5888" y2="25.0658" gradientUnits="userSpaceOnUse">
<stop stop-color="#210707" stop-opacity="0"/>
<stop offset="1" stop-color="#052D2D" stop-opacity="0.33"/>
</linearGradient>
</defs>
</svg>
