<svg width="64" height="64" viewBox="0 0 64 64" fill="none" xmlns="http://www.w3.org/2000/svg">
<path d="M37.9295 24.5649L37.9287 24.5659L37.9295 24.5649Z" fill="black"/>
<path d="M51.2109 13.5349C51.7644 14.14 52.5527 14.488 53.3736 14.4901H53.3807C54.199 14.4901 54.986 14.1461 55.5411 13.5456L59.6609 9.08729C60.6378 8.03006 60.5712 6.37644 59.5121 5.40099C58.4529 4.42568 56.7965 4.49233 55.8196 5.54956L53.3966 8.17137L52.9551 7.69366C52.4811 7.18055 51.8353 6.88267 51.1368 6.85453C50.4385 6.82489 49.7707 7.0715 49.2568 7.54484C48.2012 8.51703 48.1306 10.169 49.0992 11.2274L51.2109 13.5349ZM50.5309 8.92347C50.6683 8.79678 50.8448 8.72813 51.0307 8.72813C51.0409 8.72813 51.051 8.72825 51.0612 8.72875C51.2582 8.73663 51.4402 8.82067 51.574 8.96548L52.4754 9.94093C52.7119 10.197 53.0478 10.344 53.3966 10.344C53.7455 10.344 54.0814 10.197 54.3176 9.94118L57.2005 6.82151C57.475 6.5245 57.9405 6.50587 58.2378 6.77987C58.5353 7.05387 58.554 7.51845 58.2796 7.81534L54.1599 12.2735C53.9567 12.4933 53.6803 12.6143 53.3809 12.6143C53.38 12.6143 53.379 12.6143 53.3781 12.6143C53.0777 12.6135 52.8008 12.4912 52.5981 12.2697L50.4864 9.96206C50.2132 9.66355 50.2332 9.19771 50.5309 8.92347Z" fill="url(#paint0_linear)"/>
<path d="M51.2109 13.5349C51.7644 14.14 52.5527 14.488 53.3736 14.4901H53.3807C54.199 14.4901 54.986 14.1461 55.5411 13.5456L59.6609 9.08729C60.6378 8.03006 60.5712 6.37644 59.5121 5.40099C58.4529 4.42568 56.7965 4.49233 55.8196 5.54956L53.3966 8.17137L52.9551 7.69366C52.4811 7.18055 51.8353 6.88267 51.1368 6.85453C50.4385 6.82489 49.7707 7.0715 49.2568 7.54484C48.2012 8.51703 48.1306 10.169 49.0992 11.2274L51.2109 13.5349ZM50.5309 8.92347C50.6683 8.79678 50.8448 8.72813 51.0307 8.72813C51.0409 8.72813 51.051 8.72825 51.0612 8.72875C51.2582 8.73663 51.4402 8.82067 51.574 8.96548L52.4754 9.94093C52.7119 10.197 53.0478 10.344 53.3966 10.344C53.7455 10.344 54.0814 10.197 54.3176 9.94118L57.2005 6.82151C57.475 6.5245 57.9405 6.50587 58.2378 6.77987C58.5353 7.05387 58.554 7.51845 58.2796 7.81534L54.1599 12.2735C53.9567 12.4933 53.6803 12.6143 53.3809 12.6143C53.38 12.6143 53.379 12.6143 53.3781 12.6143C53.0777 12.6135 52.8008 12.4912 52.5981 12.2697L50.4864 9.96206C50.2132 9.66355 50.2332 9.19771 50.5309 8.92347Z" fill="url(#paint1_linear)"/>
<path d="M51.2109 13.5349C51.7644 14.14 52.5527 14.488 53.3736 14.4901H53.3807C54.199 14.4901 54.986 14.1461 55.5411 13.5456L59.6609 9.08729C60.6378 8.03006 60.5712 6.37644 59.5121 5.40099C58.4529 4.42568 56.7965 4.49233 55.8196 5.54956L53.3966 8.17137L52.9551 7.69366C52.4811 7.18055 51.8353 6.88267 51.1368 6.85453C50.4385 6.82489 49.7707 7.0715 49.2568 7.54484C48.2012 8.51703 48.1306 10.169 49.0992 11.2274L51.2109 13.5349ZM50.5309 8.92347C50.6683 8.79678 50.8448 8.72813 51.0307 8.72813C51.0409 8.72813 51.051 8.72825 51.0612 8.72875C51.2582 8.73663 51.4402 8.82067 51.574 8.96548L52.4754 9.94093C52.7119 10.197 53.0478 10.344 53.3966 10.344C53.7455 10.344 54.0814 10.197 54.3176 9.94118L57.2005 6.82151C57.475 6.5245 57.9405 6.50587 58.2378 6.77987C58.5353 7.05387 58.554 7.51845 58.2796 7.81534L54.1599 12.2735C53.9567 12.4933 53.6803 12.6143 53.3809 12.6143C53.38 12.6143 53.379 12.6143 53.3781 12.6143C53.0777 12.6135 52.8008 12.4912 52.5981 12.2697L50.4864 9.96206C50.2132 9.66355 50.2332 9.19771 50.5309 8.92347Z" fill="url(#paint2_linear)"/>
<path d="M62.1095 57.3722H55.9069L55.8878 26.0491H57.5459C58.0469 26.0491 58.4909 25.7679 58.7043 25.3153C58.9178 24.8628 58.852 24.3422 58.5329 23.9569L54.5907 19.1948C59.7975 19.0841 64 14.8243 64 9.6001C63.9999 4.30658 59.6862 0 54.3838 0C52.3121 0 50.3386 0.647543 48.6768 1.87272C48.2595 2.18049 48.171 2.76763 48.4792 3.18432C48.7875 3.60126 49.3757 3.68955 49.7931 3.38166C51.1293 2.39659 52.7167 1.87585 54.3838 1.87585C58.6501 1.87585 62.1209 5.34092 62.1209 9.6001C62.1209 13.8593 58.65 17.3242 54.3838 17.3242C53.8857 17.3242 53.399 17.2752 52.9268 17.1849L52.372 16.5147C52.128 16.2197 51.7682 16.0505 51.385 16.0504H51.3849C51.0922 16.0504 50.8137 16.1497 50.5894 16.3278C48.2382 15.0009 46.6465 12.4834 46.6465 9.6001C46.6465 8.49147 46.8765 7.42174 47.3301 6.42053C47.5439 5.94857 47.334 5.39282 46.8612 5.17935C46.3885 4.96625 45.8319 5.1756 45.6181 5.64743C45.0538 6.89312 44.7675 8.22298 44.7675 9.59998C44.7675 13.0533 46.6047 16.0847 49.3534 17.7762L44.2371 23.9566C43.918 24.3422 43.8522 24.8628 44.0656 25.3152C44.2791 25.7678 44.7229 26.0489 45.224 26.0489H46.8821L46.863 57.3721H41.99L41.9708 32.9045H43.629C44.1299 32.9045 44.5737 32.6234 44.7872 32.1711C45.0006 31.7185 44.9351 31.1979 44.6158 30.8122L38.4547 23.3696C38.2105 23.075 37.8509 22.9059 37.4677 22.9059C37.0846 22.9059 36.725 23.0751 36.481 23.3698L30.32 30.8122C30.0008 31.1978 29.9352 31.7184 30.1485 32.171C30.3619 32.6234 30.8058 32.9045 31.3068 32.9045H32.9649L32.9458 57.3721H28.0728V45.7461C28.0728 44.9774 27.4464 44.352 26.6762 44.352H20.4255C19.6555 44.352 19.0289 44.9774 19.0289 45.7461V48.5227C19.0289 49.0408 19.4496 49.4607 19.9684 49.4607C20.4873 49.4607 20.9079 49.0408 20.9079 48.5227V46.2277H26.1938V57.372H20.9079V52.8586C20.9079 52.3405 20.4873 51.9207 19.9684 51.9207C19.4496 51.9207 19.0289 52.3405 19.0289 52.8586V57.372H14.1559V51.7257C14.1559 50.957 13.5295 50.3314 12.7593 50.3314H6.50874C5.73873 50.3314 5.11214 50.957 5.11214 51.7257V57.372H1.85696C0.833025 57.372 0 58.2036 0 59.2258V62.1463C0 63.1685 0.833025 64 1.85696 64H62.1095C63.1334 64 63.9664 63.1685 63.9664 62.1463V59.2258C63.9664 58.2039 63.1334 57.3722 62.1095 57.3722ZM46.4954 24.1732L51.3849 18.2669L56.2743 24.1732H55.2891C54.5832 24.1732 54.0088 24.7466 54.0088 25.4514V30.6375H48.7612V25.4514C48.7612 24.7466 48.1868 24.1732 47.4808 24.1732H46.4954ZM54.0279 32.5132V57.3722H48.742V32.5132H54.0279ZM32.5784 31.0287L37.468 25.1223L42.3575 31.0287H41.3722C40.6662 31.0287 40.0918 31.6021 40.0918 32.3069V37.493H34.8441V32.3069C34.8441 31.6021 34.2698 31.0287 33.5639 31.0287H32.5784ZM40.111 39.3688V57.3652H34.8251V39.3688H40.111ZM6.99115 52.2074H12.277V57.3722H6.99115V52.2074ZM62.0874 62.1244H1.87888V59.2481H62.0873V62.1244H62.0874Z" fill="#114B9D"/>
<defs>
<linearGradient id="paint0_linear" x1="54.3843" y1="4.71094" x2="54.3843" y2="13.8789" gradientUnits="userSpaceOnUse">
<stop stop-color="#A02C18"/>
<stop offset="1" stop-color="#D93013"/>
</linearGradient>
<linearGradient id="paint1_linear" x1="54.3843" y1="4.71094" x2="54.3843" y2="9.60053" gradientUnits="userSpaceOnUse">
<stop stop-color="white" stop-opacity="0.33"/>
<stop offset="0.244792" stop-color="white" stop-opacity="0"/>
</linearGradient>
<linearGradient id="paint2_linear" x1="54.0362" y1="12.0453" x2="54.0362" y2="14.4901" gradientUnits="userSpaceOnUse">
<stop stop-color="#210707" stop-opacity="0"/>
<stop offset="1" stop-color="#052D2D" stop-opacity="0.33"/>
</linearGradient>
</defs>
</svg>
