<svg width="64" height="64" viewBox="0 0 64 64" fill="none" xmlns="http://www.w3.org/2000/svg">
<path d="M63.2863 45.8084C62.0549 44.0539 59.9662 43.6255 57.6971 44.6608L56.4944 45.1741C58.3907 41.2554 58.626 36.887 57.682 32.7607C56.5978 28.0215 53.9792 23.4305 49.8989 19.1151C49.5382 18.7335 48.9267 18.7077 48.5329 19.0576C48.1393 19.4074 48.1128 20.0002 48.4736 20.382C52.3216 24.4515 54.7846 28.7529 55.7944 33.1666C56.8579 37.8157 56.2392 42.6103 53.5251 46.4417L41.4908 51.5791L41.5008 50.2613C41.501 50.228 41.4995 50.1948 41.496 50.1617C41.2182 47.4533 39.0829 45.2954 36.3033 44.9141C36.2951 44.9129 36.2868 44.9119 36.2785 44.911L25.5826 43.717C21.4697 43.1494 20.4104 40.7597 14.8402 39.3971C14.4554 36.2308 14.9684 32.8597 16.3745 29.4801C18.4921 24.3903 22.6349 19.4452 28.3781 15.1411C30.5186 16.6126 40.0686 16.7957 42.2057 14.8975C43.3006 15.7036 44.3455 16.5344 45.3189 17.3752C45.5032 17.5345 45.7329 17.6127 45.9618 17.6127C46.2279 17.6127 46.4929 17.5069 46.6839 17.299C47.0391 16.9125 47.0037 16.32 46.6051 15.9756C45.5381 15.054 44.3904 14.1446 43.1866 13.2657C43.4687 12.106 43.0739 10.7486 42.0322 9.94057C45.0593 5.48904 45.9397 2.5754 44.7235 1.04889C43.8882 0.000258924 42.8491 0.492387 42.4053 0.702638C41.6531 1.05864 41.243 1.07739 40.551 0.638388C39.2306 -0.199242 37.8428 -0.226242 36.48 0.638388C35.7791 1.08302 35.2272 1.08302 34.5266 0.638388C33.2061 -0.199242 31.8189 -0.226242 30.4557 0.638388C29.7557 1.08264 29.344 1.05514 28.6037 0.698388C28.1604 0.484762 27.1225 -0.0154912 26.2819 1.03326C25.093 2.51677 25.8884 5.33854 28.7112 9.63869C28.5383 9.72931 28.3736 9.83569 28.2198 9.95719C27.0971 8.80768 25.2577 7.6088 22.5976 7.8968C20.3913 8.13618 18.7644 7.4293 17.7879 6.7943C17.3444 6.5063 16.7439 6.62105 16.4465 7.0508C16.1492 7.4808 16.2677 8.06305 16.7111 8.35131C17.9559 9.16044 20.0246 10.0612 22.8122 9.75982C24.8673 9.53631 26.2617 10.5546 27.1298 11.5908C27.1179 11.6308 27.107 11.6711 27.0968 11.7113C26.3564 11.7226 25.2498 11.7896 24.0312 12.0353C21.1004 12.6265 18.9249 13.9768 17.7397 15.9409C17.4701 16.3876 17.6251 16.9619 18.0858 17.2234C18.5468 17.4847 19.1389 17.3344 19.4085 16.8876C21.1715 13.9665 25.4746 13.6092 27.1838 13.5868C27.1912 13.6075 27.1998 13.6278 27.2075 13.6483C21.1083 18.21 16.8619 23.2971 14.5815 28.7784C13.1401 32.2431 12.5643 35.7141 12.8566 39.0127C11.9295 38.8797 10.9917 38.8084 10.0493 38.8021V38.2352C10.0493 36.7353 8.79074 35.5152 7.24375 35.5152H2.80558C1.25858 35.5152 0 36.7355 0 38.2352V60.0659C0 61.5659 1.25858 62.786 2.80558 62.786H7.24362C8.79061 62.786 10.0492 61.5657 10.0492 60.0659V59.7989L19.7304 63.2925C21.0314 63.7619 22.395 64 23.7831 64H38.2082C40.4137 64 42.564 63.395 44.4268 62.2506C63.6702 50.423 62.5016 51.1589 62.6128 51.0634C64.1629 49.7294 64.4524 47.4702 63.2863 45.8084ZM40.3915 13.7867C36.856 14.6522 33.4186 14.6522 29.8824 13.7867C28.3651 13.4148 28.8047 10.7911 30.4354 11.1876C33.599 11.9576 36.6746 11.9576 39.8385 11.1876C41.4408 10.7976 41.9332 13.409 40.3915 13.7867ZM27.7207 2.36652C27.7283 2.37015 27.7359 2.3739 27.7431 2.3774C29.0516 3.0079 30.1981 3.04215 31.5143 2.20727C33.1615 1.16189 33.3403 2.83803 35.5031 2.83803C36.5443 2.83803 37.1189 2.47352 37.5385 2.20727C38.2394 1.76252 38.7915 1.76277 39.4923 2.20727C40.8144 3.04603 41.9332 3.00465 43.2797 2.37502C43.4786 3.07028 43.0284 5.14291 40.1616 9.28119C38.738 9.25769 36.6721 10.6133 30.8237 9.35144C27.9631 5.15966 27.5207 3.0669 27.7207 2.36652ZM61.3815 49.6155L43.3919 60.6677C41.8392 61.6216 40.0467 62.126 38.2084 62.126H23.7833C22.6261 62.126 21.4895 61.9275 20.405 61.5361L10.0492 57.799V47.7045C10.0492 47.1868 9.61639 46.7672 9.08251 46.7672C8.54862 46.7672 8.11581 47.1868 8.11581 47.7045V60.0664C8.11581 60.5326 7.72452 60.9119 7.24375 60.9119H2.80558C2.32468 60.9119 1.93352 60.5325 1.93352 60.0664V38.2357C1.93352 37.7695 2.32468 37.3903 2.80558 37.3903H7.24362C7.72452 37.3903 8.11568 37.7696 8.11568 38.2357V43.3225C8.11568 43.8403 8.54849 44.2599 9.08238 44.2599C9.61626 44.2599 10.0491 43.8403 10.0491 43.3225V40.6772C18.0465 40.7366 19.8447 44.8235 25.3238 45.5749C25.3321 45.5761 25.3403 45.5771 25.3486 45.578L36.0439 46.7719C37.9167 47.034 39.358 48.4799 39.5666 50.3003L39.5532 52.0833H29.5788C29.0449 52.0833 28.6119 52.5029 28.6119 53.0207C28.6119 53.5384 29.0448 53.9581 29.5788 53.9581H40.5129C40.635 53.9581 40.7761 53.9318 40.8988 53.8799C40.9185 53.8714 58.4668 46.3805 58.4872 46.3718C59.7522 45.8268 60.9054 45.7489 61.6875 46.8632C62.2955 47.729 62.1609 48.8997 61.3815 49.6155Z" fill="#114B9D"/>
<path d="M35.3916 42.5279C35.9255 42.5279 36.3585 42.1083 36.3585 41.5905V40.0367C39.0725 39.6097 40.6561 37.4799 41.0006 35.4928C41.431 33.0107 40.09 30.8521 37.5844 29.9934C37.1417 29.8417 36.7343 29.6966 36.3583 29.5564V23.5799C37.502 23.7638 38.1887 24.3377 38.2387 24.3805C38.6314 24.7268 39.2392 24.7012 39.5996 24.3224C39.9616 23.9419 39.9368 23.3489 39.5444 22.9979C39.4762 22.9369 38.2921 21.9033 36.3583 21.6871V20.3541C36.3583 19.8364 35.9255 19.4167 35.3915 19.4167C34.8576 19.4167 34.4248 19.8364 34.4248 20.3541V21.7629C34.1917 21.8061 33.9529 21.8611 33.7076 21.9328C32.0676 22.4116 30.8418 23.775 30.5083 25.4907C30.2057 27.0475 30.7148 28.5448 31.8369 29.3981C32.4811 29.8879 33.2921 30.3364 34.4248 30.8159V38.2286C33.3068 38.1827 32.6186 37.9792 31.418 37.2177C30.9713 36.9345 30.372 37.0556 30.0797 37.489C29.7874 37.9221 29.9126 38.5031 30.3595 38.7865C31.9377 39.7875 32.9927 40.0486 34.4248 40.1026V41.5905C34.4248 42.1083 34.8576 42.5279 35.3916 42.5279ZM33.0302 27.923C32.4783 27.5033 32.2399 26.7043 32.4084 25.8379C32.5647 25.0344 33.1344 24.0581 34.2653 23.7279C34.3191 23.7121 34.372 23.6986 34.4248 23.6849V28.7481C33.8459 28.4678 33.392 28.1982 33.0302 27.923ZM36.94 31.7609C39.3458 32.5853 39.1968 34.5881 39.0938 35.1822C38.8805 36.4123 37.9492 37.7256 36.3583 38.1209V31.5578C36.5466 31.6246 36.7388 31.6919 36.94 31.7609Z" fill="url(#paint0_linear)"/>
<path d="M35.3916 42.5279C35.9255 42.5279 36.3585 42.1083 36.3585 41.5905V40.0367C39.0725 39.6097 40.6561 37.4799 41.0006 35.4928C41.431 33.0107 40.09 30.8521 37.5844 29.9934C37.1417 29.8417 36.7343 29.6966 36.3583 29.5564V23.5799C37.502 23.7638 38.1887 24.3377 38.2387 24.3805C38.6314 24.7268 39.2392 24.7012 39.5996 24.3224C39.9616 23.9419 39.9368 23.3489 39.5444 22.9979C39.4762 22.9369 38.2921 21.9033 36.3583 21.6871V20.3541C36.3583 19.8364 35.9255 19.4167 35.3915 19.4167C34.8576 19.4167 34.4248 19.8364 34.4248 20.3541V21.7629C34.1917 21.8061 33.9529 21.8611 33.7076 21.9328C32.0676 22.4116 30.8418 23.775 30.5083 25.4907C30.2057 27.0475 30.7148 28.5448 31.8369 29.3981C32.4811 29.8879 33.2921 30.3364 34.4248 30.8159V38.2286C33.3068 38.1827 32.6186 37.9792 31.418 37.2177C30.9713 36.9345 30.372 37.0556 30.0797 37.489C29.7874 37.9221 29.9126 38.5031 30.3595 38.7865C31.9377 39.7875 32.9927 40.0486 34.4248 40.1026V41.5905C34.4248 42.1083 34.8576 42.5279 35.3916 42.5279ZM33.0302 27.923C32.4783 27.5033 32.2399 26.7043 32.4084 25.8379C32.5647 25.0344 33.1344 24.0581 34.2653 23.7279C34.3191 23.7121 34.372 23.6986 34.4248 23.6849V28.7481C33.8459 28.4678 33.392 28.1982 33.0302 27.923ZM36.94 31.7609C39.3458 32.5853 39.1968 34.5881 39.0938 35.1822C38.8805 36.4123 37.9492 37.7256 36.3583 38.1209V31.5578C36.5466 31.6246 36.7388 31.6919 36.94 31.7609Z" fill="url(#paint1_linear)"/>
<path d="M35.3916 42.5279C35.9255 42.5279 36.3585 42.1083 36.3585 41.5905V40.0367C39.0725 39.6097 40.6561 37.4799 41.0006 35.4928C41.431 33.0107 40.09 30.8521 37.5844 29.9934C37.1417 29.8417 36.7343 29.6966 36.3583 29.5564V23.5799C37.502 23.7638 38.1887 24.3377 38.2387 24.3805C38.6314 24.7268 39.2392 24.7012 39.5996 24.3224C39.9616 23.9419 39.9368 23.3489 39.5444 22.9979C39.4762 22.9369 38.2921 21.9033 36.3583 21.6871V20.3541C36.3583 19.8364 35.9255 19.4167 35.3915 19.4167C34.8576 19.4167 34.4248 19.8364 34.4248 20.3541V21.7629C34.1917 21.8061 33.9529 21.8611 33.7076 21.9328C32.0676 22.4116 30.8418 23.775 30.5083 25.4907C30.2057 27.0475 30.7148 28.5448 31.8369 29.3981C32.4811 29.8879 33.2921 30.3364 34.4248 30.8159V38.2286C33.3068 38.1827 32.6186 37.9792 31.418 37.2177C30.9713 36.9345 30.372 37.0556 30.0797 37.489C29.7874 37.9221 29.9126 38.5031 30.3595 38.7865C31.9377 39.7875 32.9927 40.0486 34.4248 40.1026V41.5905C34.4248 42.1083 34.8576 42.5279 35.3916 42.5279ZM33.0302 27.923C32.4783 27.5033 32.2399 26.7043 32.4084 25.8379C32.5647 25.0344 33.1344 24.0581 34.2653 23.7279C34.3191 23.7121 34.372 23.6986 34.4248 23.6849V28.7481C33.8459 28.4678 33.392 28.1982 33.0302 27.923ZM36.94 31.7609C39.3458 32.5853 39.1968 34.5881 39.0938 35.1822C38.8805 36.4123 37.9492 37.7256 36.3583 38.1209V31.5578C36.5466 31.6246 36.7388 31.6919 36.94 31.7609Z" fill="url(#paint2_linear)"/>
<defs>
<linearGradient id="paint0_linear" x1="35.501" y1="19.4167" x2="35.501" y2="41.0834" gradientUnits="userSpaceOnUse">
<stop stop-color="#A02C18"/>
<stop offset="1" stop-color="#D93013"/>
</linearGradient>
<linearGradient id="paint1_linear" x1="35.501" y1="19.4167" x2="35.501" y2="30.9723" gradientUnits="userSpaceOnUse">
<stop stop-color="white" stop-opacity="0.33"/>
<stop offset="0.244792" stop-color="white" stop-opacity="0"/>
</linearGradient>
<linearGradient id="paint2_linear" x1="35.1756" y1="36.7501" x2="35.1756" y2="42.5279" gradientUnits="userSpaceOnUse">
<stop stop-color="#210707" stop-opacity="0"/>
<stop offset="1" stop-color="#052D2D" stop-opacity="0.33"/>
</linearGradient>
</defs>
</svg>
