<svg width="64" height="64" viewBox="0 0 64 64" fill="none" xmlns="http://www.w3.org/2000/svg">
<path d="M13.5638 34.5318C14.0826 34.5318 14.5032 34.1046 14.5032 33.5775V32.9159C14.5032 31.3941 13.3586 30.1387 11.8981 29.9914V28.9461C11.8981 28.419 11.4774 27.9918 10.9587 27.9918C10.4399 27.9918 10.0193 28.419 10.0193 28.9461V30.0371C8.53706 30.329 7.41419 31.6569 7.41419 33.2467C7.41419 35.0498 8.85819 36.5166 10.6329 36.5166H11.2842C12.0232 36.5166 12.6243 37.1273 12.6243 37.8781C12.6243 38.6288 12.0232 39.2395 11.2842 39.2395H10.3073C9.74794 39.2395 9.29281 38.7771 9.29281 38.2087C9.29281 37.6816 8.87219 37.2544 8.35344 37.2544C7.83469 37.2544 7.41406 37.6816 7.41406 38.2087C7.41406 39.7306 8.55856 40.986 10.0192 41.1333V42.1785C10.0192 42.7056 10.4398 43.1328 10.9586 43.1328C11.4773 43.1328 11.8979 42.7056 11.8979 42.1785V41.0875C13.3802 40.7956 14.5031 39.4677 14.5031 37.8779C14.5031 36.0748 13.0591 34.608 11.2843 34.608H10.6331C9.89406 34.608 9.29294 33.9973 9.29294 33.2466C9.29294 32.4958 9.89406 31.8851 10.6331 31.8851H11.6099C12.1693 31.8851 12.6244 32.3475 12.6244 32.9159V33.5775C12.6244 34.1046 13.0451 34.5318 13.5638 34.5318Z" fill="url(#paint0_linear)"/>
<path d="M13.5638 34.5318C14.0826 34.5318 14.5032 34.1046 14.5032 33.5775V32.9159C14.5032 31.3941 13.3586 30.1387 11.8981 29.9914V28.9461C11.8981 28.419 11.4774 27.9918 10.9587 27.9918C10.4399 27.9918 10.0193 28.419 10.0193 28.9461V30.0371C8.53706 30.329 7.41419 31.6569 7.41419 33.2467C7.41419 35.0498 8.85819 36.5166 10.6329 36.5166H11.2842C12.0232 36.5166 12.6243 37.1273 12.6243 37.8781C12.6243 38.6288 12.0232 39.2395 11.2842 39.2395H10.3073C9.74794 39.2395 9.29281 38.7771 9.29281 38.2087C9.29281 37.6816 8.87219 37.2544 8.35344 37.2544C7.83469 37.2544 7.41406 37.6816 7.41406 38.2087C7.41406 39.7306 8.55856 40.986 10.0192 41.1333V42.1785C10.0192 42.7056 10.4398 43.1328 10.9586 43.1328C11.4773 43.1328 11.8979 42.7056 11.8979 42.1785V41.0875C13.3802 40.7956 14.5031 39.4677 14.5031 37.8779C14.5031 36.0748 13.0591 34.608 11.2843 34.608H10.6331C9.89406 34.608 9.29294 33.9973 9.29294 33.2466C9.29294 32.4958 9.89406 31.8851 10.6331 31.8851H11.6099C12.1693 31.8851 12.6244 32.3475 12.6244 32.9159V33.5775C12.6244 34.1046 13.0451 34.5318 13.5638 34.5318Z" fill="url(#paint1_linear)"/>
<path d="M13.5638 34.5318C14.0826 34.5318 14.5032 34.1046 14.5032 33.5775V32.9159C14.5032 31.3941 13.3586 30.1387 11.8981 29.9914V28.9461C11.8981 28.419 11.4774 27.9918 10.9587 27.9918C10.4399 27.9918 10.0193 28.419 10.0193 28.9461V30.0371C8.53706 30.329 7.41419 31.6569 7.41419 33.2467C7.41419 35.0498 8.85819 36.5166 10.6329 36.5166H11.2842C12.0232 36.5166 12.6243 37.1273 12.6243 37.8781C12.6243 38.6288 12.0232 39.2395 11.2842 39.2395H10.3073C9.74794 39.2395 9.29281 38.7771 9.29281 38.2087C9.29281 37.6816 8.87219 37.2544 8.35344 37.2544C7.83469 37.2544 7.41406 37.6816 7.41406 38.2087C7.41406 39.7306 8.55856 40.986 10.0192 41.1333V42.1785C10.0192 42.7056 10.4398 43.1328 10.9586 43.1328C11.4773 43.1328 11.8979 42.7056 11.8979 42.1785V41.0875C13.3802 40.7956 14.5031 39.4677 14.5031 37.8779C14.5031 36.0748 13.0591 34.608 11.2843 34.608H10.6331C9.89406 34.608 9.29294 33.9973 9.29294 33.2466C9.29294 32.4958 9.89406 31.8851 10.6331 31.8851H11.6099C12.1693 31.8851 12.6244 32.3475 12.6244 32.9159V33.5775C12.6244 34.1046 13.0451 34.5318 13.5638 34.5318Z" fill="url(#paint2_linear)"/>
<path d="M34.6053 10.1026C35.1242 10.1026 35.5447 9.67543 35.5447 9.1483V8.48669C35.5447 6.96487 34.4001 5.70947 32.9396 5.56217V4.51693C32.9396 3.98981 32.5191 3.56262 32.0002 3.56262C31.4814 3.56262 31.0608 3.98981 31.0608 4.51693V5.60788C29.5786 5.89983 28.4557 7.22774 28.4557 8.8175C28.4557 10.6206 29.8997 12.0874 31.6744 12.0874H32.3257C33.0647 12.0874 33.6658 12.6981 33.6658 13.4489C33.6658 14.1996 33.0647 14.8103 32.3257 14.8103H31.3488C30.7894 14.8103 30.3343 14.3479 30.3343 13.7795C30.3343 13.2524 29.9137 12.8252 29.3949 12.8252C28.8762 12.8252 28.4556 13.2524 28.4556 13.7795C28.4556 15.3014 29.6001 16.5568 31.0607 16.7041V17.7493C31.0607 18.2764 31.4813 18.7036 32.0001 18.7036C32.5189 18.7036 32.9394 18.2764 32.9394 17.7493V16.6583C34.4216 16.3664 35.5446 15.0385 35.5446 13.4487C35.5446 11.6456 34.1006 10.1788 32.3258 10.1788H31.6746C30.9356 10.1788 30.3344 9.56812 30.3344 8.81737C30.3344 8.06662 30.9356 7.45594 31.6746 7.45594H32.6514C33.2108 7.45594 33.6659 7.9183 33.6659 8.48669V9.1483C33.6659 9.67555 34.0864 10.1026 34.6053 10.1026Z" fill="url(#paint3_linear)"/>
<path d="M34.6053 10.1026C35.1242 10.1026 35.5447 9.67543 35.5447 9.1483V8.48669C35.5447 6.96487 34.4001 5.70947 32.9396 5.56217V4.51693C32.9396 3.98981 32.5191 3.56262 32.0002 3.56262C31.4814 3.56262 31.0608 3.98981 31.0608 4.51693V5.60788C29.5786 5.89983 28.4557 7.22774 28.4557 8.8175C28.4557 10.6206 29.8997 12.0874 31.6744 12.0874H32.3257C33.0647 12.0874 33.6658 12.6981 33.6658 13.4489C33.6658 14.1996 33.0647 14.8103 32.3257 14.8103H31.3488C30.7894 14.8103 30.3343 14.3479 30.3343 13.7795C30.3343 13.2524 29.9137 12.8252 29.3949 12.8252C28.8762 12.8252 28.4556 13.2524 28.4556 13.7795C28.4556 15.3014 29.6001 16.5568 31.0607 16.7041V17.7493C31.0607 18.2764 31.4813 18.7036 32.0001 18.7036C32.5189 18.7036 32.9394 18.2764 32.9394 17.7493V16.6583C34.4216 16.3664 35.5446 15.0385 35.5446 13.4487C35.5446 11.6456 34.1006 10.1788 32.3258 10.1788H31.6746C30.9356 10.1788 30.3344 9.56812 30.3344 8.81737C30.3344 8.06662 30.9356 7.45594 31.6746 7.45594H32.6514C33.2108 7.45594 33.6659 7.9183 33.6659 8.48669V9.1483C33.6659 9.67555 34.0864 10.1026 34.6053 10.1026Z" fill="url(#paint4_linear)"/>
<path d="M34.6053 10.1026C35.1242 10.1026 35.5447 9.67543 35.5447 9.1483V8.48669C35.5447 6.96487 34.4001 5.70947 32.9396 5.56217V4.51693C32.9396 3.98981 32.5191 3.56262 32.0002 3.56262C31.4814 3.56262 31.0608 3.98981 31.0608 4.51693V5.60788C29.5786 5.89983 28.4557 7.22774 28.4557 8.8175C28.4557 10.6206 29.8997 12.0874 31.6744 12.0874H32.3257C33.0647 12.0874 33.6658 12.6981 33.6658 13.4489C33.6658 14.1996 33.0647 14.8103 32.3257 14.8103H31.3488C30.7894 14.8103 30.3343 14.3479 30.3343 13.7795C30.3343 13.2524 29.9137 12.8252 29.3949 12.8252C28.8762 12.8252 28.4556 13.2524 28.4556 13.7795C28.4556 15.3014 29.6001 16.5568 31.0607 16.7041V17.7493C31.0607 18.2764 31.4813 18.7036 32.0001 18.7036C32.5189 18.7036 32.9394 18.2764 32.9394 17.7493V16.6583C34.4216 16.3664 35.5446 15.0385 35.5446 13.4487C35.5446 11.6456 34.1006 10.1788 32.3258 10.1788H31.6746C30.9356 10.1788 30.3344 9.56812 30.3344 8.81737C30.3344 8.06662 30.9356 7.45594 31.6746 7.45594H32.6514C33.2108 7.45594 33.6659 7.9183 33.6659 8.48669V9.1483C33.6659 9.67555 34.0864 10.1026 34.6053 10.1026Z" fill="url(#paint5_linear)"/>
<path d="M53.0411 18.322C50.3259 18.322 47.8384 19.3309 45.9219 20.9984L41.2718 17.0617C42.3399 15.3439 42.9589 13.3107 42.9589 11.1331C42.9589 4.9943 38.0428 0 32 0C25.9573 0 21.0411 4.9943 21.0411 11.1331C21.0411 14.3542 22.395 17.2594 24.5545 19.2941L16.8967 26.2092C15.1846 25.0836 13.1456 24.4292 10.9589 24.4292C4.91612 24.4294 0 29.4235 0 35.5625C0 41.7015 4.91612 46.6956 10.9589 46.6956C17.0016 46.6956 21.9177 41.7013 21.9177 35.5625C21.9177 32.3415 20.5639 29.4362 18.4044 27.4014L26.0621 20.4863C27.7743 21.6119 29.8132 22.2663 32 22.2663C35.2248 22.2663 38.1284 20.8436 40.1355 18.5841L44.5996 22.3633C43.028 24.2906 42.0822 26.7626 42.0822 29.455C42.0822 35.5939 46.9984 40.5882 53.0411 40.5882C59.0839 40.5882 64 35.5939 64 29.455C64 23.3162 59.0839 18.322 53.0411 18.322ZM20.0391 35.5625C20.0391 40.649 15.9657 44.7871 10.9589 44.7871C5.952 44.7871 1.87863 40.649 1.87863 35.5625C1.87863 30.476 5.952 26.3379 10.9589 26.3379C15.9657 26.3379 20.0391 30.476 20.0391 35.5625ZM32 20.3578C26.9931 20.3578 22.9198 16.2196 22.9198 11.1331C22.9198 6.04664 26.9931 1.9085 32 1.9085C37.0069 1.9085 41.0802 6.04664 41.0802 11.1331C41.0802 16.2196 37.0069 20.3578 32 20.3578ZM53.0411 38.6798C48.0343 38.6798 43.9609 34.5417 43.9609 29.4552C43.9609 27.0551 44.8684 24.8667 46.3524 23.2241C46.5018 23.1683 46.6396 23.074 46.749 22.9408C46.8196 22.8547 46.8717 22.7592 46.9079 22.6598C48.5247 21.1526 50.6786 20.2307 53.041 20.2307C58.0479 20.2307 62.1213 24.3688 62.1213 29.4553C62.1214 34.5417 58.048 38.6798 53.0411 38.6798Z" fill="#114B9D"/>
<path d="M55.646 28.4245C56.1648 28.4245 56.5853 27.9973 56.5853 27.4702V26.8086C56.5853 25.2868 55.4407 24.0314 53.9802 23.8841V22.8388C53.9802 22.3117 53.5597 21.8845 53.0408 21.8845C52.522 21.8845 52.1015 22.3117 52.1015 22.8388V23.9298C50.6193 24.2217 49.4963 25.5496 49.4963 27.1394C49.4963 28.9425 50.9403 30.4093 52.7151 30.4093H53.3662C54.1052 30.4093 54.7063 31.02 54.7063 31.7708C54.7063 32.5215 54.1052 33.1322 53.3662 33.1322H52.3893C51.83 33.1322 51.3748 32.6698 51.3748 32.1014C51.3748 31.5743 50.9543 31.1471 50.4355 31.1471C49.9166 31.1471 49.4961 31.5743 49.4961 32.1014C49.4961 33.6233 50.6406 34.8787 52.1012 35.026V36.0712C52.1012 36.5983 52.5217 37.0255 53.0406 37.0255C53.5595 37.0255 53.98 36.5983 53.98 36.0712V34.9802C55.4621 34.6883 56.5851 33.3604 56.5851 31.7706C56.5851 29.9675 55.1411 28.5007 53.3663 28.5007H52.7152C51.9762 28.5007 51.3751 27.89 51.3751 27.1393C51.3751 26.3885 51.9762 25.7778 52.7152 25.7778H53.6921C54.2515 25.7778 54.7066 26.2402 54.7066 26.8086V27.4702C54.7067 27.9973 55.1271 28.4245 55.646 28.4245Z" fill="url(#paint6_linear)"/>
<path d="M55.646 28.4245C56.1648 28.4245 56.5853 27.9973 56.5853 27.4702V26.8086C56.5853 25.2868 55.4407 24.0314 53.9802 23.8841V22.8388C53.9802 22.3117 53.5597 21.8845 53.0408 21.8845C52.522 21.8845 52.1015 22.3117 52.1015 22.8388V23.9298C50.6193 24.2217 49.4963 25.5496 49.4963 27.1394C49.4963 28.9425 50.9403 30.4093 52.7151 30.4093H53.3662C54.1052 30.4093 54.7063 31.02 54.7063 31.7708C54.7063 32.5215 54.1052 33.1322 53.3662 33.1322H52.3893C51.83 33.1322 51.3748 32.6698 51.3748 32.1014C51.3748 31.5743 50.9543 31.1471 50.4355 31.1471C49.9166 31.1471 49.4961 31.5743 49.4961 32.1014C49.4961 33.6233 50.6406 34.8787 52.1012 35.026V36.0712C52.1012 36.5983 52.5217 37.0255 53.0406 37.0255C53.5595 37.0255 53.98 36.5983 53.98 36.0712V34.9802C55.4621 34.6883 56.5851 33.3604 56.5851 31.7706C56.5851 29.9675 55.1411 28.5007 53.3663 28.5007H52.7152C51.9762 28.5007 51.3751 27.89 51.3751 27.1393C51.3751 26.3885 51.9762 25.7778 52.7152 25.7778H53.6921C54.2515 25.7778 54.7066 26.2402 54.7066 26.8086V27.4702C54.7067 27.9973 55.1271 28.4245 55.646 28.4245Z" fill="url(#paint7_linear)"/>
<path d="M55.646 28.4245C56.1648 28.4245 56.5853 27.9973 56.5853 27.4702V26.8086C56.5853 25.2868 55.4407 24.0314 53.9802 23.8841V22.8388C53.9802 22.3117 53.5597 21.8845 53.0408 21.8845C52.522 21.8845 52.1015 22.3117 52.1015 22.8388V23.9298C50.6193 24.2217 49.4963 25.5496 49.4963 27.1394C49.4963 28.9425 50.9403 30.4093 52.7151 30.4093H53.3662C54.1052 30.4093 54.7063 31.02 54.7063 31.7708C54.7063 32.5215 54.1052 33.1322 53.3662 33.1322H52.3893C51.83 33.1322 51.3748 32.6698 51.3748 32.1014C51.3748 31.5743 50.9543 31.1471 50.4355 31.1471C49.9166 31.1471 49.4961 31.5743 49.4961 32.1014C49.4961 33.6233 50.6406 34.8787 52.1012 35.026V36.0712C52.1012 36.5983 52.5217 37.0255 53.0406 37.0255C53.5595 37.0255 53.98 36.5983 53.98 36.0712V34.9802C55.4621 34.6883 56.5851 33.3604 56.5851 31.7706C56.5851 29.9675 55.1411 28.5007 53.3663 28.5007H52.7152C51.9762 28.5007 51.3751 27.89 51.3751 27.1393C51.3751 26.3885 51.9762 25.7778 52.7152 25.7778H53.6921C54.2515 25.7778 54.7066 26.2402 54.7066 26.8086V27.4702C54.7067 27.9973 55.1271 28.4245 55.646 28.4245Z" fill="url(#paint8_linear)"/>
<path d="M19.9765 49.8766H11.9609C11.4421 49.8766 11.0215 50.3038 11.0215 50.8309V63.0456C11.0215 63.5727 11.4421 63.9999 11.9609 63.9999H19.9765C20.4952 63.9999 20.9159 63.5727 20.9159 63.0456V50.8309C20.9159 50.3036 20.4952 49.8766 19.9765 49.8766ZM19.0371 62.0913H12.9001V51.7851H19.0371V62.0913Z" fill="#114B9D"/>
<path d="M59.0527 49.8766H51.037C50.5182 49.8766 50.0977 50.3038 50.0977 50.8309V63.0456C50.0977 63.5727 50.5182 63.9999 51.037 63.9999H59.0527C59.5715 63.9999 59.992 63.5727 59.992 63.0456V50.8309C59.9919 50.3036 59.5715 49.8766 59.0527 49.8766ZM58.1133 62.0913H51.9763V51.7851H58.1133V62.0913Z" fill="#114B9D"/>
<path d="M33.002 53.885C33.5209 53.885 33.9414 53.4579 33.9414 52.9307V38.6163C33.9414 38.0892 33.5209 37.662 33.002 37.662H24.9862C24.4675 37.662 24.0469 38.0892 24.0469 38.6163V63.0457C24.0469 63.5728 24.4675 64 24.9862 64H33.0019C33.5208 64 33.9412 63.5728 33.9412 63.0457V57.3839C33.9412 56.8568 33.5208 56.4296 33.0019 56.4296C32.483 56.4296 32.0625 56.8568 32.0625 57.3839V62.0914H25.9255V39.5705H32.0625V52.9306C32.0626 53.4579 32.4831 53.885 33.002 53.885Z" fill="#114B9D"/>
<path d="M46.0273 43.7693H38.0116C37.4928 43.7693 37.0723 44.1965 37.0723 44.7236V63.0456C37.0723 63.5728 37.4928 63.9999 38.0116 63.9999H46.0273C46.5461 63.9999 46.9666 63.5728 46.9666 63.0456V44.7236C46.9666 44.1965 46.5461 43.7693 46.0273 43.7693ZM45.088 62.0913H38.951V45.6778H45.088V62.0913Z" fill="#114B9D"/>
<defs>
<linearGradient id="paint0_linear" x1="10.9586" y1="27.9918" x2="10.9586" y2="42.1865" gradientUnits="userSpaceOnUse">
<stop stop-color="#A02C18"/>
<stop offset="1" stop-color="#D93013"/>
</linearGradient>
<linearGradient id="paint1_linear" x1="10.9586" y1="27.9918" x2="10.9586" y2="35.5623" gradientUnits="userSpaceOnUse">
<stop stop-color="white" stop-opacity="0.33"/>
<stop offset="0.244792" stop-color="white" stop-opacity="0"/>
</linearGradient>
<linearGradient id="paint2_linear" x1="10.7519" y1="39.3476" x2="10.7519" y2="43.1328" gradientUnits="userSpaceOnUse">
<stop stop-color="#210707" stop-opacity="0"/>
<stop offset="1" stop-color="#052D2D" stop-opacity="0.33"/>
</linearGradient>
<linearGradient id="paint3_linear" x1="32.0001" y1="3.56262" x2="32.0001" y2="17.7573" gradientUnits="userSpaceOnUse">
<stop stop-color="#A02C18"/>
<stop offset="1" stop-color="#D93013"/>
</linearGradient>
<linearGradient id="paint4_linear" x1="32.0001" y1="3.56262" x2="32.0001" y2="11.1331" gradientUnits="userSpaceOnUse">
<stop stop-color="white" stop-opacity="0.33"/>
<stop offset="0.244792" stop-color="white" stop-opacity="0"/>
</linearGradient>
<linearGradient id="paint5_linear" x1="31.7934" y1="14.9184" x2="31.7934" y2="18.7036" gradientUnits="userSpaceOnUse">
<stop stop-color="#210707" stop-opacity="0"/>
<stop offset="1" stop-color="#052D2D" stop-opacity="0.33"/>
</linearGradient>
<linearGradient id="paint6_linear" x1="53.0407" y1="21.8845" x2="53.0407" y2="36.0792" gradientUnits="userSpaceOnUse">
<stop stop-color="#A02C18"/>
<stop offset="1" stop-color="#D93013"/>
</linearGradient>
<linearGradient id="paint7_linear" x1="53.0407" y1="21.8845" x2="53.0407" y2="29.455" gradientUnits="userSpaceOnUse">
<stop stop-color="white" stop-opacity="0.33"/>
<stop offset="0.244792" stop-color="white" stop-opacity="0"/>
</linearGradient>
<linearGradient id="paint8_linear" x1="52.8339" y1="33.2403" x2="52.8339" y2="37.0255" gradientUnits="userSpaceOnUse">
<stop stop-color="#210707" stop-opacity="0"/>
<stop offset="1" stop-color="#052D2D" stop-opacity="0.33"/>
</linearGradient>
</defs>
</svg>
