<svg width="64" height="66" viewBox="0 0 64 66" fill="none" xmlns="http://www.w3.org/2000/svg">
<path d="M12.5559 5.60639C12.2355 5.60639 11.9154 5.46352 11.6713 5.17793L9.37314 2.49016C8.88539 1.91972 8.88614 0.995821 9.37477 0.426395C9.86339 -0.142739 10.6548 -0.142155 11.1425 0.428292L13.4406 3.11606C13.9284 3.68651 13.9276 4.61041 13.439 5.17983C13.1949 5.46425 12.8753 5.60639 12.5559 5.60639Z" fill="#114B9D"/>
<path d="M53.7434 53.7812C53.423 53.7812 53.1029 53.6383 52.8588 53.3527L50.5606 50.665C50.0729 50.0945 50.0736 49.1706 50.5623 48.6012C51.0509 48.0321 51.8423 48.0326 52.33 48.6031L54.6281 51.2909C55.1159 51.8613 55.1151 52.7852 54.6265 53.3546C54.3825 53.6391 54.0629 53.7812 53.7434 53.7812Z" fill="#114B9D"/>
<path d="M51.4453 6.60635C51.1256 6.60635 50.8063 6.46422 50.5623 6.17994C50.0736 5.61052 50.0729 4.68662 50.5606 4.11617L52.8588 1.4284C53.3463 0.857954 54.1379 0.857079 54.6265 1.4265C55.1151 1.99593 55.1159 2.91982 54.6281 3.49027L52.33 6.17804C52.0859 6.46349 51.7655 6.60635 51.4453 6.60635Z" fill="#114B9D"/>
<path d="M10.2578 54.7812C9.93814 54.7812 9.61877 54.639 9.37477 54.3547C8.88614 53.7853 8.88539 52.8614 9.37314 52.291L11.6713 49.6032C12.1589 49.0328 12.9505 49.0319 13.439 49.6013C13.9276 50.1707 13.9284 51.0946 13.4406 51.6651L11.1425 54.3528C10.8984 54.6383 10.5779 54.7812 10.2578 54.7812Z" fill="#114B9D"/>
<path d="M62.75 28.35H59.5C58.8098 28.35 58.25 27.6967 58.25 26.8907C58.25 26.0847 58.8098 25.4314 59.5 25.4314H62.75C63.4402 25.4314 64 26.0847 64 26.8907C64 27.6967 63.4402 28.35 62.75 28.35Z" fill="#114B9D"/>
<path d="M4.5 28.35H1.25C0.55975 28.35 0 27.6967 0 26.8907C0 26.0847 0.55975 25.4314 1.25 25.4314H4.5C5.19025 25.4314 5.75 26.0847 5.75 26.8907C5.75 27.6967 5.19025 28.35 4.5 28.35Z" fill="#114B9D"/>
<path d="M37.534 28.4817C39.3902 26.645 40.5702 23.9043 40.5702 20.8478C40.5702 15.331 36.7257 10.8425 32.0001 10.8425C27.2745 10.8425 23.43 15.3308 23.43 20.8478C23.43 23.9043 24.6101 26.645 26.4662 28.4817C23.3716 29.7795 21.1523 33.2399 21.1523 37.294V41.4786C21.1523 42.2846 21.7121 42.9379 22.4023 42.9379H41.5977C42.288 42.9379 42.8477 42.2846 42.8477 41.4786V37.294C42.8478 33.2399 40.6287 29.7795 37.534 28.4817ZM25.9301 20.8478C25.9301 16.9403 28.6531 13.7612 32.0002 13.7612C35.3473 13.7612 38.0703 16.9401 38.0703 20.8478C38.0703 24.7554 35.3472 27.9342 32.0002 27.9342C28.6532 27.9342 25.9301 24.7552 25.9301 20.8478ZM40.3478 40.0191H23.6526V37.2938C23.6526 33.7423 26.1276 30.8528 29.1697 30.8528H34.8308C37.873 30.8528 40.348 33.7423 40.348 37.2938V40.0191H40.3478Z" fill="url(#paint0_linear)"/>
<path d="M37.534 28.4817C39.3902 26.645 40.5702 23.9043 40.5702 20.8478C40.5702 15.331 36.7257 10.8425 32.0001 10.8425C27.2745 10.8425 23.43 15.3308 23.43 20.8478C23.43 23.9043 24.6101 26.645 26.4662 28.4817C23.3716 29.7795 21.1523 33.2399 21.1523 37.294V41.4786C21.1523 42.2846 21.7121 42.9379 22.4023 42.9379H41.5977C42.288 42.9379 42.8477 42.2846 42.8477 41.4786V37.294C42.8478 33.2399 40.6287 29.7795 37.534 28.4817ZM25.9301 20.8478C25.9301 16.9403 28.6531 13.7612 32.0002 13.7612C35.3473 13.7612 38.0703 16.9401 38.0703 20.8478C38.0703 24.7554 35.3472 27.9342 32.0002 27.9342C28.6532 27.9342 25.9301 24.7552 25.9301 20.8478ZM40.3478 40.0191H23.6526V37.2938C23.6526 33.7423 26.1276 30.8528 29.1697 30.8528H34.8308C37.873 30.8528 40.348 33.7423 40.348 37.2938V40.0191H40.3478Z" fill="url(#paint1_linear)"/>
<path d="M37.534 28.4817C39.3902 26.645 40.5702 23.9043 40.5702 20.8478C40.5702 15.331 36.7257 10.8425 32.0001 10.8425C27.2745 10.8425 23.43 15.3308 23.43 20.8478C23.43 23.9043 24.6101 26.645 26.4662 28.4817C23.3716 29.7795 21.1523 33.2399 21.1523 37.294V41.4786C21.1523 42.2846 21.7121 42.9379 22.4023 42.9379H41.5977C42.288 42.9379 42.8477 42.2846 42.8477 41.4786V37.294C42.8478 33.2399 40.6287 29.7795 37.534 28.4817ZM25.9301 20.8478C25.9301 16.9403 28.6531 13.7612 32.0002 13.7612C35.3473 13.7612 38.0703 16.9401 38.0703 20.8478C38.0703 24.7554 35.3472 27.9342 32.0002 27.9342C28.6532 27.9342 25.9301 24.7552 25.9301 20.8478ZM40.3478 40.0191H23.6526V37.2938C23.6526 33.7423 26.1276 30.8528 29.1697 30.8528H34.8308C37.873 30.8528 40.348 33.7423 40.348 37.2938V40.0191H40.3478Z" fill="url(#paint2_linear)"/>
<path d="M54.3173 28.3495C53.7954 28.3495 53.3166 27.9563 53.1417 27.3818C52.9696 26.8166 53.1152 26.1666 53.5087 25.778C53.9191 25.3726 54.5203 25.3221 54.9769 25.6519C55.4148 25.9682 55.6444 26.5866 55.5436 27.1763C55.4282 27.8501 54.9053 28.3495 54.3173 28.3495Z" fill="#114B9D"/>
<path d="M54.0871 32.0189C53.4126 31.8416 52.7444 32.3351 52.5927 33.1214C50.9239 41.76 45.0518 48.2801 36.4818 51.0099C35.9379 51.1831 35.5608 51.7597 35.5608 52.4177V56.1368H28.4353V52.4177C28.4353 51.7597 28.0581 51.1831 27.5143 51.0099C17.1198 47.699 10.9141 39.0587 10.9141 27.8968C10.9141 14.3317 20.3723 3.29574 31.9981 3.29574C41.3329 3.29574 49.4369 10.2869 52.1639 20.6924C52.3659 21.4632 53.0657 21.8966 53.7249 21.661C54.3851 21.4251 54.7566 20.6092 54.5546 19.8386C53.1089 14.3222 50.1251 9.36606 46.1529 5.88311C42.0451 2.28093 37.1503 0.376953 31.9981 0.376953C18.9938 0.376953 8.41406 12.7222 8.41406 27.8966C8.41406 33.8946 10.0652 39.4458 13.1891 43.9501C16.2307 48.336 20.6237 51.6286 25.9353 53.5154V56.1368H25.9192C25.2289 56.1368 24.6692 56.7901 24.6692 57.5961C24.6692 58.4021 25.2289 59.0554 25.9192 59.0554H25.9353V64.2253C25.9353 65.0313 26.4951 65.6846 27.1853 65.6846H36.8108C37.5011 65.6846 38.0608 65.0313 38.0608 64.2253V59.0554H38.0769C38.7672 59.0554 39.3269 58.4021 39.3269 57.5961C39.3269 56.7901 38.7672 56.1368 38.0769 56.1368H38.0608V53.5154C47.0531 50.3218 53.2141 43.1723 55.0314 33.7634C55.1832 32.9772 54.7606 32.1962 54.0871 32.0189ZM35.5608 62.7662H28.4353V59.0555H35.5608V62.7662Z" fill="#114B9D"/>
<defs>
<linearGradient id="paint0_linear" x1="32" y1="10.8425" x2="32" y2="40.9319" gradientUnits="userSpaceOnUse">
<stop stop-color="#A02C18"/>
<stop offset="1" stop-color="#D93013"/>
</linearGradient>
<linearGradient id="paint1_linear" x1="32" y1="10.8425" x2="32" y2="26.8902" gradientUnits="userSpaceOnUse">
<stop stop-color="white" stop-opacity="0.33"/>
<stop offset="0.244792" stop-color="white" stop-opacity="0"/>
</linearGradient>
<linearGradient id="paint2_linear" x1="31.3672" y1="34.9141" x2="31.3672" y2="42.9379" gradientUnits="userSpaceOnUse">
<stop stop-color="#210707" stop-opacity="0"/>
<stop offset="1" stop-color="#052D2D" stop-opacity="0.33"/>
</linearGradient>
</defs>
</svg>
