<svg width="64" height="64" viewBox="0 0 64 64" fill="none" xmlns="http://www.w3.org/2000/svg">
<path d="M58.8387 53.3333H55.7419V51.1971C56.3829 50.7009 56.9031 50.0572 57.2615 49.3171C57.6198 48.577 57.8064 47.7608 57.8064 46.9333V43.7333C57.8064 42.3188 57.2627 40.9622 56.2947 39.962C55.3268 38.9619 54.014 38.4 52.6452 38.4C51.2763 38.4 49.9635 38.9619 48.9956 39.962C48.0276 40.9622 47.4839 42.3188 47.4839 43.7333V46.9333C47.4839 47.7608 47.6705 48.577 48.0289 49.3171C48.3872 50.0572 48.9075 50.7009 49.5484 51.1971V53.3333H46.4516C45.834 53.3331 45.2214 53.4476 44.643 53.6713C44.1804 52.8997 43.5349 52.2628 42.7675 51.821C42.0002 51.3792 41.1365 51.1471 40.2581 51.1466H35.0968V49.1389C36.0377 48.5773 36.8191 47.7699 37.3627 46.7977C37.9062 45.8255 38.1927 44.7227 38.1935 43.5999V39.5999C38.1935 37.9026 37.541 36.2747 36.3795 35.0745C35.218 33.8742 33.6426 33.2 32 33.2C30.3574 33.2 28.782 33.8742 27.6205 35.0745C26.459 36.2747 25.8064 37.9026 25.8064 39.5999V43.5999C25.8072 44.7227 26.0938 45.8255 26.6373 46.7977C27.1809 47.7699 27.9623 48.5773 28.9032 49.1389V51.1466H23.7419C22.8635 51.1471 21.9998 51.3792 21.2325 51.821C20.4651 52.2628 19.8196 52.8997 19.357 53.6713C18.7786 53.4476 18.166 53.3331 17.5484 53.3333H14.4516V51.1971C15.0925 50.7009 15.6128 50.0572 15.9711 49.3171C16.3295 48.577 16.5161 47.7608 16.5161 46.9333V43.7333C16.5161 42.3188 15.9724 40.9622 15.0044 39.962C14.0365 38.9619 12.7237 38.4 11.3548 38.4C9.98598 38.4 8.67318 38.9619 7.70526 39.962C6.73733 40.9622 6.19355 42.3188 6.19355 43.7333V46.9333C6.1936 47.7608 6.38019 48.577 6.73854 49.3171C7.09689 50.0572 7.61714 50.7009 8.25806 51.1971V53.3333H5.16129C3.7929 53.3349 2.481 53.8973 1.5134 54.8971C0.545808 55.897 0.00153684 57.2526 0 58.6666V62.9333C0 63.2162 0.108755 63.4875 0.302341 63.6875C0.495927 63.8876 0.758486 63.9999 1.03226 63.9999H62.9677C63.2415 63.9999 63.5041 63.8876 63.6977 63.6875C63.8912 63.4875 64 63.2162 64 62.9333V58.6666C63.9985 57.2526 63.4542 55.897 62.4866 54.8971C61.519 53.8973 60.2071 53.3349 58.8387 53.3333ZM27.871 39.5999C27.871 38.4684 28.306 37.3831 29.0803 36.583C29.8547 35.7828 30.9049 35.3333 32 35.3333C33.0951 35.3333 34.1453 35.7828 34.9197 36.583C35.694 37.3831 36.129 38.4684 36.129 39.5999V43.5999C36.129 44.7315 35.694 45.8168 34.9197 46.6169C34.1453 47.4171 33.0951 47.8666 32 47.8666C30.9049 47.8666 29.8547 47.4171 29.0803 46.6169C28.306 45.8168 27.871 44.7315 27.871 43.5999V39.5999ZM33.0323 49.9999V51.0666H30.9677V49.9999H33.0323ZM49.5484 43.7333C49.5484 42.8846 49.8747 42.0707 50.4554 41.4705C51.0362 40.8704 51.8238 40.5333 52.6452 40.5333C53.4665 40.5333 54.2542 40.8704 54.8349 41.4705C55.4157 42.0707 55.7419 42.8846 55.7419 43.7333V46.9333C55.7419 47.782 55.4157 48.5959 54.8349 49.196C54.2542 49.7961 53.4665 50.1333 52.6452 50.1333C51.8238 50.1333 51.0362 49.7961 50.4554 49.196C49.8747 48.5959 49.5484 47.782 49.5484 46.9333V43.7333ZM51.6129 52.2666H53.6774V53.3333H51.6129V52.2666ZM23.7419 53.2799H40.2581C41.0791 53.2809 41.8662 53.6183 42.4468 54.2183C43.0274 54.8182 43.3539 55.6315 43.3548 56.4799V61.7866H41.2903V59.7333C41.2903 59.4504 41.1816 59.1791 40.988 58.979C40.7944 58.779 40.5318 58.6666 40.2581 58.6666C39.9843 58.6666 39.7217 58.779 39.5281 58.979C39.3346 59.1791 39.2258 59.4504 39.2258 59.7333V61.7866H24.6452V59.7333C24.6452 59.4504 24.5364 59.1791 24.3428 58.979C24.1492 58.779 23.8867 58.6666 23.6129 58.6666C23.3391 58.6666 23.0766 58.779 22.883 58.979C22.6894 59.1791 22.5806 59.4504 22.5806 59.7333V61.7866H20.6452V56.4799C20.6461 55.6315 20.9726 54.8182 21.5532 54.2183C22.1338 53.6183 22.9209 53.2809 23.7419 53.2799ZM8.25806 43.7333C8.25806 42.8846 8.58433 42.0707 9.16509 41.4705C9.74585 40.8704 10.5335 40.5333 11.3548 40.5333C12.1762 40.5333 12.9638 40.8704 13.5446 41.4705C14.1253 42.0707 14.4516 42.8846 14.4516 43.7333V46.9333C14.4516 47.782 14.1253 48.5959 13.5446 49.196C12.9638 49.7961 12.1762 50.1333 11.3548 50.1333C10.5335 50.1333 9.74585 49.7961 9.16509 49.196C8.58433 48.5959 8.25806 47.782 8.25806 46.9333V43.7333ZM10.3226 52.2666H12.3871V53.3333H10.3226V52.2666ZM6.19355 61.8666V59.7333C6.19355 59.4504 6.08479 59.1791 5.89121 58.979C5.69762 58.779 5.43506 58.6666 5.16129 58.6666C4.88752 58.6666 4.62496 58.779 4.43137 58.979C4.23779 59.1791 4.12903 59.4504 4.12903 59.7333V61.8666H2.06452V58.6666C2.06547 57.8182 2.39205 57.0049 2.9726 56.405C3.55315 55.8051 4.34027 55.4676 5.16129 55.4666H17.5484C17.9212 55.4663 18.291 55.5354 18.64 55.6707C18.6004 55.9385 18.5806 56.2091 18.5806 56.4799V59.7333C18.5806 59.4504 18.4719 59.1791 18.2783 58.979C18.0847 58.779 17.8222 58.6666 17.5484 58.6666C17.2746 58.6666 17.0121 58.779 16.8185 58.979C16.6249 59.1791 16.5161 59.4504 16.5161 59.7333V61.8666H6.19355ZM61.9355 61.8666H59.871V59.7333C59.871 59.4504 59.7622 59.1791 59.5686 58.979C59.375 58.779 59.1125 58.6666 58.8387 58.6666C58.5649 58.6666 58.3024 58.779 58.1088 58.979C57.9152 59.1791 57.8064 59.4504 57.8064 59.7333V61.8666H47.4839V59.7333C47.4839 59.4504 47.3751 59.1791 47.1815 58.979C46.9879 58.779 46.7254 58.6666 46.4516 58.6666C46.1778 58.6666 45.9153 58.779 45.7217 58.979C45.5281 59.1791 45.4194 59.4504 45.4194 59.7333V56.4799C45.4194 56.209 45.3996 55.9385 45.36 55.6707C45.709 55.5353 46.0788 55.4662 46.4516 55.4666H58.8387C59.6597 55.4676 60.4468 55.8051 61.0274 56.405C61.608 57.0049 61.9345 57.8182 61.9355 58.6666V61.8666Z" fill="#114B9D"/>
<path d="M31.9999 27.7333C34.654 27.7333 37.2485 26.9201 39.4553 25.3964C41.6621 23.8727 43.3821 21.707 44.3978 19.1732C45.4135 16.6394 45.6792 13.8513 45.1614 11.1614C44.6436 8.47155 43.3656 6.00075 41.4888 4.06146C39.6121 2.12217 37.221 0.801499 34.6179 0.26645C32.0148 -0.268598 29.3166 0.00600821 26.8646 1.05554C24.4125 2.10508 22.3167 3.8824 20.8421 6.16276C19.3676 8.44313 18.5806 11.1241 18.5806 13.8667C18.5846 17.5431 19.9997 21.0677 22.5155 23.6673C25.0312 26.2669 28.4421 27.7292 31.9999 27.7333ZM31.9999 2.13334C34.2457 2.13334 36.441 2.82149 38.3083 4.11076C40.1756 5.40004 41.631 7.23253 42.4904 9.37652C43.3498 11.5205 43.5747 13.8797 43.1366 16.1557C42.6985 18.4318 41.617 20.5225 40.029 22.1634C38.441 23.8043 36.4178 24.9218 34.2151 25.3745C32.0125 25.8273 29.7294 25.5949 27.6546 24.7069C25.5798 23.8188 23.8064 22.3149 22.5587 20.3854C21.311 18.4558 20.6451 16.1873 20.6451 13.8667C20.6485 10.7559 21.8459 7.77351 23.9746 5.57385C26.1033 3.37419 28.9895 2.13687 31.9999 2.13334Z" fill="#114B9D"/>
<path d="M28.933 19.5502C29.1058 19.7288 29.3343 19.8382 29.5779 19.859C29.8215 19.8798 30.0643 19.8106 30.2632 19.6638L39.8259 12.6014C39.9381 12.5208 40.0337 12.4179 40.1071 12.2988C40.1806 12.1797 40.2304 12.0467 40.2537 11.9076C40.277 11.7684 40.2734 11.6259 40.243 11.4882C40.2126 11.3505 40.156 11.2205 40.0765 11.1056C39.9971 10.9906 39.8964 10.8932 39.7802 10.8188C39.664 10.7444 39.5347 10.6947 39.3997 10.6723C39.2648 10.65 39.1269 10.6556 38.9941 10.6888C38.8612 10.722 38.7361 10.7821 38.6259 10.8656L29.7743 17.4026L27.296 14.8418C27.1016 14.6454 26.8402 14.5362 26.5685 14.5378C26.2967 14.5393 26.0365 14.6516 25.8443 14.8502C25.6522 15.0488 25.5435 15.3176 25.542 15.5985C25.5405 15.8793 25.6462 16.1494 25.8362 16.3502L28.933 19.5502Z" fill="url(#paint0_linear)"/>
<path d="M28.933 19.5502C29.1058 19.7288 29.3343 19.8382 29.5779 19.859C29.8215 19.8798 30.0643 19.8106 30.2632 19.6638L39.8259 12.6014C39.9381 12.5208 40.0337 12.4179 40.1071 12.2988C40.1806 12.1797 40.2304 12.0467 40.2537 11.9076C40.277 11.7684 40.2734 11.6259 40.243 11.4882C40.2126 11.3505 40.156 11.2205 40.0765 11.1056C39.9971 10.9906 39.8964 10.8932 39.7802 10.8188C39.664 10.7444 39.5347 10.6947 39.3997 10.6723C39.2648 10.65 39.1269 10.6556 38.9941 10.6888C38.8612 10.722 38.7361 10.7821 38.6259 10.8656L29.7743 17.4026L27.296 14.8418C27.1016 14.6454 26.8402 14.5362 26.5685 14.5378C26.2967 14.5393 26.0365 14.6516 25.8443 14.8502C25.6522 15.0488 25.5435 15.3176 25.542 15.5985C25.5405 15.8793 25.6462 16.1494 25.8362 16.3502L28.933 19.5502Z" fill="url(#paint1_linear)"/>
<path d="M28.933 19.5502C29.1058 19.7288 29.3343 19.8382 29.5779 19.859C29.8215 19.8798 30.0643 19.8106 30.2632 19.6638L39.8259 12.6014C39.9381 12.5208 40.0337 12.4179 40.1071 12.2988C40.1806 12.1797 40.2304 12.0467 40.2537 11.9076C40.277 11.7684 40.2734 11.6259 40.243 11.4882C40.2126 11.3505 40.156 11.2205 40.0765 11.1056C39.9971 10.9906 39.8964 10.8932 39.7802 10.8188C39.664 10.7444 39.5347 10.6947 39.3997 10.6723C39.2648 10.65 39.1269 10.6556 38.9941 10.6888C38.8612 10.722 38.7361 10.7821 38.6259 10.8656L29.7743 17.4026L27.296 14.8418C27.1016 14.6454 26.8402 14.5362 26.5685 14.5378C26.2967 14.5393 26.0365 14.6516 25.8443 14.8502C25.6522 15.0488 25.5435 15.3176 25.542 15.5985C25.5405 15.8793 25.6462 16.1494 25.8362 16.3502L28.933 19.5502Z" fill="url(#paint2_linear)"/>
<defs>
<linearGradient id="paint0_linear" x1="32.9054" y1="10.6589" x2="32.9054" y2="19.2874" gradientUnits="userSpaceOnUse">
<stop stop-color="#A02C18"/>
<stop offset="1" stop-color="#D93013"/>
</linearGradient>
<linearGradient id="paint1_linear" x1="32.9054" y1="10.6589" x2="32.9054" y2="15.2608" gradientUnits="userSpaceOnUse">
<stop stop-color="white" stop-opacity="0.33"/>
<stop offset="0.244792" stop-color="white" stop-opacity="0"/>
</linearGradient>
<linearGradient id="paint2_linear" x1="32.4759" y1="17.5617" x2="32.4759" y2="19.8626" gradientUnits="userSpaceOnUse">
<stop stop-color="#210707" stop-opacity="0"/>
<stop offset="1" stop-color="#052D2D" stop-opacity="0.33"/>
</linearGradient>
</defs>
</svg>
