<svg width="66" height="46" viewBox="0 0 66 46" fill="none" xmlns="http://www.w3.org/2000/svg">
<g clip-path="url(#clip0)">
<path d="M2.58259 36.998C2.19187 37.0063 1.80329 36.9375 1.43879 36.7948C1.13004 36.671 0.852521 36.4791 0.626462 36.233C0.414221 35.989 0.25515 35.7027 0.159606 35.3924C0.0511953 35.0555 -0.00241267 34.7032 0.000874949 34.349C0.00120903 34.0273 0.0548636 33.7081 0.159606 33.4045C0.25966 33.0919 0.41815 32.8019 0.626462 32.5498C0.851141 32.2869 1.12788 32.0746 1.43879 31.9264C1.79696 31.7592 2.18817 31.677 2.58259 31.6856H3.04943C3.18746 31.6788 3.32575 31.6916 3.46026 31.7236C3.591 31.7613 3.71704 31.766 3.84309 31.7943L4.2306 31.8935C4.23976 32.0676 4.25848 32.2409 4.28661 32.4128C4.31775 32.6176 4.35975 32.8251 4.41266 33.0361C4.37381 33.0571 4.33061 33.0683 4.28661 33.0691C4.24949 33.0751 4.21168 33.0751 4.17457 33.0691C4.15704 33.0626 4.14167 33.0511 4.13015 33.0359C4.11863 33.021 4.11139 33.0032 4.10921 32.9843C4.04425 32.6895 3.87904 32.427 3.64235 32.2429C3.39004 32.0867 3.09765 32.0094 2.802 32.021C2.50943 32.0155 2.2188 32.0702 1.94766 32.1814C1.71111 32.2796 1.49904 32.4296 1.32675 32.6207C1.1497 32.8183 1.01604 33.0516 0.934586 33.3053C0.844655 33.5924 0.800528 33.8919 0.803867 34.193C0.798623 34.5335 0.852345 34.8723 0.962598 35.194C1.06173 35.4796 1.21033 35.7451 1.40144 35.9781C1.57836 36.1919 1.79789 36.3658 2.0457 36.488C2.29164 36.6082 2.56158 36.6694 2.83469 36.6673C3.02466 36.6749 3.21477 36.6558 3.3996 36.6108C3.53918 36.5739 3.66957 36.5079 3.7824 36.4171C3.88605 36.3299 3.97307 36.2244 4.03917 36.1055C4.11501 35.9642 4.18054 35.8173 4.23526 35.6663C4.25058 35.6296 4.27675 35.5985 4.31016 35.5773C4.34358 35.5563 4.38263 35.5461 4.422 35.5482H4.50604L4.57139 35.5765C4.5107 35.7608 4.44535 35.9637 4.38465 36.1809C4.32176 36.3985 4.27033 36.6192 4.2306 36.8419C3.97537 36.883 3.71549 36.916 3.45095 36.9412C3.18638 36.9663 2.89693 36.9854 2.58259 36.998Z" fill="#DDDDDD"/>
<path d="M6.04189 34.3441C6.03806 33.9881 6.10471 33.6347 6.23798 33.3051C6.36157 32.9949 6.54036 32.7098 6.76551 32.4648C6.98665 32.2242 7.2513 32.0287 7.54517 31.8886C7.83694 31.7486 8.15589 31.6761 8.47887 31.6761C8.88295 31.6685 9.28449 31.7423 9.66002 31.8933C9.96892 32.0198 10.2475 32.2117 10.477 32.4559C10.7065 32.7002 10.8816 32.9915 10.9906 33.3098C11.0997 33.6337 11.155 33.9737 11.1539 34.3156C11.1605 34.697 11.0923 35.0756 10.9532 35.43C10.8278 35.7434 10.6381 36.0261 10.3967 36.2596C10.1552 36.4934 9.86757 36.6724 9.55263 36.7853C9.22522 36.9065 8.87891 36.9675 8.53023 36.9646C8.18363 36.9688 7.83955 36.9046 7.51716 36.7758C7.21936 36.6551 6.95039 36.4716 6.72817 36.2376C6.50245 35.9955 6.32774 35.7096 6.21463 35.397C6.09622 35.0591 6.03773 34.7025 6.04189 34.3441ZM8.71697 36.6106C8.94706 36.613 9.1749 36.5648 9.38458 36.4688C9.58447 36.3774 9.76274 36.2439 9.90745 36.0769C10.0654 35.9059 10.189 35.7054 10.2716 35.4868C10.3544 35.2436 10.3954 34.9881 10.393 34.7313C10.3943 34.3766 10.3536 34.0229 10.2716 33.6782C10.1979 33.3763 10.0714 33.0899 9.89811 32.8331C9.74587 32.6004 9.54103 32.4077 9.30054 32.2711C9.04094 32.1308 8.74981 32.0609 8.45553 32.068C8.24565 32.0677 8.03774 32.1093 7.84395 32.1907C7.65038 32.2716 7.47549 32.3923 7.3304 32.5449C7.17616 32.7101 7.0556 32.9041 6.9756 33.1164C6.88393 33.3653 6.83956 33.6297 6.84487 33.8954C6.84285 34.2598 6.88519 34.6229 6.97094 34.9769C7.04393 35.2834 7.167 35.5753 7.33508 35.8407C7.48735 36.079 7.69386 36.2763 7.93731 36.4169C8.17628 36.5486 8.44492 36.6154 8.71697 36.6106Z" fill="#DDDDDD"/>
<path d="M17.849 31.9361L17.8864 31.8746C17.9019 31.8515 17.9251 31.8348 17.9517 31.8274L18.0778 31.7992C18.1508 31.7937 18.2242 31.7937 18.2972 31.7992H19.1422C19.1461 31.8416 19.1461 31.8842 19.1422 31.9266C19.1422 32.0115 19.1142 32.0541 19.0628 32.0588C18.9322 32.068 18.8049 32.1052 18.6893 32.1675C18.6599 32.1866 18.6359 32.2133 18.6196 32.2447C18.6032 32.2761 18.5951 32.3112 18.596 32.3468V32.5547C18.5944 32.7785 18.6053 33.0023 18.6286 33.2251C18.6613 33.5366 18.666 33.9523 18.6893 34.4717C18.7127 34.9911 18.7407 35.6379 18.7734 36.4076C18.7723 36.4502 18.781 36.4924 18.7988 36.5309C18.8167 36.5693 18.8431 36.6031 18.8761 36.6296C18.9943 36.695 19.1246 36.7353 19.2589 36.7476C19.2716 36.7494 19.2836 36.7544 19.2941 36.7618C19.3046 36.7691 19.3133 36.7788 19.3196 36.79C19.3265 36.818 19.3265 36.8471 19.3196 36.8751C19.3235 36.9175 19.3235 36.9602 19.3196 37.0026L18.8247 36.9743H17.5082C17.5043 36.9319 17.5043 36.8892 17.5082 36.8468C17.5082 36.7618 17.5362 36.7193 17.5875 36.7193C17.7341 36.696 17.877 36.6531 18.0124 36.5919C18.0493 36.5709 18.0795 36.54 18.0994 36.5023C18.1193 36.4646 18.128 36.422 18.1245 36.3793V36.0866C18.1281 35.8688 18.1172 35.651 18.0918 35.435C18.0591 35.1801 18.0638 34.9013 18.0544 34.5992C18.0451 34.2968 18.0264 34.0183 18.0171 33.7539C18.0077 33.4895 18.0171 33.2816 17.9844 33.0693C17.9517 32.8568 17.9844 32.7623 17.9844 32.7198L16.257 36.8563C16.2411 36.8947 16.2208 36.9311 16.1963 36.9649C16.1874 36.9759 16.176 36.9848 16.163 36.9905C16.15 36.9963 16.1358 36.9989 16.1216 36.9979H16.0516L14.1468 32.5735V32.956C14.1507 33.1955 14.1398 33.4353 14.1142 33.6738C14.0815 33.9476 14.0861 34.245 14.0721 34.5568C14.0581 34.8683 14.0441 35.1515 14.0301 35.4159C14.0161 35.6806 14.0301 35.8882 13.9974 36.0772C13.9914 36.1714 13.9914 36.2662 13.9974 36.3604C13.9974 36.5209 14.1733 36.6343 14.525 36.7005C14.5763 36.7005 14.6043 36.7476 14.6043 36.828C14.6082 36.8704 14.6082 36.9131 14.6043 36.9555L14.1935 36.9269H13.4979L13.1011 36.9555C13.0972 36.9131 13.0972 36.8704 13.1011 36.828C13.1011 36.7523 13.1291 36.7146 13.1804 36.7005C13.2765 36.6785 13.3691 36.6434 13.4559 36.5966C13.497 36.5743 13.5319 36.5419 13.5572 36.5021C13.5825 36.4625 13.5974 36.417 13.6006 36.3699V35.9733C13.5962 35.7131 13.6086 35.4526 13.638 35.1942C13.6753 34.8918 13.666 34.5756 13.68 34.2497C13.694 33.924 13.708 33.6028 13.722 33.3055C13.736 33.0078 13.722 32.7811 13.7547 32.5971V32.3138C13.7564 32.2769 13.7482 32.2403 13.7309 32.2078C13.7136 32.1756 13.688 32.1484 13.6566 32.1295C13.5401 32.074 13.4156 32.0374 13.2878 32.0209C13.2365 32.0209 13.2085 31.9738 13.2085 31.8887C13.2047 31.8463 13.2047 31.8036 13.2085 31.7612H14.1422C14.2152 31.7557 14.2886 31.7557 14.3616 31.7612L14.4876 31.7897C14.5143 31.7971 14.5374 31.8138 14.553 31.8369L14.5903 31.8981L16.257 35.8269L17.849 31.9361Z" fill="#DDDDDD"/>
<path d="M21.7103 32.3607C21.7142 32.3157 21.7048 32.2707 21.6832 32.2311C21.6615 32.1916 21.6287 32.1594 21.5889 32.139C21.4516 32.0803 21.3071 32.0406 21.1594 32.0209C21.1454 32.0217 21.1316 32.018 21.1198 32.0104C21.108 32.0029 21.099 31.9916 21.094 31.9782C21.0884 31.9487 21.0884 31.9183 21.094 31.8887C21.0902 31.8463 21.0902 31.8036 21.094 31.7612L21.5936 31.7895H24.1753C24.3574 31.7895 24.4834 31.7659 24.5488 31.7659C24.6141 31.7659 24.6561 31.8083 24.6795 31.8981C24.7081 32 24.7284 32.1044 24.7402 32.2097C24.7488 32.3385 24.7675 32.4665 24.7962 32.5921C24.813 32.7139 24.8492 32.8319 24.9036 32.9416C24.8884 32.962 24.8671 32.9769 24.8429 32.984H24.7448C24.7192 32.9869 24.6934 32.9814 24.6708 32.9688C24.6483 32.956 24.6301 32.9366 24.6188 32.9133C24.5656 32.7885 24.5048 32.667 24.4367 32.5497C24.384 32.457 24.3162 32.3738 24.236 32.3042C24.1577 32.2403 24.0671 32.1934 23.9699 32.1673C23.8431 32.1361 23.7128 32.122 23.5824 32.1248H22.4479V34.2023H23.6057C23.6541 34.2044 23.7018 34.1908 23.7421 34.1636C23.7824 34.1366 23.8131 34.0971 23.8298 34.0513C23.8792 33.933 23.9152 33.8094 23.9372 33.683C23.9429 33.6508 23.9606 33.622 23.9867 33.6026C24.0128 33.5835 24.0452 33.5749 24.0772 33.579C24.1191 33.5738 24.1614 33.5738 24.2033 33.579C24.2022 33.7118 24.1928 33.8442 24.1753 33.9756V34.6887C24.1714 34.8343 24.1823 34.9798 24.208 35.123C24.1692 35.128 24.13 35.128 24.0913 35.123C24.0575 35.1311 24.0223 35.1311 23.9885 35.123C23.9739 35.1147 23.9618 35.1021 23.9536 35.0872C23.9453 35.0722 23.9413 35.0552 23.9419 35.0382C23.9242 34.9128 23.8897 34.7903 23.8391 34.6746C23.8226 34.6283 23.792 34.5882 23.7519 34.5602C23.7117 34.5322 23.6638 34.5178 23.6151 34.5188H22.4573V36.3461C22.4573 36.45 22.5226 36.5209 22.658 36.5634C22.811 36.6079 22.967 36.6411 23.1249 36.6626C23.1856 36.6626 23.2182 36.7144 23.2182 36.7995C23.2226 36.8435 23.2226 36.8877 23.2182 36.9317H21.6076L21.1407 36.96C21.1369 36.9175 21.1369 36.8749 21.1407 36.8325C21.1407 36.7521 21.1687 36.7097 21.2201 36.705C21.3581 36.6736 21.4938 36.6325 21.6263 36.5822C21.6713 36.5678 21.7104 36.5385 21.7374 36.4992C21.7644 36.4599 21.7779 36.4128 21.7756 36.3649L21.7103 32.3607Z" fill="#DDDDDD"/>
<path d="M26.3413 34.3441C26.3376 33.9881 26.4042 33.6347 26.5375 33.3051C26.6671 32.9989 26.8506 32.719 27.0789 32.479C27.2948 32.2347 27.5546 32.0344 27.8448 31.8886C28.1365 31.7483 28.4553 31.6758 28.7784 31.6761C29.1824 31.6685 29.5841 31.7423 29.9596 31.8933C30.2663 32.0203 30.5428 32.2119 30.7705 32.4554C30.9983 32.6989 31.1722 32.9886 31.2807 33.3051C31.3901 33.629 31.4453 33.9688 31.4442 34.3109C31.4505 34.6923 31.3824 35.0709 31.2434 35.4253C31.1179 35.7387 30.9281 36.0214 30.6869 36.2549C30.4454 36.4887 30.1576 36.6677 29.8429 36.7805C29.5155 36.9018 29.1692 36.9627 28.8203 36.9599C28.4737 36.9638 28.1297 36.8997 27.8072 36.7711C27.5093 36.6504 27.2404 36.4669 27.0184 36.2329C26.7927 35.9908 26.6179 35.7049 26.5048 35.3923C26.3902 35.0551 26.3348 34.7004 26.3413 34.3441ZM29.0165 36.6106C29.2466 36.613 29.4743 36.5648 29.684 36.4688C29.884 36.3774 30.0621 36.2439 30.2071 36.0769C30.3559 35.9007 30.47 35.697 30.543 35.4774C30.6264 35.2345 30.6672 34.9787 30.6644 34.7219C30.6678 34.3674 30.6284 34.0138 30.5477 33.6687C30.4788 33.3714 30.3587 33.0884 30.1928 32.8331C30.0406 32.6004 29.8359 32.4077 29.5955 32.2711C29.3359 32.1308 29.0447 32.0609 28.7504 32.068C28.5405 32.0677 28.3327 32.1093 28.1388 32.1907C27.9452 32.2716 27.7702 32.3923 27.6253 32.5449C27.4708 32.7098 27.3502 32.9041 27.2704 33.1164C27.1788 33.3653 27.1343 33.6297 27.1397 33.8955C27.1374 34.2599 27.1799 34.6229 27.2658 34.9769C27.3372 35.2829 27.4589 35.575 27.6253 35.841C27.7744 36.0753 27.976 36.2711 28.2136 36.4122C28.4584 36.5512 28.7356 36.6214 29.0165 36.6154V36.6106Z" fill="#DDDDDD"/>
<path d="M35.1451 34.6037H34.5708V36.3366C34.5674 36.3882 34.5812 36.4395 34.6099 36.4825C34.6389 36.5251 34.6808 36.5571 34.7297 36.5728C34.8809 36.6241 35.0377 36.6573 35.1966 36.672C35.2572 36.672 35.2898 36.7285 35.2898 36.8089C35.2942 36.8529 35.2942 36.8971 35.2898 36.9411L34.781 36.9128H33.726L33.2265 36.9411C33.2226 36.8987 33.2226 36.856 33.2265 36.8136C33.2265 36.738 33.2544 36.7003 33.3103 36.6861C33.4537 36.6694 33.5937 36.6311 33.726 36.5728C33.7656 36.551 33.7982 36.5178 33.82 36.4777C33.8414 36.4374 33.851 36.3916 33.8474 36.3461V32.3607C33.8502 32.3165 33.8414 32.272 33.8218 32.2322C33.8021 32.1921 33.7721 32.1584 33.7353 32.1343C33.5979 32.0673 33.4488 32.0288 33.2964 32.0209C33.2451 32.0209 33.2172 31.9735 33.2172 31.8887C33.213 31.8463 33.213 31.8036 33.2172 31.7612L33.6838 31.7895H35.2013C35.655 31.7557 36.1056 31.8879 36.4711 32.1625C36.6077 32.2879 36.7154 32.4421 36.7863 32.6144C36.8573 32.7866 36.8899 32.9725 36.8818 33.1589C36.8813 33.2822 36.8624 33.4047 36.8259 33.5225C36.7848 33.6531 36.725 33.7772 36.6484 33.8908C36.5619 34.018 36.4563 34.1311 36.3357 34.2259C36.1952 34.3353 36.0373 34.4201 35.8688 34.4762L37.1666 36.3037C37.2483 36.4262 37.3612 36.5238 37.4934 36.5869C37.6021 36.6356 37.7145 36.6751 37.8297 36.705C37.8762 36.705 37.8995 36.7521 37.8995 36.8136C37.9042 36.8607 37.9042 36.9081 37.8995 36.9552L37.4655 36.927H36.9986C36.8749 36.9212 36.7574 36.8709 36.667 36.7853C36.5454 36.6793 36.4385 36.5571 36.3497 36.4217L35.1451 34.6037ZM34.9818 34.2827C35.2795 34.3018 35.575 34.2207 35.8222 34.0513C35.9304 33.9476 36.0135 33.8196 36.0645 33.678C36.1155 33.5361 36.1333 33.3843 36.1162 33.2343C36.1186 33.0827 36.0981 32.9314 36.0554 32.7858C36.0176 32.6542 35.9506 32.5332 35.8595 32.4317C35.7593 32.3259 35.6364 32.245 35.5 32.1955C35.3261 32.134 35.1425 32.1052 34.9585 32.1104H34.5708V34.2827H34.9818Z" fill="#DDDDDD"/>
<path d="M41.5508 32.1106V36.3132C41.5477 36.3658 41.5604 36.4184 41.587 36.4637C41.6137 36.5093 41.653 36.5457 41.7004 36.5682C41.8598 36.6323 42.0283 36.6705 42.1999 36.6815C42.2558 36.6815 42.2838 36.7239 42.2838 36.809C42.2879 36.853 42.2879 36.8972 42.2838 36.9412L41.7609 36.9129H40.6498L40.1177 36.9412C40.113 36.8972 40.113 36.853 40.1177 36.809C40.1177 36.7334 40.1456 36.6957 40.1969 36.6815C40.3695 36.6645 40.5388 36.6247 40.7011 36.5635C40.7492 36.543 40.7901 36.508 40.8175 36.4632C40.8452 36.4182 40.8584 36.3658 40.8553 36.3132V32.1106H40.0522C39.9199 32.1077 39.7879 32.1234 39.6601 32.158C39.5597 32.1854 39.466 32.2336 39.3847 32.2996C39.3029 32.3679 39.2348 32.4511 39.1838 32.5451C39.1279 32.6443 39.0671 32.7624 39.0065 32.8899C39.0024 32.9025 38.9957 32.914 38.9869 32.9237C38.9778 32.9333 38.9672 32.9412 38.955 32.9464H38.8898C38.8362 32.9483 38.7834 32.9315 38.7405 32.8993C38.7917 32.7103 38.829 32.5451 38.8572 32.3941L38.9271 32.0258C38.9418 31.9498 38.9638 31.8755 38.9926 31.8038C39.0003 31.7802 39.0156 31.7595 39.0355 31.7451C39.0557 31.7307 39.0798 31.7231 39.1046 31.7234H43.3343C43.3594 31.7234 43.384 31.7318 43.4042 31.7472C43.4244 31.7624 43.4392 31.7839 43.4464 31.8085C43.4749 31.8836 43.4969 31.9608 43.5116 32.0399C43.5261 32.164 43.5479 32.2867 43.5771 32.4082C43.6056 32.5684 43.6462 32.7263 43.6985 32.8805L43.6237 32.9135C43.596 32.9195 43.5673 32.9195 43.5396 32.9135H43.4697C43.4568 32.9087 43.4451 32.9011 43.4353 32.8915C43.4257 32.8815 43.4182 32.8697 43.4135 32.8566C43.3628 32.7386 43.3051 32.6234 43.2409 32.5121C43.1909 32.4187 43.1244 32.3357 43.0447 32.2666C42.9655 32.2004 42.8731 32.1522 42.774 32.125C42.6461 32.0904 42.5141 32.0744 42.3819 32.0776L41.5508 32.1106Z" fill="#DDDDDD"/>
<path d="M48.937 36.3366C48.9347 36.3764 48.9448 36.416 48.9658 36.4497C48.9867 36.4835 49.0173 36.5099 49.0538 36.5257C49.1545 36.567 49.2627 36.5864 49.3711 36.5822H50.2208C50.3526 36.5843 50.4835 36.5636 50.6083 36.5209C50.7123 36.4843 50.8076 36.4264 50.8883 36.3508C50.9704 36.2707 51.0395 36.1783 51.0938 36.077C51.1575 35.9592 51.2106 35.8359 51.2525 35.7086C51.2628 35.6914 51.2786 35.678 51.297 35.6704C51.3156 35.6626 51.3358 35.6612 51.3552 35.6662C51.3829 35.6602 51.4117 35.6602 51.4394 35.6662L51.5281 35.7086C51.4906 35.8644 51.458 36.0345 51.4254 36.2092C51.3928 36.3838 51.3599 36.5822 51.3366 36.8042C51.3374 36.8246 51.3335 36.845 51.3255 36.8639C51.3175 36.8827 51.3053 36.8992 51.29 36.9128C51.2592 36.9207 51.2271 36.9207 51.1966 36.9128H50.865C50.7501 36.9068 50.6347 36.9068 50.5198 36.9128H48.0873L47.5645 36.9411C47.5604 36.8987 47.5604 36.856 47.5645 36.8136C47.5645 36.738 47.5925 36.7003 47.6437 36.6861C47.7938 36.667 47.9401 36.6257 48.078 36.5633C48.115 36.5435 48.1456 36.5136 48.1663 36.4767C48.187 36.4398 48.1968 36.3979 48.1947 36.3555V32.3607C48.1991 32.3167 48.1914 32.2722 48.1725 32.2322C48.1536 32.1921 48.1241 32.1584 48.0873 32.1343C47.9546 32.0725 47.8125 32.0343 47.6673 32.0209C47.6546 32.0188 47.6424 32.0141 47.6321 32.0068C47.6214 31.9995 47.6126 31.9898 47.6064 31.9782C47.5994 31.9505 47.5994 31.9212 47.6064 31.8934C47.6026 31.8495 47.6026 31.8052 47.6064 31.7612L48.1293 31.7895H49.1237L49.6514 31.7612C49.6553 31.8036 49.6553 31.8463 49.6514 31.8887C49.6514 31.9767 49.6232 32.0241 49.5673 32.0303C49.3978 32.044 49.2311 32.0822 49.0724 32.1437C49.0212 32.167 48.9782 32.2057 48.9497 32.255C48.9213 32.3039 48.9086 32.3607 48.9138 32.4175L48.937 36.3366Z" fill="#DDDDDD"/>
<path d="M54.1555 36.3555C54.1505 36.3984 54.1581 36.4419 54.1772 36.4804C54.1964 36.5188 54.2261 36.551 54.2629 36.5728C54.3925 36.6309 54.5289 36.6722 54.669 36.6955C54.7205 36.6955 54.7484 36.7474 54.7484 36.823C54.7523 36.8654 54.7523 36.9081 54.7484 36.9505L54.2815 36.9222H53.3479L52.881 36.9505C52.8771 36.9081 52.8771 36.8654 52.881 36.823C52.881 36.7474 52.909 36.7097 52.9605 36.6955C53.1008 36.6762 53.2374 36.6364 53.3666 36.5775C53.4033 36.5544 53.4331 36.5215 53.452 36.4822C53.4709 36.4429 53.4786 36.399 53.474 36.3555V32.3607C53.4784 32.3167 53.4706 32.2722 53.4517 32.2322C53.4328 32.1921 53.4033 32.1584 53.3666 32.1343C53.2385 32.0735 53.101 32.0351 52.9605 32.0209C52.947 32.0193 52.9343 32.0141 52.9235 32.0057C52.9129 31.9974 52.9046 31.9864 52.8997 31.9735C52.8945 31.9455 52.8945 31.9167 52.8997 31.8887C52.8958 31.8463 52.8958 31.8036 52.8997 31.7612L53.3666 31.7895H54.3001L54.795 31.7612C54.7992 31.8036 54.7992 31.8463 54.795 31.8887C54.795 31.9688 54.7671 32.0115 54.7158 32.0209C54.575 32.0351 54.4376 32.0733 54.3095 32.1343C54.2727 32.1584 54.2432 32.1921 54.2243 32.2322C54.2054 32.2722 54.1977 32.3167 54.2023 32.3607L54.1555 36.3555Z" fill="#DDDDDD"/>
<path d="M56.98 32.3607C56.9842 32.3157 56.9746 32.2707 56.9531 32.2311C56.9314 32.1916 56.8985 32.1594 56.8586 32.139C56.7215 32.0803 56.577 32.0408 56.4293 32.0209C56.4153 32.0217 56.4013 32.018 56.3897 32.0104C56.3777 32.0029 56.3689 31.9916 56.3638 31.9782C56.3581 31.9487 56.3581 31.9183 56.3638 31.8887C56.3596 31.8463 56.3596 31.8036 56.3638 31.7612L56.8633 31.7895H59.4451C59.6273 31.7895 59.7533 31.7659 59.8185 31.7659C59.884 31.7659 59.926 31.8083 59.9492 31.8981C59.9782 32 59.9984 32.1044 60.0101 32.2097C60.0186 32.3385 60.0372 32.4665 60.066 32.5921C60.0828 32.7139 60.119 32.8319 60.1734 32.9416C60.1581 32.962 60.1369 32.9769 60.1128 32.984H60.0334C60.0075 32.9874 59.9816 32.9824 59.9588 32.9696C59.936 32.957 59.9179 32.9372 59.9073 32.9133C59.854 32.7885 59.7932 32.667 59.7251 32.5497C59.6726 32.457 59.6048 32.3738 59.5245 32.3042C59.4464 32.24 59.3555 32.1934 59.2585 32.1673C59.1316 32.1361 59.0014 32.1217 58.871 32.1248H57.713V34.2023H58.871C58.9184 34.2034 58.9652 34.1895 59.0045 34.1623C59.0439 34.1353 59.0739 34.0963 59.0902 34.0513C59.1381 33.9327 59.1725 33.8091 59.193 33.683C59.1987 33.6508 59.2165 33.622 59.2424 33.6026C59.2685 33.5835 59.3009 33.5749 59.333 33.579C59.3749 33.5738 59.4174 33.5738 59.459 33.579C59.4627 33.712 59.4533 33.8448 59.4311 33.9756C59.4171 34.106 59.4171 34.2374 59.4311 34.3675V34.6887C59.4272 34.8343 59.4381 34.9798 59.4637 35.123C59.4251 35.128 59.3858 35.128 59.347 35.123C59.3133 35.1309 59.2781 35.1309 59.2445 35.123C59.2297 35.1147 59.2176 35.1021 59.2093 35.0872C59.2012 35.0722 59.1971 35.0552 59.1976 35.0382C59.1803 34.9128 59.1459 34.7903 59.0949 34.6746C59.0783 34.6283 59.0478 34.5882 59.0076 34.5602C58.9675 34.5322 58.9196 34.5178 58.871 34.5188H57.713V36.3461C57.713 36.45 57.7785 36.5209 57.9139 36.5634C58.0668 36.6079 58.2229 36.6411 58.3808 36.6626C58.4413 36.6626 58.474 36.7144 58.474 36.7995C58.4781 36.8435 58.4781 36.8877 58.474 36.9317H56.8633L56.3966 36.96C56.3922 36.9175 56.3922 36.8749 56.3966 36.8325C56.3966 36.7521 56.4246 36.7097 56.4758 36.705C56.6138 36.6733 56.7497 36.6325 56.8822 36.5822C56.9272 36.5678 56.9663 36.5385 56.9932 36.4992C57.0201 36.4599 57.0336 36.4128 57.0315 36.3649L56.98 32.3607Z" fill="#DDDDDD"/>
<path d="M63.0864 32.1104V34.127H64.3001C64.349 34.1285 64.3971 34.1144 64.4375 34.0864C64.4779 34.0581 64.5082 34.0178 64.5242 33.9709C64.5736 33.851 64.6099 33.7259 64.6316 33.5979C64.6373 33.5657 64.6552 33.5372 64.6811 33.5178C64.7072 33.4984 64.7395 33.49 64.7716 33.494H64.893C64.8967 33.6254 64.8871 33.7565 64.8651 33.8861C64.8508 34.0147 64.8508 34.1445 64.8651 34.2733V34.5989C64.8609 34.7445 64.8718 34.8903 64.8977 35.0335H64.781C64.7478 35.038 64.7142 35.0296 64.6865 35.0105C64.6591 34.9914 64.6394 34.9626 64.6316 34.9296C64.6096 34.8016 64.5736 34.6764 64.5242 34.5565C64.5074 34.5107 64.4768 34.4712 64.4365 34.444C64.3963 34.417 64.3485 34.4034 64.3001 34.4055H63.0864V36.2613C63.0864 36.3696 63.1563 36.4453 63.2963 36.483C63.5238 36.5283 63.7558 36.5471 63.9874 36.5398H64.4261C64.5599 36.5432 64.693 36.5207 64.8182 36.4736C64.9262 36.4317 65.0255 36.3709 65.1125 36.2942C65.2008 36.2157 65.2776 36.1251 65.3413 36.0251C65.4127 35.9139 65.4782 35.7987 65.5372 35.6804C65.5372 35.6427 65.5934 35.6236 65.654 35.6236C65.6819 35.6249 65.7091 35.633 65.7334 35.6474L65.8175 35.6945C65.7647 35.8097 65.7241 35.9298 65.6962 36.0534L65.5981 36.45C65.5717 36.5589 65.5388 36.666 65.5 36.7712C65.4658 36.8592 65.4236 36.9034 65.3739 36.9034H62.2554L61.7884 36.9317C61.7846 36.8893 61.7846 36.8466 61.7884 36.8042C61.7884 36.7285 61.8164 36.6908 61.8679 36.6767C62.0136 36.6545 62.1562 36.6147 62.2926 36.5586C62.3343 36.5395 62.369 36.5079 62.3923 36.4683C62.4158 36.4285 62.4264 36.3827 62.4233 36.3367V32.3607C62.4277 32.3175 62.4197 32.2738 62.3998 32.2351C62.3798 32.1966 62.349 32.1646 62.3113 32.1437C62.1705 32.0848 62.0232 32.0434 61.8726 32.0209C61.821 32.0209 61.7931 31.9641 61.7931 31.8887C61.7915 31.8667 61.7915 31.8445 61.7931 31.8225C61.7915 31.8021 61.7915 31.7816 61.7931 31.7612L62.3534 31.7942H64.893L65.2339 31.7707C65.2991 31.7707 65.346 31.8131 65.3693 31.9029C65.397 32.0049 65.4171 32.1091 65.4298 32.2144C65.4384 32.3447 65.4573 32.4743 65.486 32.6016C65.5023 32.723 65.5419 32.8403 65.6027 32.9463C65.5623 32.9772 65.5132 32.994 65.4627 32.9934C65.4363 32.9966 65.4096 32.9913 65.3863 32.9788C65.3631 32.966 65.3439 32.9466 65.332 32.9228C65.2696 32.7874 65.2106 32.6709 65.1544 32.5733C65.1022 32.4817 65.0341 32.4002 64.9538 32.3324C64.8746 32.2662 64.7822 32.218 64.6829 32.1908C64.555 32.1565 64.423 32.1406 64.2907 32.1437L63.0864 32.1104Z" fill="#DDDDDD"/>
<path d="M17.1529 45.7617V43.9672H17.7411C17.86 43.9612 17.979 43.979 18.0912 44.0196C18.2033 44.0601 18.3065 44.1224 18.3947 44.2033C18.5514 44.3863 18.6377 44.6201 18.6377 44.862C18.6377 45.1041 18.5514 45.3379 18.3947 45.5209C18.3071 45.6031 18.2042 45.6667 18.092 45.7081C17.9797 45.7494 17.8604 45.7675 17.7411 45.7617H17.1529ZM17.4003 45.5444H17.7411C17.9141 45.5494 18.082 45.485 18.208 45.3651C18.2701 45.2976 18.3179 45.2177 18.3484 45.1308C18.3789 45.0439 18.3915 44.9518 18.3854 44.8596C18.3957 44.7758 18.389 44.6908 18.3656 44.6096C18.3421 44.5285 18.3025 44.4531 18.2491 44.3879C18.1958 44.323 18.1298 44.2696 18.0553 44.2313C17.9807 44.1931 17.8992 44.1709 17.8158 44.1656H17.3863L17.4003 45.5444Z" fill="#DDDDDD"/>
<path d="M20.3424 45.7524V43.9675H21.3928V44.1657H20.6132V44.7277H21.2435V44.945H20.6132V45.5209H21.3928V45.7382L20.3424 45.7524Z" fill="#DDDDDD"/>
<path d="M23.5769 45.7524L22.9326 43.9629H23.1987L23.6376 45.2236L23.7076 45.4692C23.7246 45.3859 23.7465 45.304 23.773 45.2236L24.2398 43.9629H24.5012L23.857 45.7524H23.5769Z" fill="#DDDDDD"/>
<path d="M26.1119 45.7618V43.9675H27.1436V44.1657H26.3594V44.7277H26.9943V44.945H26.3594V45.5209H27.1855V45.7382L26.1119 45.7618Z" fill="#DDDDDD"/>
<path d="M28.8849 45.7524V43.9629H29.1324V45.5352H29.9259V45.7524H28.8849Z" fill="#DDDDDD"/>
<path d="M31.3316 44.8458C31.3006 44.7074 31.3006 44.5639 31.3319 44.4257C31.3629 44.2872 31.4245 44.1579 31.512 44.0469C31.5995 43.9362 31.7105 43.8466 31.8368 43.7851C31.9634 43.7236 32.1019 43.6917 32.2419 43.6917C32.3822 43.6917 32.5206 43.7236 32.6469 43.7851C32.7735 43.8466 32.8845 43.9362 32.9718 44.0469C33.0592 44.1579 33.1211 44.2872 33.1522 44.4257C33.1835 44.5639 33.1835 44.7074 33.1524 44.8458C33.1835 44.9841 33.1835 45.1278 33.1522 45.266C33.1211 45.4042 33.0592 45.5335 32.9718 45.6445C32.8845 45.7555 32.7735 45.8451 32.6469 45.9066C32.5206 45.9681 32.3822 46 32.2419 46C32.1019 46 31.9634 45.9681 31.8368 45.9066C31.7105 45.8451 31.5995 45.7555 31.512 45.6445C31.4245 45.5335 31.3629 45.4042 31.3319 45.266C31.3006 45.1278 31.3006 44.9841 31.3316 44.8458ZM31.5884 44.8458C31.5834 45.0322 31.6502 45.2136 31.7752 45.3511C31.8355 45.4144 31.9083 45.465 31.9885 45.4993C32.0685 45.5338 32.1549 45.5516 32.2419 45.5516C32.3291 45.5516 32.4153 45.5338 32.4955 45.4993C32.5758 45.465 32.6482 45.4144 32.7088 45.3511C32.8336 45.2136 32.9006 45.0322 32.8957 44.8458C32.8962 44.6699 32.8292 44.5006 32.7088 44.3736C32.5846 44.249 32.4169 44.1791 32.2419 44.1791C32.0672 44.1791 31.8992 44.249 31.7752 44.3736C31.6531 44.4998 31.5845 44.6691 31.5837 44.8458H31.5884Z" fill="#DDDDDD"/>
<path d="M34.8648 45.7518V43.9623H35.5137C35.5872 43.9588 35.6607 43.9704 35.7298 43.9963C35.7986 44.0225 35.8618 44.0623 35.9154 44.1133C35.9671 44.1667 36.0078 44.2303 36.0342 44.3002C36.0608 44.3701 36.0727 44.4447 36.0694 44.5196C36.0725 44.595 36.0606 44.6704 36.0339 44.7408C36.0075 44.8115 35.9671 44.8759 35.9154 44.9303C35.8628 44.9822 35.8007 45.0225 35.7326 45.0492C35.6643 45.0761 35.5916 45.0887 35.5183 45.0861H35.1169V45.7471L34.8648 45.7518ZM35.1122 44.8735H35.4811C35.5271 44.8759 35.5735 44.8688 35.6167 44.8526C35.6602 44.8363 35.6998 44.8115 35.7332 44.7793C35.7647 44.7452 35.7893 44.7049 35.8054 44.6612C35.8214 44.6175 35.8287 44.5709 35.8266 44.5243C35.8289 44.4782 35.8217 44.4324 35.8056 44.3892C35.7896 44.3463 35.765 44.307 35.7332 44.274C35.7008 44.2392 35.6617 44.2115 35.6185 44.1929C35.575 44.1743 35.5282 44.1649 35.4811 44.1654H35.1169L35.1122 44.8735Z" fill="#DDDDDD"/>
<path d="M37.6575 45.7524L37.8162 43.9675H38.0729L38.4793 44.9118L38.5632 45.1526C38.596 45.0584 38.624 44.978 38.6519 44.9118L39.058 43.9675H39.3148L39.4551 45.7524H39.217L39.1328 44.638V44.3736L39.0394 44.638L38.6845 45.4408H38.4653L38.1151 44.638L38.0217 44.3688C38.0269 44.4584 38.0269 44.5484 38.0217 44.638L37.9376 45.7618L37.6575 45.7524Z" fill="#DDDDDD"/>
<path d="M41.2148 45.7335V43.9675H42.2325V44.1657H41.4669V44.7325H42.0925V44.945H41.4669V45.5115H42.2793V45.7241L41.2148 45.7335Z" fill="#DDDDDD"/>
<path d="M43.9928 45.7524V43.9675H44.2356L45.0245 45.1102L45.1692 45.3699V43.9531H45.4119V45.7382H45.1692L44.3803 44.5811L44.2356 44.3215V45.7382L43.9928 45.7524Z" fill="#DDDDDD"/>
<path d="M47.6478 45.7472V44.1655H47.0409V43.9482H48.4975V44.1655H47.8906V45.7284L47.6478 45.7472Z" fill="#DDDDDD"/>
<path d="M41.6913 7.91088V6.9193L38.8528 5.78131L36.8826 5.01165V14.5216H36.2291V4.25612L38.8528 5.27607V4.7L36.2291 3.46758L35.4449 2.42875H30.3468L29.5623 3.46758L26.9386 4.7V5.27607L29.5623 4.25612V14.5216H28.9134V5.01165L26.9386 5.78131L24.1002 6.9193V7.91088L19.2963 9.18581V21.2172L27.4943 24.7351H32.1022V22.4449H33.6895V24.7634H38.2834L46.4814 21.2456V9.1811L41.6913 7.91088ZM37.4383 8.87889V7.807L44.3758 9.34636V9.92715L37.9891 8.83638V19.4465L37.4383 19.6118V8.87889ZM44.3758 10.5788V18.521L41.668 19.3237V10.2199L44.3758 10.5788ZM40.8043 10.1066V19.5504L39.2496 20.0226V9.90353L40.8043 10.1066ZM30.8929 3.32119H34.9031L35.3142 4.26557H30.4822L30.8929 3.32119ZM32.8957 16.4623H31.0283V14.9371H34.7259V16.4623H32.8957ZM34.7631 17.3783V18.9035H31.0658V17.3783H34.7631ZM33.2412 14.0258H31.0658V6.42349C31.0658 6.05045 31.4673 5.80964 32.5877 5.80964H33.2412C34.3617 5.80964 34.7631 6.05045 34.7631 6.42349V14.0258H33.2412ZM21.4345 9.35581L28.372 7.807V19.6118L27.821 19.4512V8.84112L21.4345 9.94131V9.35581ZM26.5698 20.032L25.0153 19.5598V10.116L26.5698 9.91298V20.032ZM21.4345 10.5882L24.1422 10.2293V19.3285L21.4345 18.5258V10.5882ZM19.7444 9.73827L20.7762 9.51162V18.3416L19.7444 18.0347V9.73827ZM46.0843 20.7592L38.316 23.9607H34.7724V21.2692L32.905 20.7025L31.0376 21.2692V23.9607H27.4943L19.7258 20.7592V18.6674L27.4943 21.1464H30.3468V20.6742L32.919 19.914L35.4821 20.6601V21.1322H38.2834L46.0703 18.6674L46.0843 20.7592ZM46.0843 18.0299L45.0527 18.3369V9.50691L46.0843 9.73356V18.0299ZM34.4644 2.02267L33.6473 0.488048C33.1807 0.488048 33.0546 0.251953 32.9097 0.251953C32.765 0.251953 32.6483 0.488048 32.172 0.488048L31.3552 2.02267H34.4644Z" fill="#DDDDDD"/>
<path d="M55.1654 40.5063H10.5246V40.5535H55.1654V40.5063Z" fill="#DDDDDD"/>
</g>
<defs>
<clipPath id="clip0">
<rect width="66" height="45.8118" fill="white" transform="translate(0 0.188232)"/>
</clipPath>
</defs>
</svg>
