<svg width="70" height="96" viewBox="0 0 70 96" fill="none" xmlns="http://www.w3.org/2000/svg">
<path d="M9.694 40.9789C9.71164 40.9789 9.72047 41.0054 9.72047 41.0583C9.72047 41.1112 9.71164 41.1377 9.694 41.1377H7.90756C7.78406 41.1377 7.67819 41.1068 7.58997 41.0451C7.50175 40.9745 7.34737 40.7936 7.12682 40.5025C6.90627 40.2114 6.52693 39.6821 5.98879 38.9146L5.83 38.6896C5.45066 38.1515 5.17277 37.7765 4.99633 37.5648C4.81989 37.3443 4.63463 37.1899 4.44055 37.1017C4.25529 37.0134 4.00827 36.9693 3.69951 36.9693H3.58041V40.0658C3.58041 40.3305 3.60688 40.529 3.65981 40.6613C3.71274 40.7848 3.81419 40.8686 3.96416 40.9127C4.12296 40.9568 4.36556 40.9789 4.69197 40.9789C4.70962 40.9789 4.71844 41.0054 4.71844 41.0583C4.71844 41.1112 4.70962 41.1377 4.69197 41.1377C4.40085 41.1377 4.17148 41.1333 4.00386 41.1245L3.0114 41.1112L2.0851 41.1245C1.9263 41.1333 1.70134 41.1377 1.41022 41.1377C1.39258 41.1377 1.38375 41.1112 1.38375 41.0583C1.38375 41.0054 1.39258 40.9789 1.41022 40.9789C1.73663 40.9789 1.97482 40.9568 2.12479 40.9127C2.27477 40.8686 2.37622 40.7848 2.42915 40.6613C2.4909 40.529 2.52178 40.3305 2.52178 40.0658V33.939C2.52178 33.6744 2.49532 33.4803 2.44238 33.3568C2.38945 33.2333 2.288 33.1494 2.13803 33.1053C1.98805 33.0524 1.74986 33.0259 1.42345 33.0259C1.40581 33.0259 1.39699 32.9995 1.39699 32.9465C1.39699 32.8936 1.40581 32.8671 1.42345 32.8671L2.09833 32.8804C2.46885 32.898 2.77321 32.9068 3.0114 32.9068C3.27605 32.9068 3.61129 32.898 4.0171 32.8804L4.69197 32.8671C4.70962 32.8671 4.71844 32.8936 4.71844 32.9465C4.71844 32.9995 4.70962 33.0259 4.69197 33.0259C4.37438 33.0259 4.13619 33.0524 3.9774 33.1053C3.82742 33.1583 3.72156 33.2509 3.65981 33.3832C3.60688 33.5067 3.58041 33.7008 3.58041 33.9655V36.7576C4.05679 36.74 4.35233 36.7311 4.46701 36.7311H4.63904L6.17406 34.6007C6.5534 34.0802 6.74307 33.6876 6.74307 33.4229C6.74307 33.1583 6.53575 33.0259 6.12112 33.0259C6.10348 33.0259 6.09466 32.9995 6.09466 32.9465C6.09466 32.8936 6.10348 32.8671 6.12112 32.8671L6.70337 32.8804C7.05625 32.898 7.37825 32.9068 7.66937 32.9068C7.98696 32.9068 8.31337 32.898 8.6486 32.8804L9.15145 32.8671C9.17792 32.8671 9.19115 32.8936 9.19115 32.9465C9.19115 32.9995 9.17792 33.0259 9.15145 33.0259C8.71918 33.0259 8.30455 33.1494 7.90756 33.3965C7.51058 33.6435 7.118 34.014 6.72984 34.508L4.95663 36.7576C5.22129 36.7841 5.44184 36.8591 5.61827 36.9826C5.80353 37.0973 5.98438 37.2649 6.16082 37.4854C6.33726 37.6971 6.62838 38.0853 7.03419 38.6499C7.45764 39.2498 7.79288 39.6997 8.03989 39.9997C8.2869 40.2996 8.54274 40.5378 8.8074 40.7142C9.07206 40.8819 9.36759 40.9701 9.694 40.9789ZM10.5297 41.2965C10.318 41.2965 10.1504 41.248 10.0269 41.1509C9.90338 41.0627 9.84163 40.9304 9.84163 40.7539C9.84163 40.4275 10.0401 40.2643 10.4371 40.2643H10.715C11.209 40.2643 11.6325 39.9511 11.9854 39.3248C12.3471 38.6984 12.6161 37.9177 12.7926 36.9826C12.9778 36.0474 13.0705 35.13 13.0705 34.2301C13.0705 33.8067 12.9822 33.5023 12.8058 33.3171C12.6382 33.123 12.2941 33.0259 11.7736 33.0259C11.7472 33.0259 11.7339 32.9995 11.7339 32.9465C11.7339 32.8936 11.7472 32.8671 11.7736 32.8671H18.218C18.2357 32.8671 18.2445 32.8936 18.2445 32.9465C18.2445 32.9995 18.2357 33.0259 18.218 33.0259C17.8916 33.0259 17.649 33.0524 17.4902 33.1053C17.3403 33.1494 17.2344 33.2333 17.1726 33.3568C17.1197 33.4803 17.0932 33.6744 17.0932 33.939V40.0658C17.0932 40.3305 17.1197 40.529 17.1726 40.6613C17.2344 40.7848 17.3403 40.8686 17.4902 40.9127C17.649 40.9568 17.8916 40.9789 18.218 40.9789C18.2357 40.9789 18.2445 41.0054 18.2445 41.0583C18.2445 41.1112 18.2357 41.1377 18.218 41.1377C17.9357 41.1377 17.7108 41.1333 17.5432 41.1245L16.6036 41.1112L15.6244 41.1245C15.4656 41.1333 15.2362 41.1377 14.9363 41.1377C14.9186 41.1377 14.9098 41.1112 14.9098 41.0583C14.9098 41.0054 14.9186 40.9789 14.9363 40.9789C15.2715 40.9789 15.5141 40.9568 15.6641 40.9127C15.8141 40.8686 15.9155 40.7848 15.9685 40.6613C16.0214 40.5378 16.0478 40.3393 16.0478 40.0658V34.0316C16.0478 33.7317 16.0302 33.5332 15.9949 33.4362C15.9685 33.3391 15.8979 33.2774 15.7832 33.2509C15.6773 33.2244 15.4568 33.2112 15.1215 33.2112H14.3937C14.1291 33.2112 13.9306 33.2333 13.7983 33.2774C13.6659 33.3215 13.5689 33.4141 13.5071 33.5553C13.4454 33.6964 13.4145 33.9214 13.4145 34.2301C13.4145 35.1388 13.3263 36.1357 13.1498 37.2208C12.9822 38.3059 12.6823 39.2586 12.25 40.0791C11.8177 40.8907 11.2443 41.2965 10.5297 41.2965ZM26.8827 32.8671C26.9091 32.8671 26.9224 32.8936 26.9224 32.9465C26.9224 32.9995 26.9091 33.0259 26.8827 33.0259C26.6445 33.0259 26.4107 33.123 26.1813 33.3171C25.952 33.5023 25.7623 33.7582 25.6123 34.0846L22.807 40.2908C22.6482 40.6437 22.4673 40.8995 22.2644 41.0583C22.0703 41.2171 21.8189 41.2965 21.5101 41.2965C21.219 41.2965 20.9764 41.2303 20.7823 41.098C20.5882 40.9657 20.4912 40.7892 20.4912 40.5687C20.4912 40.4099 20.5441 40.2731 20.65 40.1585C20.7559 40.035 20.9014 39.9732 21.0867 39.9732C21.2543 39.9732 21.3778 40.0173 21.4572 40.1055C21.5454 40.1938 21.6248 40.3173 21.6954 40.4761C21.7395 40.5819 21.7836 40.6657 21.8277 40.7275C21.8718 40.7804 21.9292 40.8069 21.9997 40.8069C22.088 40.8069 22.1718 40.7628 22.2512 40.6745C22.3306 40.5863 22.4144 40.4408 22.5026 40.2379L22.8731 39.4174L19.9751 33.9655C19.781 33.6126 19.6046 33.37 19.4458 33.2377C19.2958 33.0965 19.0929 33.0259 18.8371 33.0259C18.8194 33.0259 18.8106 32.9995 18.8106 32.9465C18.8106 32.8936 18.8194 32.8671 18.8371 32.8671L19.3135 32.8804C19.5781 32.898 19.8472 32.9068 20.1207 32.9068C20.5353 32.9068 20.9367 32.898 21.3249 32.8804C21.4572 32.8716 21.6204 32.8671 21.8145 32.8671C21.841 32.8671 21.8542 32.8936 21.8542 32.9465C21.8542 32.9995 21.841 33.0259 21.8145 33.0259C21.2411 33.0259 20.9544 33.1715 20.9544 33.4626C20.9544 33.5597 20.994 33.6832 21.0734 33.8331L23.4024 38.2265L25.2815 34.0449C25.3521 33.9037 25.3874 33.7582 25.3874 33.6082C25.3874 33.22 25.0565 33.0259 24.3949 33.0259C24.3684 33.0259 24.3552 32.9995 24.3552 32.9465C24.3552 32.8936 24.3684 32.8671 24.3949 32.8671L24.9507 32.8804C25.2683 32.898 25.5506 32.9068 25.7976 32.9068C25.9564 32.9068 26.1505 32.898 26.3798 32.8804L26.8827 32.8671ZM30.6039 36.4665C31.539 36.4665 32.2889 36.6429 32.8535 36.9958C33.4181 37.3487 33.7004 37.9089 33.7004 38.6764C33.7004 39.1616 33.5813 39.5939 33.3431 39.9732C33.1137 40.3525 32.7873 40.6525 32.3639 40.873C31.9404 41.0848 31.4596 41.1906 30.9215 41.1906C30.6833 41.1906 30.4054 41.1774 30.0878 41.1509C29.9555 41.1421 29.7967 41.1333 29.6114 41.1245C29.4262 41.1156 29.2233 41.1112 29.0027 41.1112L28.0764 41.1245C27.9088 41.1333 27.6839 41.1377 27.4016 41.1377C27.3751 41.1377 27.3619 41.1112 27.3619 41.0583C27.3619 41.0054 27.3751 40.9789 27.4016 40.9789C27.7191 40.9789 27.9529 40.9568 28.1029 40.9127C28.2529 40.8686 28.3543 40.7848 28.4073 40.6613C28.4602 40.529 28.4866 40.3305 28.4866 40.0658V33.939C28.4866 33.6744 28.4602 33.4803 28.4073 33.3568C28.3543 33.2333 28.2529 33.1494 28.1029 33.1053C27.9617 33.0524 27.7324 33.0259 27.4148 33.0259C27.3971 33.0259 27.3883 32.9995 27.3883 32.9465C27.3883 32.8936 27.3971 32.8671 27.4148 32.8671H32.7344C32.8138 32.8671 32.8623 32.8804 32.88 32.9068C32.9064 32.9333 32.9197 32.9907 32.9197 33.0789L33.0785 34.8653C33.0785 34.8918 33.052 34.9094 32.9991 34.9182C32.9549 34.9182 32.9285 34.905 32.9197 34.8785C32.8138 34.3228 32.6065 33.8949 32.2977 33.595C31.9978 33.295 31.6273 33.145 31.1862 33.145H30.498C30.2246 33.145 30.0217 33.1715 29.8893 33.2244C29.757 33.2685 29.6644 33.3524 29.6114 33.4759C29.5585 33.5994 29.532 33.7802 29.532 34.0184V36.5327C29.929 36.4885 30.2863 36.4665 30.6039 36.4665ZM30.6701 40.926C31.3317 40.926 31.8125 40.7672 32.1125 40.4496C32.4212 40.132 32.5756 39.6556 32.5756 39.0204C32.5756 38.2265 32.3727 37.653 31.9669 37.3002C31.5699 36.9473 30.9965 36.7708 30.2466 36.7708C29.9908 36.7708 29.7526 36.7885 29.532 36.8238V40.0658C29.532 40.357 29.607 40.5731 29.757 40.7142C29.9158 40.8554 30.2202 40.926 30.6701 40.926ZM43.9732 40.9789C43.9997 40.9789 44.0129 41.0054 44.0129 41.0583C44.0129 41.1112 43.9997 41.1377 43.9732 41.1377C43.6909 41.1377 43.466 41.1333 43.2984 41.1245L42.3456 41.1112L41.3002 41.1245C41.1502 41.1333 40.9429 41.1377 40.6783 41.1377C40.6518 41.1377 40.6386 41.1112 40.6386 41.0583C40.6386 41.0054 40.6518 40.9789 40.6783 40.9789C41.0135 40.9789 41.2605 40.9568 41.4193 40.9127C41.5781 40.8686 41.684 40.7848 41.7369 40.6613C41.7898 40.529 41.8163 40.3305 41.8163 40.0658V36.9826H36.9995V40.0658C36.9995 40.3305 37.026 40.529 37.0789 40.6613C37.1319 40.7848 37.2377 40.8686 37.3965 40.9127C37.5553 40.9568 37.8023 40.9789 38.1376 40.9789C38.1552 40.9789 38.164 41.0054 38.164 41.0583C38.164 41.1112 38.1552 41.1377 38.1376 41.1377C37.8552 41.1377 37.6303 41.1333 37.4627 41.1245L36.4437 41.1112L35.5042 41.1245C35.3366 41.1333 35.1072 41.1377 34.8161 41.1377C34.7985 41.1377 34.7896 41.1112 34.7896 41.0583C34.7896 41.0054 34.7985 40.9789 34.8161 40.9789C35.1425 40.9789 35.3807 40.9568 35.5307 40.9127C35.6895 40.8686 35.7953 40.7848 35.8483 40.6613C35.91 40.529 35.9409 40.3305 35.9409 40.0658V33.939C35.9409 33.6744 35.9144 33.4803 35.8615 33.3568C35.8086 33.2333 35.7071 33.1494 35.5571 33.1053C35.4072 33.0524 35.169 33.0259 34.8426 33.0259C34.8161 33.0259 34.8029 32.9995 34.8029 32.9465C34.8029 32.8936 34.8161 32.8671 34.8426 32.8671L35.5174 32.8804C35.888 32.898 36.1967 32.9068 36.4437 32.9068C36.726 32.9068 37.0701 32.898 37.4759 32.8804L38.1376 32.8671C38.1552 32.8671 38.164 32.8936 38.164 32.9465C38.164 32.9995 38.1552 33.0259 38.1376 33.0259C37.8111 33.0259 37.5685 33.0524 37.4097 33.1053C37.2509 33.1583 37.1407 33.2509 37.0789 33.3832C37.026 33.5067 36.9995 33.7008 36.9995 33.9655V36.6782H41.8163V33.9655C41.8163 33.7008 41.7854 33.5067 41.7237 33.3832C41.6707 33.2509 41.5649 33.1583 41.4061 33.1053C41.2561 33.0524 41.0135 33.0259 40.6783 33.0259C40.6518 33.0259 40.6386 32.9995 40.6386 32.9465C40.6386 32.8936 40.6518 32.8671 40.6783 32.8671L41.3002 32.8804C41.706 32.898 42.0545 32.9068 42.3456 32.9068C42.5926 32.9068 42.9102 32.898 43.2984 32.8804L43.9732 32.8671C43.9997 32.8671 44.0129 32.8936 44.0129 32.9465C44.0129 32.9995 43.9997 33.0259 43.9732 33.0259C43.6468 33.0259 43.4086 33.0524 43.2587 33.1053C43.1087 33.1494 43.0028 33.2333 42.9411 33.3568C42.8882 33.4803 42.8617 33.6744 42.8617 33.939V40.0658C42.8617 40.3305 42.8882 40.529 42.9411 40.6613C43.0028 40.7848 43.1087 40.8686 43.2587 40.9127C43.4086 40.9568 43.6468 40.9789 43.9732 40.9789ZM48.5881 36.4665C50.4054 36.4665 51.3141 37.1899 51.3141 38.6367C51.3141 39.1395 51.195 39.585 50.9568 39.9732C50.7274 40.3614 50.401 40.6613 49.9776 40.873C49.5541 41.0848 49.0733 41.1906 48.5352 41.1906C48.3146 41.1906 48.05 41.1774 47.7412 41.1509C47.6177 41.1421 47.4545 41.1333 47.2516 41.1245C47.0575 41.1156 46.8325 41.1112 46.5767 41.1112L45.7166 41.1245C45.5401 41.1333 45.3064 41.1377 45.0152 41.1377C44.9888 41.1377 44.9755 41.1112 44.9755 41.0583C44.9755 41.0054 44.9888 40.9789 45.0152 40.9789C45.3416 40.9701 45.5754 40.948 45.7166 40.9127C45.8577 40.8686 45.9548 40.7848 46.0077 40.6613C46.0695 40.5378 46.1003 40.3393 46.1003 40.0658V33.939C46.1003 33.6655 46.0739 33.4714 46.0209 33.3568C45.968 33.2333 45.871 33.1494 45.7298 33.1053C45.5887 33.0612 45.3549 33.0348 45.0285 33.0259C45.0108 33.0259 45.002 32.9995 45.002 32.9465C45.002 32.8936 45.0108 32.8671 45.0285 32.8671L45.6636 32.8804C46.0518 32.898 46.365 32.9068 46.6032 32.9068C46.8678 32.9068 47.2031 32.898 47.6089 32.8804L48.297 32.8671C48.3146 32.8671 48.3235 32.8936 48.3235 32.9465C48.3235 32.9995 48.3146 33.0259 48.297 33.0259C47.9618 33.0348 47.7147 33.0612 47.5559 33.1053C47.406 33.1494 47.3001 33.2377 47.2384 33.37C47.1766 33.4935 47.1457 33.692 47.1457 33.9655V36.5988C47.675 36.5106 48.1558 36.4665 48.5881 36.4665ZM48.2838 40.926C48.963 40.926 49.4482 40.7672 49.7394 40.4496C50.0393 40.1232 50.1893 39.6159 50.1893 38.9278C50.1893 38.1603 50.0261 37.6089 49.6997 37.2737C49.3733 36.9385 48.8792 36.7708 48.2176 36.7708C47.9 36.7708 47.5427 36.8061 47.1457 36.8767V40.0658C47.1457 40.357 47.2207 40.5731 47.3707 40.7142C47.5207 40.8554 47.825 40.926 48.2838 40.926ZM54.1724 40.0658C54.1724 40.3305 54.1989 40.529 54.2518 40.6613C54.3047 40.7848 54.4018 40.8686 54.5429 40.9127C54.6929 40.9568 54.9267 40.9789 55.2442 40.9789C55.2619 40.9789 55.2707 41.0054 55.2707 41.0583C55.2707 41.1112 55.2619 41.1377 55.2442 41.1377C54.9619 41.1377 54.7414 41.1333 54.5826 41.1245L53.6298 41.1112L52.7035 41.1245C52.5359 41.1333 52.3065 41.1377 52.0154 41.1377C51.9978 41.1377 51.989 41.1112 51.989 41.0583C51.989 41.0054 51.9978 40.9789 52.0154 40.9789C52.333 40.9789 52.5668 40.9568 52.7168 40.9127C52.8667 40.8686 52.9682 40.7848 53.0211 40.6613C53.0741 40.529 53.1005 40.3305 53.1005 40.0658V33.939C53.1005 33.6744 53.0741 33.4803 53.0211 33.3568C52.9682 33.2333 52.8667 33.1494 52.7168 33.1053C52.5668 33.0524 52.333 33.0259 52.0154 33.0259C51.9978 33.0259 51.989 32.9995 51.989 32.9465C51.989 32.8936 51.9978 32.8671 52.0154 32.8671L52.7035 32.8804C53.0917 32.898 53.4005 32.9068 53.6298 32.9068C53.8857 32.9068 54.2077 32.898 54.5958 32.8804L55.2442 32.8671C55.2619 32.8671 55.2707 32.8936 55.2707 32.9465C55.2707 32.9995 55.2619 33.0259 55.2442 33.0259C54.9355 33.0259 54.7061 33.0524 54.5561 33.1053C54.4062 33.1583 54.3047 33.2509 54.2518 33.3832C54.1989 33.5067 54.1724 33.7008 54.1724 33.9655V40.0658ZM65.3053 40.9789C65.3229 40.9789 65.3317 41.0054 65.3317 41.0583C65.3317 41.1112 65.3229 41.1377 65.3053 41.1377C65.0141 41.1377 64.7848 41.1333 64.6172 41.1245L63.6644 41.1112L62.6322 41.1245C62.4734 41.1333 62.2617 41.1377 61.997 41.1377C61.9706 41.1377 61.9574 41.1112 61.9574 41.0583C61.9574 41.0054 61.9706 40.9789 61.997 40.9789C62.3323 40.9789 62.5793 40.9568 62.7381 40.9127C62.8969 40.8686 63.0027 40.7848 63.0557 40.6613C63.1086 40.529 63.1351 40.3305 63.1351 40.0658V34.7594L58.4771 39.7218V40.0658C58.4771 40.3305 58.5036 40.529 58.5565 40.6613C58.6094 40.7848 58.7153 40.8686 58.8741 40.9127C59.0329 40.9568 59.2799 40.9789 59.6151 40.9789C59.6328 40.9789 59.6416 41.0054 59.6416 41.0583C59.6416 41.1112 59.6328 41.1377 59.6151 41.1377C59.3328 41.1377 59.1079 41.1333 58.9403 41.1245L57.9213 41.1112L56.9818 41.1245C56.8142 41.1333 56.5848 41.1377 56.2937 41.1377C56.276 41.1377 56.2672 41.1112 56.2672 41.0583C56.2672 41.0054 56.276 40.9789 56.2937 40.9789C56.6201 40.9789 56.8583 40.9568 57.0083 40.9127C57.167 40.8686 57.2729 40.7848 57.3258 40.6613C57.3876 40.529 57.4185 40.3305 57.4185 40.0658V33.939C57.4185 33.6744 57.392 33.4803 57.3391 33.3568C57.2861 33.2333 57.1847 33.1494 57.0347 33.1053C56.8847 33.0524 56.6466 33.0259 56.3201 33.0259C56.2937 33.0259 56.2804 32.9995 56.2804 32.9465C56.2804 32.8936 56.2937 32.8671 56.3201 32.8671L56.995 32.8804C57.3655 32.898 57.6743 32.9068 57.9213 32.9068C58.2036 32.9068 58.5477 32.898 58.9535 32.8804L59.6151 32.8671C59.6328 32.8671 59.6416 32.8936 59.6416 32.9465C59.6416 32.9995 59.6328 33.0259 59.6151 33.0259C59.2887 33.0259 59.0461 33.0524 58.8873 33.1053C58.7285 33.1583 58.6183 33.2509 58.5565 33.3832C58.5036 33.5067 58.4771 33.7008 58.4771 33.9655V39.2586L63.1351 34.2831V33.9655C63.1351 33.7008 63.1042 33.5067 63.0424 33.3832C62.9895 33.2509 62.8837 33.1583 62.7249 33.1053C62.5749 33.0524 62.3323 33.0259 61.997 33.0259C61.9706 33.0259 61.9574 32.9995 61.9574 32.9465C61.9574 32.8936 61.9706 32.8671 61.997 32.8671L62.6322 32.8804C63.038 32.898 63.3821 32.9068 63.6644 32.9068C63.9114 32.9068 64.229 32.898 64.6172 32.8804L65.3053 32.8671C65.3229 32.8671 65.3317 32.8936 65.3317 32.9465C65.3317 32.9995 65.3229 33.0259 65.3053 33.0259C64.9789 33.0259 64.7407 33.0524 64.5907 33.1053C64.4407 33.1494 64.3349 33.2333 64.2731 33.3568C64.2202 33.4803 64.1937 33.6744 64.1937 33.939V40.0658C64.1937 40.3305 64.2202 40.529 64.2731 40.6613C64.3349 40.7848 64.4407 40.8686 64.5907 40.9127C64.7407 40.9568 64.9789 40.9789 65.3053 40.9789ZM60.8061 32.0732C61.2295 32.0732 61.5251 31.8041 61.6927 31.266C61.7633 31.0366 61.8338 30.869 61.9044 30.7631C61.975 30.6573 62.0941 30.6043 62.2617 30.6043C62.4029 30.6043 62.5087 30.644 62.5793 30.7234C62.6587 30.8028 62.6984 30.9087 62.6984 31.041C62.6984 31.2527 62.6102 31.4556 62.4337 31.6497C62.2573 31.835 62.0235 31.985 61.7324 32.0996C61.4413 32.2055 61.1369 32.2584 60.8193 32.2584C60.5017 32.2584 60.1974 32.2011 59.9063 32.0864C59.624 31.9717 59.3946 31.8217 59.2181 31.6365C59.0417 31.4512 58.9535 31.2527 58.9535 31.041C58.9535 30.9087 58.9888 30.8028 59.0594 30.7234C59.1387 30.644 59.249 30.6043 59.3902 30.6043C59.5666 30.6043 59.6901 30.6573 59.7607 30.7631C59.8313 30.869 59.9018 31.0366 59.9724 31.266C60.0342 31.5042 60.1268 31.6982 60.2503 31.8482C60.3826 31.9982 60.5679 32.0732 60.8061 32.0732Z" fill="#DDDDDD"/>
<path d="M1.20799 66.5321H2.01898C2.55964 66.5321 3.10029 66.3109 3.64095 65.8686C4.18161 65.4098 4.6895 64.6808 5.16462 63.6814C5.60698 62.7475 5.95103 61.6252 6.19679 60.3145C6.44254 59.0039 6.63914 57.0378 6.78659 54.4165L7.10607 49.1328L4.50109 48.0514V47.4862H18.8777V48.0269L16.5922 48.3709V66.5321H18.7056L19.0743 72.5531H18.337L15.7812 67.1465H4.13246L1.57662 72.5531H0.839361L1.20799 66.5321ZM13.8889 66.5321V48.1006H7.84333L7.45013 54.4165C7.26991 57.1197 7.05692 59.1431 6.81117 60.4866C6.56542 61.8136 6.22955 62.9605 5.80358 63.9271C5.54144 64.5169 5.26292 65.0084 4.96802 65.4016C4.6895 65.7785 4.43555 66.0652 4.20618 66.2618C3.97681 66.4584 3.86213 66.5485 3.86213 66.5321H13.8889ZM30.6567 67.638C28.8709 67.638 27.2735 67.2038 25.8645 66.3355C24.4556 65.4672 23.3579 64.2548 22.5715 62.6983C21.785 61.1255 21.3918 59.3315 21.3918 57.3163C21.3918 55.3012 21.785 53.5154 22.5715 51.9589C23.3579 50.3861 24.4556 49.1655 25.8645 48.2972C27.2735 47.4289 28.8709 46.9947 30.6567 46.9947C32.4425 46.9947 34.0399 47.4289 35.4489 48.2972C36.8579 49.1655 37.9556 50.3861 38.742 51.9589C39.5284 53.5154 39.9216 55.3012 39.9216 57.3163C39.9216 59.3315 39.5284 61.1255 38.742 62.6983C37.9556 64.2548 36.8579 65.4672 35.4489 66.3355C34.0399 67.2038 32.4425 67.638 30.6567 67.638ZM30.6567 67.0728C31.8364 67.0728 32.8931 66.7615 33.827 66.1389C34.7772 65.5163 35.5227 64.6152 36.0633 63.4356C36.604 62.2396 36.8743 60.8306 36.8743 59.2086V55.424C36.8743 53.8021 36.604 52.4013 36.0633 51.2217C35.5227 50.0257 34.7772 49.1164 33.827 48.4938C32.8931 47.8712 31.8364 47.5599 30.6567 47.5599C29.4607 47.5599 28.3958 47.8712 27.4619 48.4938C26.5281 49.1164 25.7908 50.0257 25.2502 51.2217C24.7095 52.4013 24.4392 53.8021 24.4392 55.424V59.2086C24.4392 60.8306 24.7095 62.2396 25.2502 63.4356C25.7908 64.6152 26.5281 65.5163 27.4619 66.1389C28.3958 66.7615 29.4607 67.0728 30.6567 67.0728ZM52.4626 67.3922L45.1391 48.3709V65.6474L47.4983 66.6304V67.1465H42.2392V66.6304L44.5493 65.6474V48.3709L42.2884 48.0269V47.4862H47.7195L53.8879 63.2636L60.1792 47.4862H65.1434V48.0269L62.8825 48.3709V66.2618L65.1434 66.6304V67.1465H57.9183V66.6304L60.1792 66.2618V49.1082L52.9049 67.3922H52.4626Z" fill="#DDDDDD"/>
<path d="M32.6644 57.6465C32.6644 58.6906 31.818 59.5369 30.774 59.5369C29.7299 59.5369 28.8835 58.6906 28.8835 57.6465C28.8835 56.6025 29.7299 55.7561 30.774 55.7561C31.818 55.7561 32.6644 56.6025 32.6644 57.6465Z" fill="#A68E52"/>
</svg>
