<svg width="70" height="28" viewBox="0 0 70 28" fill="none" xmlns="http://www.w3.org/2000/svg">
<g opacity="0.7">
<path d="M27.5933 12.9598H27.8716C27.9026 13.5648 28.1603 14.0637 28.655 14.4458C29.1498 14.8279 29.7683 15.0296 30.5104 15.0296C31.232 15.0296 31.8298 14.8385 32.2937 14.4564C32.7576 14.0743 32.9843 13.5861 32.9843 12.9917C32.9843 12.5247 32.8297 12.1532 32.5102 11.8666C32.1906 11.58 31.6752 11.3465 30.9537 11.1661L30.0157 10.9219C29.2529 10.7309 28.6963 10.4655 28.3458 10.1471C27.9953 9.82868 27.8201 9.40412 27.8201 8.89464C27.8201 8.26841 28.0778 7.73771 28.5829 7.31315C29.088 6.88858 29.7064 6.6763 30.4177 6.6763C31.1701 6.6763 31.7989 6.87797 32.3143 7.2813C32.8297 7.68464 33.0977 8.1835 33.1183 8.77789H32.84C32.8091 8.2578 32.572 7.82262 32.1082 7.47236C31.6546 7.12209 31.0877 6.95227 30.4177 6.95227C29.7683 6.95227 29.222 7.13271 28.7787 7.5042C28.3252 7.87569 28.1087 8.3321 28.1087 8.89464C28.1087 9.34044 28.2633 9.6907 28.5829 9.96667C28.9024 10.2426 29.4075 10.4655 30.1084 10.646L31.0361 10.8795C31.8092 11.0811 32.3865 11.3465 32.7369 11.6755C33.0977 12.0046 33.2729 12.4398 33.2729 12.9705C33.2729 13.6498 33.0152 14.2017 32.4999 14.6369C31.9845 15.072 31.3248 15.2843 30.5001 15.2843C29.6755 15.2843 28.9952 15.0614 28.4489 14.6262C27.9129 14.2017 27.6139 13.6391 27.5933 12.9598Z" fill="#DDDDDD"/>
<path d="M42.0347 6.80365V15.1782H41.7564V7.47234H41.7358L38.4476 15.1782H38.1486L34.8604 7.47234H34.8398V15.1782H34.5615V6.80365H34.8604L38.293 14.8173H38.3136L41.7255 6.80365H42.0347Z" fill="#DDDDDD"/>
<path d="M49.3841 15.1782L48.3224 12.2699H44.5394L43.4571 15.1782H43.1479L46.2815 6.80365H46.5701L49.7037 15.1782H49.3841ZM46.4155 7.19637L44.6425 11.9939H48.2193L46.4464 7.19637H46.4155Z" fill="#DDDDDD"/>
<path d="M51.0851 11.5163V15.1782H50.7965V6.80365H53.3219C54.1363 6.80365 54.7753 7.01593 55.2392 7.42988C55.7031 7.85444 55.9401 8.4276 55.9401 9.15998C55.9401 9.77559 55.7649 10.2851 55.4247 10.6884C55.0846 11.0917 54.6001 11.3571 53.9919 11.4632L56.136 15.1782H55.8164L53.693 11.5057C53.559 11.5163 53.4353 11.5163 53.3219 11.5163H51.0851ZM51.0851 7.069V11.251H53.3219C54.0435 11.251 54.6207 11.0599 55.033 10.6884C55.4454 10.3169 55.6515 9.80744 55.6515 9.15998C55.6515 8.5019 55.4454 7.99243 55.033 7.62093C54.6207 7.24944 54.0435 7.069 53.3116 7.069H51.0851Z" fill="#DDDDDD"/>
<path d="M59.8985 15.1782H59.6202V7.07962H56.6824V6.80365H62.8259V7.07962H59.8882L59.8985 15.1782Z" fill="#DDDDDD"/>
<path d="M31.2426 16.0271C32.3352 16.0271 33.2114 16.4198 33.8505 17.1946C34.4999 17.9694 34.8194 19.0202 34.8194 20.3364C34.8194 21.6525 34.4999 22.7033 33.8505 23.4782C33.2011 24.253 32.3352 24.6457 31.2323 24.6457C30.1293 24.6457 29.2635 24.253 28.6141 23.4782C27.9647 22.7033 27.6451 21.6525 27.6451 20.3364C27.6451 19.0202 27.9647 17.9801 28.6141 17.1946C29.2635 16.4092 30.1293 16.0271 31.2426 16.0271ZM31.2426 16.2924C30.2324 16.2924 29.4284 16.6533 28.8305 17.3857C28.2327 18.1074 27.9338 19.0945 27.9338 20.3258C27.9338 21.557 28.2327 22.5335 28.8305 23.2659C29.4284 23.9983 30.2324 24.3591 31.2426 24.3591C32.2424 24.3591 33.0465 23.9983 33.6443 23.2659C34.2422 22.5335 34.5411 21.557 34.5411 20.3258C34.5411 19.0945 34.2422 18.118 33.6443 17.3857C33.0465 16.6639 32.2424 16.2924 31.2426 16.2924Z" fill="#DDDDDD"/>
<path d="M36.4482 20.8567V24.5185H36.1596V16.144H38.685C39.4994 16.144 40.1384 16.3563 40.6023 16.7702C41.0661 17.1948 41.3032 17.768 41.3032 18.5003C41.3032 19.116 41.128 19.6254 40.7878 20.0288C40.4374 20.4321 39.9632 20.6975 39.355 20.8036L41.4991 24.5185H41.1795L39.0561 20.8461C38.9221 20.8567 38.7984 20.8567 38.685 20.8567H36.4482ZM36.4482 16.4094V20.5913H38.685C39.4066 20.5913 39.9838 20.4003 40.3961 20.0288C40.8085 19.6573 41.0146 19.1478 41.0146 18.5003C41.0146 17.8423 40.8085 17.3328 40.3961 16.9613C39.9838 16.5898 39.4066 16.4094 38.6747 16.4094H36.4482Z" fill="#DDDDDD"/>
<path d="M48.4263 24.5185L47.3646 21.6103H43.5816L42.5096 24.5185H42.2004L45.334 16.144H45.6226L48.7562 24.5185H48.4263ZM45.468 16.5367L43.6847 21.3343H47.2615L45.4886 16.5367H45.468Z" fill="#DDDDDD"/>
<path d="M50.1267 24.5185H49.8381V16.144H50.1473L55.5486 23.9666H55.5692V16.144H55.8476V24.5185H55.5899L50.1473 16.6323H50.1267V24.5185Z" fill="#DDDDDD"/>
<path d="M63.939 21.2388C63.939 22.2896 63.6504 23.1175 63.0731 23.7225C62.4959 24.3275 61.7022 24.6247 60.7023 24.6247C60.022 24.6247 59.4138 24.4443 58.8778 24.0728C58.3418 23.7119 57.9295 23.1918 57.6409 22.5337C57.3419 21.8756 57.1976 21.1114 57.1976 20.2623C57.1976 18.9886 57.5172 17.959 58.1666 17.1842C58.8057 16.4094 59.6612 16.0167 60.7126 16.0167C61.5166 16.0167 62.2072 16.2502 62.7948 16.7066C63.3823 17.163 63.7431 17.7574 63.8977 18.5004H63.6194C63.4648 17.8317 63.1143 17.301 62.5886 16.8976C62.0629 16.4943 61.4342 16.2926 60.7126 16.2926C59.7437 16.2926 58.9603 16.6535 58.3727 17.3859C57.7852 18.1183 57.4966 19.0735 57.4966 20.2729C57.4966 21.4829 57.7955 22.47 58.3933 23.2236C58.9912 23.9772 59.7643 24.3593 60.7229 24.3593C61.6403 24.3593 62.3619 24.0834 62.8876 23.5314C63.4133 22.9795 63.6813 22.2153 63.6813 21.26V20.6762H60.692V20.4109H63.9596V21.2388H63.939Z" fill="#DDDDDD"/>
<path d="M70.0005 24.2426V24.5185H65.3414V16.144H70.0005V16.42H65.63V20.0925H69.8047V20.3578H65.63V24.2532H70.0005V24.2426Z" fill="#DDDDDD"/>
<path d="M23.8004 18.0652L23.6974 17.4708L24.924 15.1675L23.7386 13.2145L24.2024 12.0151L23.0686 11.1129L22.914 8.67171L20.6875 7.64214L20.2751 6.65503L19.6154 6.43213L18.6362 4.82941L16.5643 4.92493L14.812 3.3222L13.2143 3.88475L12.6989 3.59817L11.431 4.23502L8.98806 3.6937L8.00882 4.75511L7.33881 4.65958L6.38018 6.1774L3.65891 7.05837L3.08167 9.57391L2.5972 9.9454L2.56628 10.5079L2.31889 10.7521L2.3395 11.0917L0.690247 12.9492L1.4118 14.9128L0.813942 16.0591L1.44272 17.2054L1.0201 19.1266L2.66935 20.8567L2.85489 22.3745L3.9166 22.9158L4.65877 25.2403L7.16357 25.6861L8.00882 26.8112L9.21483 26.7687L10.6889 27.8832L12.5958 27.1402L14.7295 28L15.6469 27.1933L16.4716 27.3631L17.8219 25.8135L20.2339 25.5163L20.8627 23.8923L21.3162 23.6906L21.7286 22.3214L23.9035 20.8248L23.6355 18.3305L23.8004 18.0652Z" fill="#727376"/>
<path d="M21.2441 20.3578L20.7081 21.4617L21.7802 19.0417L21.2441 20.3578Z" fill="#898A8D"/>
<path d="M17.4504 25.1342L16.6979 25.442L18.842 23.8286L17.4504 25.1342Z" fill="#A0A1A3"/>
<path d="M23.2024 13.8938L22.2953 10.9644L23.12 12.514L23.2024 13.8938Z" fill="#8D8E91"/>
<path d="M7.51367 25.2085L6.71997 24.7521L9.34847 25.718L7.51367 25.2085Z" fill="#6C6E70"/>
<path d="M23.8007 18.0652L23.0173 19.2433L23.574 16.6111L23.8007 18.0652Z" fill="#F2F2F2"/>
<path d="M2.33952 11.9514L2.31891 10.752L3.628 9.43585L2.33952 11.9514Z" fill="#E5E5E5"/>
<path d="M18.482 24.9431L20.1931 23.9666L21.3167 23.6907L18.482 24.9431Z" fill="#A0A0A0"/>
<path d="M21.3164 23.6907L20.1929 23.9666L21.8834 21.812L21.3164 23.6907Z" fill="#CCCCCC"/>
<path d="M18.8942 6.30478L20.2754 6.65505L20.9351 8.23655L18.8942 6.30478Z" fill="#D8D8D8"/>
<path d="M17.368 5.66791L20.2749 6.65502L18.8936 6.30475L17.368 5.66791Z" fill="#F2F2F2"/>
<path d="M2.77252 20.4746L4.40116 23.1493L2.85498 22.3745L2.77252 20.4746Z" fill="#999999"/>
<path d="M2.77185 20.4746L2.85432 22.3745L2.42139 18.978L2.77185 20.4746Z" fill="#A5A5A5"/>
<path d="M16.472 27.3631L13.5858 26.7475L15.4412 26.8324L16.472 27.3631Z" fill="#BFBFBF"/>
<path d="M16.4719 27.3631L15.4412 26.8324L17.9666 25.6543L16.4719 27.3631Z" fill="#D8D8D8"/>
<path d="M1.79382 17.4177L2.4226 18.978L0.814575 16.0591L1.79382 17.4177Z" fill="#BFBFBF"/>
<path d="M1.56705 14.5837L1.79382 17.4177L0.814575 16.0591L1.56705 14.5837Z" fill="#D8D8D8"/>
<path d="M13.5853 26.7475L10.6888 27.8832L12.6473 27.0128L13.5853 26.7475Z" fill="#CCCCCC"/>
<path d="M14.8119 3.3222L17.3682 5.66792L16.3581 4.93555L14.8119 3.3222Z" fill="#E5E5E5"/>
<path d="M24.9242 15.1675L23.5636 13.671L23.1307 12.2274L24.9242 15.1675Z" fill="#E5E5E5"/>
<path d="M23.5636 13.6709L22.6978 10.8051L23.1307 12.2274L23.5636 13.6709Z" fill="#808183"/>
<path d="M23.1307 12.2274L22.6978 10.8051L22.9142 8.67172L23.1307 12.2274Z" fill="#D8D8D8"/>
<path d="M10.6889 27.8832L9.60657 26.4928L12.6474 27.0129L10.6889 27.8832Z" fill="#999999"/>
<path d="M10.6884 27.8832L7.98773 25.8347L9.60606 26.4927L10.6884 27.8832Z" fill="#999999"/>
<path d="M8.49314 5.03107L6.85419 6.0288L8.98791 3.6937L8.49314 5.03107Z" fill="#F2F2F2"/>
<path d="M8.98767 3.6937L11.8945 4.34116L10.9771 4.4473L8.98767 3.6937Z" fill="#F2F2F2"/>
<path d="M8.49377 5.03107L8.98855 3.6937L10.978 4.4473L8.49377 5.03107Z" fill="#E5E5E5"/>
<path d="M13.6369 4.33054L14.812 3.3222L16.3582 4.93555L13.6369 4.33054Z" fill="#F2F2F2"/>
<path d="M11.8948 4.34112L13.6368 4.33051L10.9774 4.44726L11.8948 4.34112Z" fill="#9C9EA0"/>
<path d="M11.8949 4.34116L14.812 3.3222L13.6369 4.33054L11.8949 4.34116Z" fill="#E5E5E5"/>
<path d="M6.08112 6.63382L6.8542 6.02882L8.49315 5.0311L6.08112 6.63382Z" fill="#B9B9BA"/>
<path d="M6.08091 6.63378L3.65857 7.05835L6.854 6.02878L6.08091 6.63378Z" fill="#E5E5E5"/>
<path d="M24.924 15.1675L23.5221 16.2183L23.5633 13.671L24.924 15.1675Z" fill="#F2F2F2"/>
<path d="M23.5633 17.7467L23.5221 16.2182L24.924 15.1674L23.5633 17.7467Z" fill="#E5E5E5"/>
<path d="M15.4412 26.8324L17.1007 25.8984L17.9666 25.6543L15.4412 26.8324Z" fill="#BFBFBF"/>
<path d="M1.74164 15.8574L1.79318 17.4177L1.56641 14.5837L1.74164 15.8574Z" fill="#A5A5A5"/>
<path d="M7.98846 25.8347L6.82367 25.1978L9.60679 26.4928L7.98846 25.8347Z" fill="#6E6F72"/>
<path d="M7.98794 25.8347L4.65851 25.2403L6.82315 25.1978L7.98794 25.8347Z" fill="#999999"/>
<path d="M3.86473 9.10687L3.65857 7.05835L6.08091 6.63379L3.86473 9.10687Z" fill="#F2F2F2"/>
<path d="M3.86503 9.1069L2.85486 10.4973L3.65887 7.05838L3.86503 9.1069Z" fill="#E5E5E5"/>
<path d="M20.2337 7.44043L22.9137 8.67166L21.2233 8.93701L20.2337 7.44043Z" fill="#E5E5E5"/>
<path d="M21.2234 8.93707L22.9139 8.67172L22.6974 10.8052L21.2234 8.93707Z" fill="#F2F2F2"/>
<path d="M9.60657 26.4928L11.4311 26.6839L12.6474 27.0129L9.60657 26.4928Z" fill="#CCCCCC"/>
<path d="M23.9039 20.8249L22.9246 18.4155L23.5637 17.7468L23.9039 20.8249Z" fill="#D8D8D8"/>
<path d="M22.9246 18.4154L23.5225 16.2183L23.5637 17.7468L22.9246 18.4154Z" fill="#CCCCCC"/>
<path d="M2.5152 11.7392L2.85536 10.4974L3.86552 9.1069L2.5152 11.7392Z" fill="#B9BABA"/>
<path d="M2.51474 11.7392L0.690247 12.9492L2.85489 10.4973L2.51474 11.7392Z" fill="#F2F2F2"/>
<path d="M13.6369 4.33051L16.3582 4.93551L15.4408 5.08411L13.6369 4.33051Z" fill="#CCCCCC"/>
<path d="M15.4412 5.08418L16.3586 4.93558L18.6366 4.82944L15.4412 5.08418Z" fill="#F2F2F2"/>
<path d="M8.49377 5.03107L10.978 4.4473L10.2255 5.0523L8.49377 5.03107Z" fill="#CCCCCC"/>
<path d="M3.86462 9.10687L6.08081 6.63379L5.35926 7.81195L3.86462 9.10687Z" fill="#E5E5E5"/>
<path d="M4.84405 22.8946L6.82315 25.1979L4.65851 25.2403L4.84405 22.8946Z" fill="#A5A5A5"/>
<path d="M4.84404 22.8946L4.6585 25.2403L3.57617 21.8226L4.84404 22.8946Z" fill="#B2B2B2"/>
<path d="M23.9038 20.8249L21.8423 20.6445L22.9246 18.4155L23.9038 20.8249Z" fill="#E5E5E5"/>
<path d="M21.3679 22.5762L21.8421 20.6445L23.9036 20.8249L21.3679 22.5762Z" fill="#F2F2F2"/>
<path d="M23.5635 13.671L22.9965 14.1486L24.2025 12.0152L23.5635 13.671Z" fill="#CCCCCC"/>
<path d="M23.5222 16.2183L22.9965 14.1486L23.5635 13.671L23.5222 16.2183Z" fill="#D8D8D8"/>
<path d="M22.0892 11.166L22.6973 10.8051L24.2023 12.0151L22.0892 11.166Z" fill="#E5E5E5"/>
<path d="M22.0892 11.1661L24.2023 12.0152L22.9963 14.1486L22.0892 11.1661Z" fill="#F2F2F2"/>
<path d="M21.2234 8.9371L22.6974 10.8052L22.0893 11.1661L21.2234 8.9371Z" fill="#CCCCCC"/>
<path d="M2.51474 11.7392L2.28796 14.2865L0.690247 12.9492L2.51474 11.7392Z" fill="#D8D8D8"/>
<path d="M2.28796 14.2866L1.74165 15.8575L0.690247 12.9492L2.28796 14.2866Z" fill="#B2B2B2"/>
<path d="M20.234 7.44043L21.2235 8.93701L19.4918 7.65271L20.234 7.44043Z" fill="#CCCCCC"/>
<path d="M18.6363 4.82944L20.234 7.4405L19.4918 7.65279L18.6363 4.82944Z" fill="#E5E5E5"/>
<path d="M10.2249 5.05227L10.9773 4.44727L12.6987 3.59814L10.2249 5.05227Z" fill="#D8D8D8"/>
<path d="M20.2337 25.5163L20.3162 22.5868L21.3676 22.5762L20.2337 25.5163Z" fill="#D8D8D8"/>
<path d="M20.3161 22.5868L21.8417 20.6445L21.3675 22.5762L20.3161 22.5868Z" fill="#E5E5E5"/>
<path d="M14.7294 28L11.4308 26.6838L13.4512 26.238L14.7294 28Z" fill="#A5A5A5"/>
<path d="M14.7292 27.9999L13.451 26.238L16.1517 25.4844L14.7292 27.9999Z" fill="#CCCCCC"/>
<path d="M14.7296 27.9999L16.152 25.4844L17.1004 25.8984L14.7296 27.9999Z" fill="#E5E5E5"/>
<path d="M17.1002 25.8983L18.3269 24.2425L20.2338 25.5162L17.1002 25.8983Z" fill="#CCCCCC"/>
<path d="M20.234 25.5163L18.3271 24.2426L20.3165 22.5868L20.234 25.5163Z" fill="#E5E5E5"/>
<path d="M16.1522 25.4844L18.3271 24.2425L17.1005 25.8983L16.1522 25.4844Z" fill="#D8D8D8"/>
<path d="M3.39095 19.9863L3.57649 21.8226L1.02014 19.1266L3.39095 19.9863Z" fill="#B2B2B2"/>
<path d="M4.84421 22.8946L3.57635 21.8226L3.39081 19.9864L4.84421 22.8946Z" fill="#999999"/>
<path d="M2.5457 17.0144L3.39094 19.9864L1.02014 19.1266L2.5457 17.0144Z" fill="#999999"/>
<path d="M2.54607 17.0143L1.74207 15.8574L2.28838 14.2865L2.54607 17.0143Z" fill="#D8D8D8"/>
<path d="M2.5457 17.0144L1.02014 19.1266L1.74169 15.8575L2.5457 17.0144Z" fill="#F2F2F2"/>
<path d="M17.2551 6.63383L18.6364 4.82944L19.4919 7.65279L17.2551 6.63383Z" fill="#F2F2F2"/>
<path d="M15.4412 5.08417L18.6366 4.82944L17.2553 6.63383L15.4412 5.08417Z" fill="#E5E5E5"/>
<path d="M7.41094 7.03716L5.35968 7.81199L7.33879 4.65961L7.41094 7.03716Z" fill="#D8D8D8"/>
<path d="M11.4312 26.6839L8.00903 26.8112L10.5035 25.7392L11.4312 26.6839Z" fill="#A5A5A5"/>
<path d="M11.4311 26.6839L10.5034 25.7392L13.4515 26.2381L11.4311 26.6839Z" fill="#999999"/>
<path d="M6.64775 23.68L6.82298 25.1979L4.84387 22.8946L6.64775 23.68Z" fill="#999999"/>
<path d="M6.64807 23.6801L8.00871 26.8112L6.8233 25.1979L6.64807 23.6801Z" fill="#BFBFBF"/>
<path d="M7.41108 7.03716L7.33893 4.65961L9.93651 6.10312L7.41108 7.03716Z" fill="#E5E5E5"/>
<path d="M7.33893 4.65961L10.2251 5.05233L9.93651 6.10312L7.33893 4.65961Z" fill="#D8D8D8"/>
<path d="M2.59766 9.9454L3.35013 12.8324L2.5152 11.7392L2.59766 9.9454Z" fill="#D8D8D8"/>
<path d="M3.34949 12.8324L2.28778 14.2865L2.51455 11.7392L3.34949 12.8324Z" fill="#BFBFBF"/>
<path d="M15.4414 5.08411L17.2556 6.63376L14.8333 6.1349L15.4414 5.08411Z" fill="#CCCCCC"/>
<path d="M12.6986 3.59814L15.4405 5.08412L14.8323 6.13491L12.6986 3.59814Z" fill="#D8D8D8"/>
<path d="M5.2981 9.42531L5.35994 7.81197L7.4112 7.03714L5.2981 9.42531Z" fill="#F2F2F2"/>
<path d="M5.29819 9.42526L2.59753 9.94535L5.36003 7.81192L5.29819 9.42526Z" fill="#D8D8D8"/>
<path d="M10.2249 5.05228L12.6987 3.59814L12.2864 5.98631L10.2249 5.05228Z" fill="#F2F2F2"/>
<path d="M12.2864 5.98631L12.6987 3.59814L14.8324 6.13491L12.2864 5.98631Z" fill="#E5E5E5"/>
<path d="M10.2256 5.05228L12.2872 5.98632L9.93701 6.10307L10.2256 5.05228Z" fill="#E5E5E5"/>
<path d="M22.0897 11.1661L22.9968 14.1486L21.5228 12.9917L22.0897 11.1661Z" fill="#E5E5E5"/>
<path d="M21.5228 12.9916L22.9968 14.1485L23.6462 16.2926L21.5228 12.9916Z" fill="#CCCCCC"/>
<path d="M21.8419 20.6444L21.6563 18.235L22.9242 18.4154L21.8419 20.6444Z" fill="#D8D8D8"/>
<path d="M22.9242 18.4155L21.6563 18.235L23.6457 16.2926L22.9242 18.4155Z" fill="#F2F2F2"/>
<path d="M19.4918 7.65274L21.2235 8.93705L21.4503 9.15994L19.4918 7.65274Z" fill="#E5E5E5"/>
<path d="M21.4503 9.15994L22.0893 11.166L21.5224 12.9916L21.4503 9.15994Z" fill="#D8D8D8"/>
<path d="M8.73026 24.0197L8.00871 26.8112L6.64807 23.6801L8.73026 24.0197Z" fill="#A5A5A5"/>
<path d="M8.73058 24.0197L10.5035 25.7392L8.00903 26.8112L8.73058 24.0197Z" fill="#BFBFBF"/>
<path d="M17.2551 6.63379L19.4919 7.65274L18.6879 8.73538L17.2551 6.63379Z" fill="#E5E5E5"/>
<path d="M18.6875 8.73538L19.4915 7.65274L21.45 9.15994L18.6875 8.73538Z" fill="#F2F2F2"/>
<path d="M13.451 26.238L14.5128 24.699L16.1517 25.4844L13.451 26.238Z" fill="#D8D8D8"/>
<path d="M13.4514 26.238L12.4412 26.5883L14.5131 24.699L13.4514 26.238Z" fill="#E5E5E5"/>
<path d="M4.11251 18.2032L3.39096 19.9864L2.54572 17.0144L4.11251 18.2032Z" fill="#BFBFBF"/>
<path d="M4.86526 11.8347L3.35001 12.8324L2.59753 9.9454L4.86526 11.8347Z" fill="#CCCCCC"/>
<path d="M5.29819 9.42532L4.86526 11.8347L2.59753 9.94542L5.29819 9.42532Z" fill="#E5E5E5"/>
<path d="M18.3271 24.2426L18.6363 22.0243L20.3165 22.5868L18.3271 24.2426Z" fill="#D8D8D8"/>
<path d="M21.522 12.9916L23.6455 16.2926L20.7283 15.0295L21.522 12.9916Z" fill="#F2F2F2"/>
<path d="M20.7283 15.0295L23.6455 16.2926L21.656 18.235L20.7283 15.0295Z" fill="#D8D8D8"/>
<path d="M7.41144 7.03716L9.93686 6.10312L9.26685 7.98181L7.41144 7.03716Z" fill="#D8D8D8"/>
<path d="M21.5223 12.9916L20.7286 15.0295L19.6978 11.6224L21.5223 12.9916Z" fill="#CCCCCC"/>
<path d="M21.4502 9.15994L21.5223 12.9916L19.6978 11.6224L21.4502 9.15994Z" fill="#F2F2F2"/>
<path d="M18.6875 8.73541L21.45 9.15998L19.6977 11.6224L18.6875 8.73541Z" fill="#D8D8D8"/>
<path d="M4.21576 21.759L6.64841 23.6801L4.84454 22.8947L4.21576 21.759Z" fill="#A5A5A5"/>
<path d="M4.11236 18.2032L4.21544 21.7589L3.39081 19.9864L4.11236 18.2032Z" fill="#A5A5A5"/>
<path d="M11.462 24.1683L12.4413 26.5883L10.5034 25.7392L11.462 24.1683Z" fill="#B2B2B2"/>
<path d="M11.4619 24.1683L10.5033 25.7392L8.73035 24.0197L11.4619 24.1683Z" fill="#999999"/>
<path d="M11.462 24.1683L14.5132 24.699L12.4413 26.5883L11.462 24.1683Z" fill="#D8D8D8"/>
<path d="M2.46332 15.2206L4.11257 18.2031L2.54578 17.0143L2.46332 15.2206Z" fill="#B2B2B2"/>
<path d="M3.34949 12.8324L2.46302 15.2206L2.28778 14.2865L3.34949 12.8324Z" fill="#F2F2F2"/>
<path d="M2.46302 15.2206L2.54548 17.0143L2.28778 14.2865L2.46302 15.2206Z" fill="#A5A5A5"/>
<path d="M6.4115 7.65276L7.41136 7.03714L9.26677 7.9818L6.4115 7.65276Z" fill="#E5E5E5"/>
<path d="M20.3165 22.5867L18.6363 22.0242L21.1926 20.7505L20.3165 22.5867Z" fill="#CCCCCC"/>
<path d="M21.8423 20.6444L21.1929 20.7505L21.6568 18.235L21.8423 20.6444Z" fill="#CCCCCC"/>
<path d="M20.3161 22.5868L21.1923 20.7506L21.8417 20.6445L20.3161 22.5868Z" fill="#D8D8D8"/>
<path d="M12.2864 5.9863L14.8324 6.13489L14.0387 7.62087L12.2864 5.9863Z" fill="#D8D8D8"/>
<path d="M7.54519 21.8863L6.64841 23.6801L4.21576 21.759L7.54519 21.8863Z" fill="#BFBFBF"/>
<path d="M8.73026 24.0197L6.64807 23.6801L7.54485 21.8863L8.73026 24.0197Z" fill="#999999"/>
<path d="M7.08075 10.4549L4.86456 11.8347L5.29749 9.42532L7.08075 10.4549Z" fill="#D8D8D8"/>
<path d="M6.4115 7.65274L9.26677 7.98178L7.08151 10.4549L6.4115 7.65274Z" fill="#D8D8D8"/>
<path d="M6.41134 7.65274L7.08135 10.4549L5.2981 9.42529L6.41134 7.65274Z" fill="#E5E5E5"/>
<path d="M16.1521 25.4844L14.5132 24.699L17.1623 24.4442L16.1521 25.4844Z" fill="#BFBFBF"/>
<path d="M18.3267 24.2426L17.1619 24.4443L18.636 22.0243L18.3267 24.2426Z" fill="#BFBFBF"/>
<path d="M16.1522 25.4844L17.1623 24.4442L18.3271 24.2425L16.1522 25.4844Z" fill="#E5E5E5"/>
<path d="M5.22539 14.0743L3.34937 12.8324L4.86462 11.8347L5.22539 14.0743Z" fill="#BFBFBF"/>
<path d="M5.22582 14.0742L2.46332 15.2206L3.34979 12.8324L5.22582 14.0742Z" fill="#E5E5E5"/>
<path d="M14.0388 7.62092L14.8325 6.13495L16.9559 7.19636L14.0388 7.62092Z" fill="#F2F2F2"/>
<path d="M14.8333 6.13495L17.2556 6.63381L16.9567 7.19636L14.8333 6.13495Z" fill="#D8D8D8"/>
<path d="M16.9558 7.19633L17.2547 6.63379L18.6875 8.73538L16.9558 7.19633Z" fill="#CCCCCC"/>
<path d="M20.7288 15.0295L21.6565 18.235L19.4094 17.1629L20.7288 15.0295Z" fill="#E5E5E5"/>
<path d="M19.4094 17.1631L21.6565 18.2351L21.1927 20.7506L19.4094 17.1631Z" fill="#F2F2F2"/>
<path d="M6.432 19.3601L4.21581 21.7589L4.11273 18.2032L6.432 19.3601Z" fill="#BFBFBF"/>
<path d="M6.43194 19.3601L7.54519 21.8863L4.21576 21.7589L6.43194 19.3601Z" fill="#A5A5A5"/>
<path d="M18.688 8.73541L19.6982 11.6224L17.3583 10.6459L18.688 8.73541Z" fill="#E5E5E5"/>
<path d="M16.9558 7.19635L18.6875 8.73539L17.3578 10.6459L16.9558 7.19635Z" fill="#F2F2F2"/>
<path d="M13.6369 22.6823L17.1622 24.4442L14.5131 24.699L13.6369 22.6823Z" fill="#A5A5A5"/>
<path d="M13.637 22.6823L14.5132 24.699L11.462 24.1683L13.637 22.6823Z" fill="#BFBFBF"/>
<path d="M6.432 19.3601L4.11273 18.2032L5.71045 16.7172L6.432 19.3601Z" fill="#999999"/>
<path d="M5.22582 14.0742L5.71029 16.7172L2.46332 15.2206L5.22582 14.0742Z" fill="#B2B2B2"/>
<path d="M5.71029 16.7171L4.11257 18.2031L2.46332 15.2206L5.71029 16.7171Z" fill="#A5A5A5"/>
<path d="M11.5651 6.64437L12.2866 5.9863L14.0389 7.62087L11.5651 6.64437Z" fill="#CCCCCC"/>
<path d="M9.93701 6.10305L12.2872 5.9863L11.5657 6.64437L9.93701 6.10305Z" fill="#D8D8D8"/>
<path d="M9.26691 7.98181L9.93692 6.10312L11.5656 6.64444L9.26691 7.98181Z" fill="#F2F2F2"/>
<path d="M19.4093 17.1631L21.1925 20.7506L17.76 19.201L19.4093 17.1631Z" fill="#E5E5E5"/>
<path d="M17.76 19.2009L21.1925 20.7505L18.6362 22.0242L17.76 19.2009Z" fill="#CCCCCC"/>
<path d="M15.7607 21.1433L18.6366 22.0243L17.1625 24.4443L15.7607 21.1433Z" fill="#CCCCCC"/>
<path d="M15.7603 21.1433L17.1622 24.4443L13.6369 22.6824L15.7603 21.1433Z" fill="#B2B2B2"/>
<path d="M17.7604 19.2009L18.6366 22.0242L15.7607 21.1432L17.7604 19.2009Z" fill="#BFBFBF"/>
<path d="M9.26691 7.98182L11.5656 6.64444L9.65861 10.1577L9.26691 7.98182Z" fill="#E5E5E5"/>
<path d="M9.26686 7.98181L9.65856 10.1577L7.0816 10.4549L9.26686 7.98181Z" fill="#CCCCCC"/>
<path d="M14.0388 7.62091L16.9559 7.19635L14.8222 9.99847L14.0388 7.62091Z" fill="#D8D8D8"/>
<path d="M16.956 7.19635L17.358 10.6459L14.8223 9.99847L16.956 7.19635Z" fill="#E5E5E5"/>
<path d="M11.5647 6.64444L12.1523 9.76498L9.65778 10.1577L11.5647 6.64444Z" fill="#BFBFBF"/>
<path d="M11.5651 6.64444L14.0389 7.62093L12.1526 9.76498L11.5651 6.64444Z" fill="#E5E5E5"/>
<path d="M14.0392 7.62094L14.8226 9.9985L12.1528 9.76499L14.0392 7.62094Z" fill="#CCCCCC"/>
<path d="M9.16316 20.0925L7.54483 21.8863L6.43158 19.3601L9.16316 20.0925Z" fill="#999999"/>
<path d="M15.7605 21.1433L13.6371 22.6823L12.3589 20.5064L15.7605 21.1433Z" fill="#A5A5A5"/>
<path d="M7.61755 15.072L5.7106 16.7172L5.22614 14.0742L7.61755 15.072Z" fill="#999999"/>
<path d="M9.94667 23.0644L11.4619 24.1683L8.73035 24.0197L9.94667 23.0644Z" fill="#BFBFBF"/>
<path d="M9.16388 20.0924L12.3593 20.5064L9.94728 23.0644L9.16388 20.0924Z" fill="#BFBFBF"/>
<path d="M12.3582 20.5064L13.6364 22.6823L9.94617 23.0644L12.3582 20.5064Z" fill="#999999"/>
<path d="M9.94617 23.0644L13.6364 22.6823L11.4614 24.1683L9.94617 23.0644Z" fill="#B2B2B2"/>
<path d="M9.16332 20.0924L9.94671 23.0644L7.54498 21.8862L9.16332 20.0924Z" fill="#A5A5A5"/>
<path d="M9.94671 23.0645L8.73039 24.0197L7.54498 21.8863L9.94671 23.0645Z" fill="#B2B2B2"/>
<path d="M19.4097 17.163L17.7604 19.2009L16.5235 15.9742L19.4097 17.163Z" fill="#CCCCCC"/>
<path d="M12.1523 9.76495L9.74024 12.5458L9.65778 10.1577L12.1523 9.76495Z" fill="#B2B2B2"/>
<path d="M17.358 10.646L15.4614 12.8219L14.8223 9.9985L17.358 10.646Z" fill="#D8D8D8"/>
<path d="M19.6977 11.6224L20.7285 15.0295L19.0277 13.448L19.6977 11.6224Z" fill="#E5E5E5"/>
<path d="M17.358 10.6459L19.0279 13.448L15.4614 12.8218L17.358 10.6459Z" fill="#E5E5E5"/>
<path d="M17.3583 10.6459L19.6982 11.6224L19.0281 13.448L17.3583 10.6459Z" fill="#D8D8D8"/>
<path d="M19.0283 13.4481L19.4097 17.1631L16.5235 15.9743L19.0283 13.4481Z" fill="#F2F2F2"/>
<path d="M19.0277 13.4481L20.7285 15.0296L19.4091 17.1631L19.0277 13.4481Z" fill="#D8D8D8"/>
<path d="M15.4614 12.8218L19.0279 13.4481L16.5231 15.9742L15.4614 12.8218Z" fill="#D8D8D8"/>
<path d="M6.53461 12.3867L9.74035 12.5459L7.61693 15.072L6.53461 12.3867Z" fill="#BFBFBF"/>
<path d="M9.65789 10.1577L9.74035 12.5459L6.53461 12.3866L9.65789 10.1577Z" fill="#D8D8D8"/>
<path d="M6.53523 12.3867L7.61755 15.072L5.22614 14.0743L6.53523 12.3867Z" fill="#A5A5A5"/>
<path d="M6.53443 12.3867L5.22534 14.0743L4.86456 11.8347L6.53443 12.3867Z" fill="#B2B2B2"/>
<path d="M7.08075 10.4549L6.53443 12.3866L4.86456 11.8347L7.08075 10.4549Z" fill="#F2F2F2"/>
<path d="M7.08092 10.4549L9.65788 10.1577L6.53461 12.3866L7.08092 10.4549Z" fill="#E5E5E5"/>
<path d="M11.3079 17.8741L12.3593 20.5064L9.16388 20.0925L11.3079 17.8741Z" fill="#A5A5A5"/>
<path d="M9.74036 12.5459L10.3794 15.21L7.61694 15.072L9.74036 12.5459Z" fill="#999999"/>
<path d="M13.4205 15.2737L11.3074 17.8742L10.3797 15.21L13.4205 15.2737Z" fill="#999999"/>
<path d="M15.4615 12.8218L16.5232 15.9742L13.4205 15.2737L15.4615 12.8218Z" fill="#CCCCCC"/>
<path d="M7.80237 17.959L11.307 17.8741L9.163 20.0925L7.80237 17.959Z" fill="#BFBFBF"/>
<path d="M7.80252 17.9591L9.16316 20.0925L6.43158 19.3601L7.80252 17.9591Z" fill="#A5A5A5"/>
<path d="M7.61728 15.0721L7.80282 17.9591L5.71033 16.7172L7.61728 15.0721Z" fill="#A5A5A5"/>
<path d="M7.80282 17.9591L6.43188 19.3601L5.71033 16.7172L7.80282 17.9591Z" fill="#BFBFBF"/>
<path d="M10.3793 15.21L11.307 17.8742L7.80237 17.9591L10.3793 15.21Z" fill="#A5A5A5"/>
<path d="M7.61694 15.0721L10.3794 15.21L7.80248 17.9591L7.61694 15.0721Z" fill="#B2B2B2"/>
<path d="M12.4206 11.8771L15.4614 12.8218L13.4205 15.2736L12.4206 11.8771Z" fill="#D8D8D8"/>
<path d="M14.8223 9.9985L15.4614 12.8219L12.4206 11.8772L14.8223 9.9985Z" fill="#F2F2F2"/>
<path d="M12.1528 9.76495L14.8226 9.99846L12.4208 11.8772L12.1528 9.76495Z" fill="#BFBFBF"/>
<path d="M12.4207 11.8771L13.4205 15.2736L10.3797 15.2099L12.4207 11.8771Z" fill="#A5A5A5"/>
<path d="M12.1522 9.76495L12.4202 11.8772L9.74017 12.5458L12.1522 9.76495Z" fill="#F2F2F2"/>
<path d="M9.74017 12.5458L12.4202 11.8771L10.3793 15.2099L9.74017 12.5458Z" fill="#B2B2B2"/>
<path d="M16.5231 15.9742L17.7601 19.2009L14.7296 18.6596L16.5231 15.9742Z" fill="#F2F2F2"/>
<path d="M14.7296 18.6595L17.7601 19.2009L15.7603 21.1432L14.7296 18.6595Z" fill="#D8D8D8"/>
<path d="M13.4208 15.2737L14.7299 18.6595L11.3077 17.8741L13.4208 15.2737Z" fill="#B2B2B2"/>
<path d="M13.4205 15.2737L16.5232 15.9742L14.7296 18.6595L13.4205 15.2737Z" fill="#D8D8D8"/>
<path d="M14.7297 18.6595L15.7605 21.1432L12.3589 20.5064L14.7297 18.6595Z" fill="#BFBFBF"/>
<path d="M11.3077 17.8741L14.7299 18.6596L12.3591 20.5064L11.3077 17.8741Z" fill="#999999"/>
<path d="M2.59753 3.10992L4.98896 4.16072L5.87543 6.36845L2.59753 3.10992Z" fill="#727272"/>
<path d="M5.35971 3.23726L5.8751 6.36841L4.98863 4.16068L4.164 2.2926L5.35971 3.23726Z" fill="#A5A5A5"/>
<path d="M0.845093 2.2926L2.59743 3.10989L4.98885 4.16068L4.16422 2.2926H0.845093Z" fill="#8C8C8C"/>
<path d="M2.73143 0.955292L4.16422 2.29267H0.845093L2.73143 0.955292Z" fill="#B2B2B2"/>
<path d="M0 0.955292H2.73158L0.845243 2.29267L0 0.955292Z" fill="#BFBFBF"/>
<path d="M2.73158 0.955268L4.57668 1.09325L2.90681 0L0 0.955268H2.73158Z" fill="#8C8C8C"/>
<path d="M5.45326 1.09325H4.5771L2.90723 0L5.45326 1.09325Z" fill="#A5A5A5"/>
<path d="M5.36013 3.23732L4.57673 1.09327L2.73163 0.955292L4.16442 2.29267L5.36013 3.23732Z" fill="#727272"/>
<path d="M6.38077 6.20919L5.36029 3.23724L5.87568 6.3684L6.38077 6.20919Z" fill="#727272"/>
<path d="M5.45289 1.09323L6.38059 6.20922L5.36012 3.23728L4.57672 1.09323H5.45289Z" fill="#8C8C8C"/>
</g>
</svg>
