<svg width="96" height="119" viewBox="0 0 96 119" fill="none" xmlns="http://www.w3.org/2000/svg">
<path d="M9.56355 48.7968C9.58093 48.7968 9.58961 48.8229 9.58961 48.875C9.58961 48.9272 9.58093 48.9532 9.56355 48.9532H7.80391C7.68226 48.9532 7.57799 48.9228 7.49109 48.862C7.40419 48.7925 7.25213 48.6144 7.03489 48.3276C6.81765 48.0408 6.444 47.5195 5.91394 46.7635L5.75753 46.5419C5.38388 46.0118 5.11015 45.6425 4.93636 45.434C4.76257 45.2167 4.58009 45.0647 4.38892 44.9778C4.20644 44.8909 3.96313 44.8474 3.659 44.8474H3.54169V47.8975C3.54169 48.1582 3.56776 48.3537 3.6199 48.484C3.67203 48.6057 3.77196 48.6882 3.91969 48.7317C4.0761 48.7751 4.31506 48.7968 4.63657 48.7968C4.65395 48.7968 4.66264 48.8229 4.66264 48.875C4.66264 48.9272 4.65395 48.9532 4.63657 48.9532C4.34982 48.9532 4.12389 48.9489 3.95879 48.9402L2.98122 48.9272L2.06881 48.9402C1.9124 48.9489 1.69082 48.9532 1.40406 48.9532C1.38668 48.9532 1.378 48.9272 1.378 48.875C1.378 48.8229 1.38668 48.7968 1.40406 48.7968C1.72558 48.7968 1.96019 48.7751 2.10792 48.7317C2.25564 48.6882 2.35557 48.6057 2.40771 48.484C2.46853 48.3537 2.49895 48.1582 2.49895 47.8975V41.8626C2.49895 41.6019 2.47288 41.4107 2.42074 41.2891C2.3686 41.1674 2.26867 41.0849 2.12095 41.0414C1.97323 40.9893 1.73861 40.9632 1.4171 40.9632C1.39972 40.9632 1.39103 40.9371 1.39103 40.885C1.39103 40.8329 1.39972 40.8068 1.4171 40.8068L2.08185 40.8198C2.44681 40.8372 2.7466 40.8459 2.98122 40.8459C3.2419 40.8459 3.57211 40.8372 3.97182 40.8198L4.63657 40.8068C4.65395 40.8068 4.66264 40.8329 4.66264 40.885C4.66264 40.9371 4.65395 40.9632 4.63657 40.9632C4.32375 40.9632 4.08913 40.9893 3.93272 41.0414C3.785 41.0936 3.68072 41.1848 3.6199 41.3151C3.56776 41.4368 3.54169 41.628 3.54169 41.8886V44.6389C4.01093 44.6215 4.30203 44.6128 4.41499 44.6128H4.58444L6.09642 42.5143C6.47007 42.0016 6.65689 41.6149 6.65689 41.3542C6.65689 41.0936 6.45269 40.9632 6.04428 40.9632C6.0269 40.9632 6.01821 40.9371 6.01821 40.885C6.01821 40.8329 6.0269 40.8068 6.04428 40.8068L6.61779 40.8198C6.96537 40.8372 7.28254 40.8459 7.5693 40.8459C7.88212 40.8459 8.20363 40.8372 8.53383 40.8198L9.02914 40.8068C9.05521 40.8068 9.06824 40.8329 9.06824 40.885C9.06824 40.9371 9.05521 40.9632 9.02914 40.9632C8.60335 40.9632 8.19494 41.0849 7.80391 41.3282C7.41288 41.5715 7.0262 41.9364 6.64386 42.4231L4.89726 44.6389C5.15795 44.665 5.37519 44.7388 5.54898 44.8605C5.73146 44.9734 5.90959 45.1385 6.08338 45.3558C6.25717 45.5643 6.54393 45.9467 6.94365 46.5028C7.36075 47.0937 7.69095 47.5369 7.93426 47.8323C8.17756 48.1277 8.42956 48.3624 8.69025 48.5361C8.95093 48.7013 9.24203 48.7881 9.56355 48.7968ZM10.3867 49.1097C10.1782 49.1097 10.0131 49.0619 9.89144 48.9663C9.76979 48.8794 9.70896 48.749 9.70896 48.5753C9.70896 48.2537 9.90447 48.093 10.2955 48.093H10.5692C11.0558 48.093 11.4729 47.7845 11.8205 47.1675C12.1768 46.5506 12.4418 45.7816 12.6156 44.8605C12.7981 43.9394 12.8893 43.0357 12.8893 42.1493C12.8893 41.7322 12.8024 41.4324 12.6286 41.25C12.4635 41.0588 12.1247 40.9632 11.612 40.9632C11.5859 40.9632 11.5729 40.9371 11.5729 40.885C11.5729 40.8329 11.5859 40.8068 11.612 40.8068H17.9597C17.9771 40.8068 17.9858 40.8329 17.9858 40.885C17.9858 40.9371 17.9771 40.9632 17.9597 40.9632C17.6382 40.9632 17.3992 40.9893 17.2428 41.0414C17.0951 41.0849 16.9908 41.1674 16.93 41.2891C16.8778 41.4107 16.8518 41.6019 16.8518 41.8626V47.8975C16.8518 48.1582 16.8778 48.3537 16.93 48.484C16.9908 48.6057 17.0951 48.6882 17.2428 48.7317C17.3992 48.7751 17.6382 48.7968 17.9597 48.7968C17.9771 48.7968 17.9858 48.8229 17.9858 48.875C17.9858 48.9272 17.9771 48.9532 17.9597 48.9532C17.6816 48.9532 17.46 48.9489 17.2949 48.9402L16.3695 48.9272L15.405 48.9402C15.2485 48.9489 15.0226 48.9532 14.7272 48.9532C14.7098 48.9532 14.7011 48.9272 14.7011 48.875C14.7011 48.8229 14.7098 48.7968 14.7272 48.7968C15.0574 48.7968 15.2963 48.7751 15.4441 48.7317C15.5918 48.6882 15.6917 48.6057 15.7438 48.484C15.796 48.3624 15.8221 48.1668 15.8221 47.8975V41.9538C15.8221 41.6584 15.8047 41.4629 15.7699 41.3673C15.7438 41.2717 15.6743 41.2109 15.5614 41.1848C15.4571 41.1587 15.2399 41.1457 14.9097 41.1457H14.1928C13.9321 41.1457 13.7366 41.1674 13.6062 41.2109C13.4759 41.2543 13.3803 41.3456 13.3195 41.4846C13.2586 41.6236 13.2282 41.8452 13.2282 42.1493C13.2282 43.0444 13.1413 44.0263 12.9675 45.0951C12.8024 46.1639 12.507 47.1024 12.0812 47.9105C11.6554 48.7099 11.0906 49.1097 10.3867 49.1097ZM26.4943 40.8068C26.5204 40.8068 26.5334 40.8329 26.5334 40.885C26.5334 40.9371 26.5204 40.9632 26.4943 40.9632C26.2597 40.9632 26.0294 41.0588 25.8035 41.25C25.5776 41.4324 25.3907 41.6844 25.243 42.006L22.4797 48.1191C22.3233 48.4666 22.1452 48.7186 21.9453 48.875C21.7542 49.0315 21.5065 49.1097 21.2024 49.1097C20.9156 49.1097 20.6767 49.0445 20.4855 48.9141C20.2943 48.7838 20.1987 48.61 20.1987 48.3928C20.1987 48.2364 20.2509 48.1017 20.3551 47.9887C20.4594 47.8671 20.6028 47.8062 20.7853 47.8062C20.9504 47.8062 21.072 47.8497 21.1502 47.9366C21.2371 48.0235 21.3153 48.1451 21.3849 48.3015C21.4283 48.4058 21.4718 48.4884 21.5152 48.5492C21.5586 48.6013 21.6151 48.6274 21.6846 48.6274C21.7715 48.6274 21.8541 48.5839 21.9323 48.497C22.0105 48.4102 22.0931 48.2668 22.1799 48.0669L22.5449 47.2588L19.6904 41.8886C19.4992 41.5411 19.3254 41.3021 19.169 41.1718C19.0213 41.0327 18.8214 40.9632 18.5694 40.9632C18.5521 40.9632 18.5434 40.9371 18.5434 40.885C18.5434 40.8329 18.5521 40.8068 18.5694 40.8068L19.0387 40.8198C19.2994 40.8372 19.5644 40.8459 19.8338 40.8459C20.2422 40.8459 20.6376 40.8372 21.0199 40.8198C21.1502 40.8111 21.311 40.8068 21.5022 40.8068C21.5282 40.8068 21.5413 40.8329 21.5413 40.885C21.5413 40.9371 21.5282 40.9632 21.5022 40.9632C20.9373 40.9632 20.6549 41.1066 20.6549 41.3933C20.6549 41.4889 20.694 41.6106 20.7722 41.7583L23.0663 46.0857L24.9172 41.9669C24.9867 41.8278 25.0214 41.6844 25.0214 41.5367C25.0214 41.1544 24.6956 40.9632 24.0439 40.9632C24.0178 40.9632 24.0048 40.9371 24.0048 40.885C24.0048 40.8329 24.0178 40.8068 24.0439 40.8068L24.5913 40.8198C24.9041 40.8372 25.1822 40.8459 25.4255 40.8459C25.5819 40.8459 25.7731 40.8372 25.999 40.8198L26.4943 40.8068ZM30.1597 44.3521C31.0808 44.3521 31.8194 44.5259 32.3755 44.8735C32.9317 45.2211 33.2097 45.7729 33.2097 46.5289C33.2097 47.0068 33.0924 47.4326 32.8578 47.8062C32.6319 48.1799 32.3104 48.4753 31.8933 48.6926C31.4762 48.9011 31.0026 49.0054 30.4725 49.0054C30.2379 49.0054 29.9642 48.9924 29.6514 48.9663C29.521 48.9576 29.3646 48.9489 29.1821 48.9402C28.9996 48.9315 28.7998 48.9272 28.5825 48.9272L27.6701 48.9402C27.505 48.9489 27.2835 48.9532 27.0054 48.9532C26.9793 48.9532 26.9663 48.9272 26.9663 48.875C26.9663 48.8229 26.9793 48.7968 27.0054 48.7968C27.3182 48.7968 27.5485 48.7751 27.6962 48.7317C27.8439 48.6882 27.9439 48.6057 27.996 48.484C28.0481 48.3537 28.0742 48.1582 28.0742 47.8975V41.8626C28.0742 41.6019 28.0481 41.4107 27.996 41.2891C27.9439 41.1674 27.8439 41.0849 27.6962 41.0414C27.5572 40.9893 27.3313 40.9632 27.0184 40.9632C27.0011 40.9632 26.9924 40.9371 26.9924 40.885C26.9924 40.8329 27.0011 40.8068 27.0184 40.8068H32.2582C32.3364 40.8068 32.3842 40.8198 32.4016 40.8459C32.4277 40.872 32.4407 40.9285 32.4407 41.0153L32.5971 42.775C32.5971 42.801 32.571 42.8184 32.5189 42.8271C32.4755 42.8271 32.4494 42.8141 32.4407 42.788C32.3364 42.2406 32.1322 41.8191 31.8281 41.5237C31.5326 41.2282 31.1677 41.0805 30.7332 41.0805H30.0554C29.786 41.0805 29.5862 41.1066 29.4558 41.1587C29.3255 41.2022 29.2343 41.2847 29.1821 41.4064C29.13 41.528 29.1039 41.7062 29.1039 41.9408V44.4173C29.4949 44.3739 29.8469 44.3521 30.1597 44.3521ZM30.2249 48.7447C30.8766 48.7447 31.3502 48.5883 31.6456 48.2755C31.9497 47.9626 32.1018 47.4934 32.1018 46.8678C32.1018 46.0857 31.902 45.5209 31.5022 45.1733C31.1112 44.8257 30.5464 44.6519 29.8078 44.6519C29.5558 44.6519 29.3212 44.6693 29.1039 44.7041V47.8975C29.1039 48.1842 29.1778 48.3971 29.3255 48.5361C29.4819 48.6752 29.7817 48.7447 30.2249 48.7447ZM43.3284 48.7968C43.3545 48.7968 43.3675 48.8229 43.3675 48.875C43.3675 48.9272 43.3545 48.9532 43.3284 48.9532C43.0504 48.9532 42.8288 48.9489 42.6637 48.9402L41.7252 48.9272L40.6955 48.9402C40.5478 48.9489 40.3436 48.9532 40.0829 48.9532C40.0568 48.9532 40.0438 48.9272 40.0438 48.875C40.0438 48.8229 40.0568 48.7968 40.0829 48.7968C40.4131 48.7968 40.6564 48.7751 40.8128 48.7317C40.9692 48.6882 41.0735 48.6057 41.1256 48.484C41.1778 48.3537 41.2038 48.1582 41.2038 47.8975V44.8605H36.4593V47.8975C36.4593 48.1582 36.4854 48.3537 36.5376 48.484C36.5897 48.6057 36.694 48.6882 36.8504 48.7317C37.0068 48.7751 37.2501 48.7968 37.5803 48.7968C37.5977 48.7968 37.6064 48.8229 37.6064 48.875C37.6064 48.9272 37.5977 48.9532 37.5803 48.9532C37.3022 48.9532 37.0806 48.9489 36.9155 48.9402L35.9119 48.9272L34.9865 48.9402C34.8214 48.9489 34.5954 48.9532 34.3087 48.9532C34.2913 48.9532 34.2826 48.9272 34.2826 48.875C34.2826 48.8229 34.2913 48.7968 34.3087 48.7968C34.6302 48.7968 34.8648 48.7751 35.0125 48.7317C35.1689 48.6882 35.2732 48.6057 35.3254 48.484C35.3862 48.3537 35.4166 48.1582 35.4166 47.8975V41.8626C35.4166 41.6019 35.3905 41.4107 35.3384 41.2891C35.2863 41.1674 35.1863 41.0849 35.0386 41.0414C34.8909 40.9893 34.6563 40.9632 34.3348 40.9632C34.3087 40.9632 34.2956 40.9371 34.2956 40.885C34.2956 40.8329 34.3087 40.8068 34.3348 40.8068L34.9995 40.8198C35.3645 40.8372 35.6686 40.8459 35.9119 40.8459C36.19 40.8459 36.5289 40.8372 36.9286 40.8198L37.5803 40.8068C37.5977 40.8068 37.6064 40.8329 37.6064 40.885C37.6064 40.9371 37.5977 40.9632 37.5803 40.9632C37.2588 40.9632 37.0198 40.9893 36.8634 41.0414C36.707 41.0936 36.5984 41.1848 36.5376 41.3151C36.4854 41.4368 36.4593 41.628 36.4593 41.8886V44.5607H41.2038V41.8886C41.2038 41.628 41.1734 41.4368 41.1126 41.3151C41.0605 41.1848 40.9562 41.0936 40.7998 41.0414C40.6521 40.9893 40.4131 40.9632 40.0829 40.9632C40.0568 40.9632 40.0438 40.9371 40.0438 40.885C40.0438 40.8329 40.0568 40.8068 40.0829 40.8068L40.6955 40.8198C41.0952 40.8372 41.4385 40.8459 41.7252 40.8459C41.9685 40.8459 42.2813 40.8372 42.6637 40.8198L43.3284 40.8068C43.3545 40.8068 43.3675 40.8329 43.3675 40.885C43.3675 40.9371 43.3545 40.9632 43.3284 40.9632C43.0069 40.9632 42.7723 40.9893 42.6246 41.0414C42.4769 41.0849 42.3726 41.1674 42.3118 41.2891C42.2596 41.4107 42.2335 41.6019 42.2335 41.8626V47.8975C42.2335 48.1582 42.2596 48.3537 42.3118 48.484C42.3726 48.6057 42.4769 48.6882 42.6246 48.7317C42.7723 48.7751 43.0069 48.7968 43.3284 48.7968ZM47.874 44.3521C49.6641 44.3521 50.5591 45.0647 50.5591 46.4898C50.5591 46.9851 50.4418 47.4239 50.2072 47.8062C49.9813 48.1886 49.6598 48.484 49.2427 48.6926C48.8256 48.9011 48.352 49.0054 47.8219 49.0054C47.6047 49.0054 47.344 48.9924 47.0399 48.9663C46.9182 48.9576 46.7574 48.9489 46.5576 48.9402C46.3664 48.9315 46.1448 48.9272 45.8928 48.9272L45.0456 48.9402C44.8718 48.9489 44.6415 48.9532 44.3548 48.9532C44.3287 48.9532 44.3157 48.9272 44.3157 48.875C44.3157 48.8229 44.3287 48.7968 44.3548 48.7968C44.6763 48.7881 44.9066 48.7664 45.0456 48.7317C45.1846 48.6882 45.2802 48.6057 45.3324 48.484C45.3932 48.3624 45.4236 48.1668 45.4236 47.8975V41.8626C45.4236 41.5932 45.3975 41.402 45.3454 41.2891C45.2933 41.1674 45.1977 41.0849 45.0586 41.0414C44.9196 40.998 44.6893 40.9719 44.3678 40.9632C44.3504 40.9632 44.3417 40.9371 44.3417 40.885C44.3417 40.8329 44.3504 40.8068 44.3678 40.8068L44.9935 40.8198C45.3758 40.8372 45.6843 40.8459 45.9189 40.8459C46.1796 40.8459 46.5098 40.8372 46.9095 40.8198L47.5873 40.8068C47.6047 40.8068 47.6134 40.8329 47.6134 40.885C47.6134 40.9371 47.6047 40.9632 47.5873 40.9632C47.2571 40.9719 47.0138 40.998 46.8574 41.0414C46.7096 41.0849 46.6054 41.1718 46.5445 41.3021C46.4837 41.4238 46.4533 41.6193 46.4533 41.8886V44.4825C46.9747 44.3956 47.4483 44.3521 47.874 44.3521ZM47.5743 48.7447C48.2434 48.7447 48.7213 48.5883 49.008 48.2755C49.3035 47.9539 49.4512 47.4543 49.4512 46.7765C49.4512 46.0205 49.2904 45.4774 48.9689 45.1472C48.6474 44.817 48.1608 44.6519 47.5091 44.6519C47.1963 44.6519 46.8443 44.6867 46.4533 44.7562V47.8975C46.4533 48.1842 46.5272 48.3971 46.6749 48.5361C46.8226 48.6752 47.1224 48.7447 47.5743 48.7447ZM53.3745 47.8975C53.3745 48.1582 53.4006 48.3537 53.4527 48.484C53.5049 48.6057 53.6005 48.6882 53.7395 48.7317C53.8872 48.7751 54.1175 48.7968 54.4303 48.7968C54.4477 48.7968 54.4564 48.8229 54.4564 48.875C54.4564 48.9272 54.4477 48.9532 54.4303 48.9532C54.1522 48.9532 53.935 48.9489 53.7786 48.9402L52.8401 48.9272L51.9277 48.9402C51.7626 48.9489 51.5367 48.9532 51.2499 48.9532C51.2326 48.9532 51.2239 48.9272 51.2239 48.875C51.2239 48.8229 51.2326 48.7968 51.2499 48.7968C51.5628 48.7968 51.793 48.7751 51.9408 48.7317C52.0885 48.6882 52.1884 48.6057 52.2405 48.484C52.2927 48.3537 52.3188 48.1582 52.3188 47.8975V41.8626C52.3188 41.6019 52.2927 41.4107 52.2405 41.2891C52.1884 41.1674 52.0885 41.0849 51.9408 41.0414C51.793 40.9893 51.5628 40.9632 51.2499 40.9632C51.2326 40.9632 51.2239 40.9371 51.2239 40.885C51.2239 40.8329 51.2326 40.8068 51.2499 40.8068L51.9277 40.8198C52.3101 40.8372 52.6142 40.8459 52.8401 40.8459C53.0921 40.8459 53.4093 40.8372 53.7916 40.8198L54.4303 40.8068C54.4477 40.8068 54.4564 40.8329 54.4564 40.885C54.4564 40.9371 54.4477 40.9632 54.4303 40.9632C54.1262 40.9632 53.9002 40.9893 53.7525 41.0414C53.6048 41.0936 53.5049 41.1848 53.4527 41.3151C53.4006 41.4368 53.3745 41.628 53.3745 41.8886V47.8975ZM64.3404 48.7968C64.3577 48.7968 64.3664 48.8229 64.3664 48.875C64.3664 48.9272 64.3577 48.9532 64.3404 48.9532C64.0536 48.9532 63.8277 48.9489 63.6626 48.9402L62.7241 48.9272L61.7074 48.9402C61.551 48.9489 61.3425 48.9532 61.0818 48.9532C61.0557 48.9532 61.0427 48.9272 61.0427 48.875C61.0427 48.8229 61.0557 48.7968 61.0818 48.7968C61.412 48.7968 61.6553 48.7751 61.8117 48.7317C61.9681 48.6882 62.0724 48.6057 62.1245 48.484C62.1767 48.3537 62.2027 48.1582 62.2027 47.8975V42.6707L57.6147 47.5586V47.8975C57.6147 48.1582 57.6407 48.3537 57.6929 48.484C57.745 48.6057 57.8493 48.6882 58.0057 48.7317C58.1621 48.7751 58.4054 48.7968 58.7356 48.7968C58.753 48.7968 58.7617 48.8229 58.7617 48.875C58.7617 48.9272 58.753 48.9532 58.7356 48.9532C58.4575 48.9532 58.236 48.9489 58.0709 48.9402L57.0672 48.9272L56.1418 48.9402C55.9767 48.9489 55.7507 48.9532 55.464 48.9532C55.4466 48.9532 55.4379 48.9272 55.4379 48.875C55.4379 48.8229 55.4466 48.7968 55.464 48.7968C55.7855 48.7968 56.0201 48.7751 56.1678 48.7317C56.3243 48.6882 56.4285 48.6057 56.4807 48.484C56.5415 48.3537 56.5719 48.1582 56.5719 47.8975V41.8626C56.5719 41.6019 56.5458 41.4107 56.4937 41.2891C56.4416 41.1674 56.3416 41.0849 56.1939 41.0414C56.0462 40.9893 55.8116 40.9632 55.4901 40.9632C55.464 40.9632 55.451 40.9371 55.451 40.885C55.451 40.8329 55.464 40.8068 55.4901 40.8068L56.1548 40.8198C56.5198 40.8372 56.8239 40.8459 57.0672 40.8459C57.3453 40.8459 57.6842 40.8372 58.0839 40.8198L58.7356 40.8068C58.753 40.8068 58.7617 40.8329 58.7617 40.885C58.7617 40.9371 58.753 40.9632 58.7356 40.9632C58.4141 40.9632 58.1751 40.9893 58.0187 41.0414C57.8623 41.0936 57.7537 41.1848 57.6929 41.3151C57.6407 41.4368 57.6147 41.628 57.6147 41.8886V47.1024L62.2027 42.2015V41.8886C62.2027 41.628 62.1723 41.4368 62.1115 41.3151C62.0594 41.1848 61.9551 41.0936 61.7987 41.0414C61.6509 40.9893 61.412 40.9632 61.0818 40.9632C61.0557 40.9632 61.0427 40.9371 61.0427 40.885C61.0427 40.8329 61.0557 40.8068 61.0818 40.8068L61.7074 40.8198C62.1071 40.8372 62.446 40.8459 62.7241 40.8459C62.9674 40.8459 63.2802 40.8372 63.6626 40.8198L64.3404 40.8068C64.3577 40.8068 64.3664 40.8329 64.3664 40.885C64.3664 40.9371 64.3577 40.9632 64.3404 40.9632C64.0188 40.9632 63.7842 40.9893 63.6365 41.0414C63.4888 41.0849 63.3845 41.1674 63.3237 41.2891C63.2715 41.4107 63.2455 41.6019 63.2455 41.8626V47.8975C63.2455 48.1582 63.2715 48.3537 63.3237 48.484C63.3845 48.6057 63.4888 48.6882 63.6365 48.7317C63.7842 48.7751 64.0188 48.7968 64.3404 48.7968ZM59.9087 40.0247C60.3258 40.0247 60.6169 39.7597 60.782 39.2296C60.8515 39.0037 60.921 38.8386 60.9905 38.7343C61.0601 38.6301 61.1774 38.5779 61.3425 38.5779C61.4815 38.5779 61.5858 38.617 61.6553 38.6952C61.7335 38.7734 61.7726 38.8777 61.7726 39.0081C61.7726 39.2166 61.6857 39.4165 61.5119 39.6076C61.3381 39.7901 61.1079 39.9378 60.8211 40.0508C60.5343 40.1551 60.2346 40.2072 59.9217 40.2072C59.6089 40.2072 59.3091 40.1507 59.0224 40.0378C58.7443 39.9248 58.5184 39.7771 58.3446 39.5946C58.1708 39.4121 58.0839 39.2166 58.0839 39.0081C58.0839 38.8777 58.1186 38.7734 58.1882 38.6952C58.2664 38.617 58.375 38.5779 58.514 38.5779C58.6878 38.5779 58.8095 38.6301 58.879 38.7343C58.9485 38.8386 59.018 39.0037 59.0875 39.2296C59.1484 39.4643 59.2396 39.6554 59.3613 39.8032C59.4916 39.9509 59.6741 40.0247 59.9087 40.0247Z" fill="#DDDDDD"/>
<path d="M1.20482 75.0117H2.00363C2.53618 75.0117 3.06872 74.7938 3.60127 74.3581C4.13381 73.9062 4.63408 73.1881 5.10208 72.2037C5.5378 71.2838 5.87669 70.1784 6.11875 68.8874C6.36082 67.5964 6.55447 65.6598 6.69971 63.0778L7.0144 57.8734L4.4485 56.8083V56.2516H18.6094V56.7841L16.3581 57.123V75.0117H18.4399L18.803 80.9423H18.0768L15.5593 75.6168H4.0854L1.56792 80.9423H0.841719L1.20482 75.0117ZM13.6954 75.0117V56.8567H7.7406L7.35329 63.0778C7.17578 65.7405 6.96599 67.7335 6.72392 69.0568C6.48185 70.364 6.15103 71.4936 5.73145 72.4458C5.47325 73.0267 5.1989 73.5108 4.90843 73.8982C4.63408 74.2693 4.38395 74.5517 4.15802 74.7454C3.93209 74.939 3.81913 75.0278 3.81913 75.0117H13.6954ZM30.2117 76.101C28.4527 76.101 26.8792 75.6733 25.4914 74.818C24.1036 73.9627 23.0223 72.7685 22.2477 71.2354C21.4731 69.6862 21.0858 67.9191 21.0858 65.9342C21.0858 63.9492 21.4731 62.1902 22.2477 60.6572C23.0223 59.1079 24.1036 57.9057 25.4914 57.0504C26.8792 56.1951 28.4527 55.7674 30.2117 55.7674C31.9707 55.7674 33.5441 56.1951 34.932 57.0504C36.3198 57.9057 37.401 59.1079 38.1756 60.6572C38.9503 62.1902 39.3376 63.9492 39.3376 65.9342C39.3376 67.9191 38.9503 69.6862 38.1756 71.2354C37.401 72.7685 36.3198 73.9627 34.932 74.818C33.5441 75.6733 31.9707 76.101 30.2117 76.101ZM30.2117 75.5442C31.3736 75.5442 32.4145 75.2376 33.3343 74.6244C34.2703 74.0111 35.0046 73.1235 35.5371 71.9616C36.0697 70.7836 36.3359 69.3957 36.3359 67.7981V64.0703C36.3359 62.4726 36.0697 61.0929 35.5371 59.931C35.0046 58.7529 34.2703 57.8573 33.3343 57.244C32.4145 56.6308 31.3736 56.3242 30.2117 56.3242C29.0336 56.3242 27.9847 56.6308 27.0648 57.244C26.145 57.8573 25.4188 58.7529 24.8862 59.931C24.3537 61.0929 24.0874 62.4726 24.0874 64.0703V67.7981C24.0874 69.3957 24.3537 70.7836 24.8862 71.9616C25.4188 73.1235 26.145 74.0111 27.0648 74.6244C27.9847 75.2376 29.0336 75.5442 30.2117 75.5442ZM51.6903 75.8589L44.4767 57.123V74.1402L46.8006 75.1085V75.6168H41.6204V75.1085L43.8958 74.1402V57.123L41.6688 56.7841V56.2516H47.0184L53.0943 71.7922L59.2912 56.2516H64.1809V56.7841L61.9539 57.123V74.7454L64.1809 75.1085V75.6168H57.0642V75.1085L59.2912 74.7454V57.8492L52.126 75.8589H51.6903Z" fill="#DDDDDD"/>
<path d="M72.5723 70.814L81.3027 61.9181C83.5922 59.5458 85.3301 57.2425 86.5162 55.0082C87.7299 52.7463 88.3367 50.4154 88.3367 48.0156C88.3367 45.5882 87.8126 43.8228 86.7644 42.7194C85.7438 41.5884 84.3508 41.0229 82.5854 41.0229C81.2062 41.0229 80.0063 41.3953 78.9857 42.1401C77.965 42.8849 77.4547 43.8641 77.4547 45.0778C77.4547 46.5398 78.1857 47.6294 79.6477 48.3466C79.6477 49.3396 79.3443 50.0982 78.7374 50.6223C78.1305 51.1464 77.4134 51.4084 76.5858 51.4084C75.7031 51.4084 74.9446 51.0912 74.3101 50.4568C73.6757 49.7948 73.3585 48.8983 73.3585 47.7673C73.3585 46.2778 73.8136 44.9537 74.7239 43.7952C75.6342 42.609 76.8479 41.6988 78.365 41.0643C79.8821 40.4023 81.5096 40.0713 83.2474 40.0713C86.6127 40.0713 89.1091 40.8712 90.7366 42.4711C92.3641 44.0434 93.1778 46.126 93.1778 48.719C93.1778 50.2913 92.8468 51.7395 92.1848 53.0635C91.5503 54.36 90.778 55.4909 89.8677 56.4564C88.985 57.4218 87.7713 58.5804 86.2265 59.932L85.068 60.925L75.179 69.6555H90.6124L92.3089 63.5318H93.3847V74H72.5723V70.814Z" fill="#A68E52"/>
<path d="M32.1892 65.5991C32.1892 66.6275 31.3556 67.4611 30.3272 67.4611C29.2988 67.4611 28.4651 66.6275 28.4651 65.5991C28.4651 64.5707 29.2988 63.737 30.3272 63.737C31.3556 63.737 32.1892 64.5707 32.1892 65.5991Z" fill="#A68E52"/>
</svg>
