<svg width="59" height="69" viewBox="0 0 59 69" fill="none" xmlns="http://www.w3.org/2000/svg">
<g clip-path="url(#clip0)">
<path d="M17.2172 32.3915H10.398V31.9217H16.7453V10.9927H16.8053V10.5229H17.2172V32.3915Z" fill="#DDDDDD"/>
<path d="M50.2932 32.3915H43.474V10.5229H43.924V10.9927H43.9459V31.9217H50.2932V32.3915Z" fill="#DDDDDD"/>
<path d="M17.2172 10.9248H7.26657V8.89087H17.2172V10.9248ZM7.73846 10.455H16.7398V9.36881H7.73846V10.455Z" fill="#DDDDDD"/>
<path d="M53.4246 10.9248H43.474V8.89087H53.4246V10.9248ZM43.9349 10.455H52.9363V9.36881H43.9349V10.455Z" fill="#DDDDDD"/>
<path d="M21.3687 13.2519H20.8969V8.88525H26.846V9.35505H21.3687V13.2519Z" fill="#DDDDDD"/>
<path d="M21.3687 18.7917H20.8969V14.425H26.846V14.8921H21.3687V18.7917Z" fill="#DDDDDD"/>
<path d="M21.3687 24.3288H20.8969V19.9622H26.846V20.432H21.3687V24.3288Z" fill="#DDDDDD"/>
<path d="M19.4266 7.4978V29.4994H21.1342V29.0296H19.8958V7.9676H28.4689V29.0296H22.6371L22.0152 29.4994H28.9408V7.4978H19.4266Z" fill="#DDDDDD"/>
<path d="M21.3687 30.0343H20.8969V25.4993H26.846V25.9691H21.3687V30.0343Z" fill="#DDDDDD"/>
<path d="M34.148 13.2519H33.6761V8.88525H39.6225V9.35505H34.148V13.2519Z" fill="#DDDDDD"/>
<path d="M34.148 18.7917H33.6761V14.425H39.6225V14.8921H34.148V18.7917Z" fill="#DDDDDD"/>
<path d="M34.148 24.3288H33.6761V19.9622H39.6225V20.432H34.148V24.3288Z" fill="#DDDDDD"/>
<path d="M31.884 7.4978V29.4994H33.9107V29.0296H32.3532V7.9676H40.9263V29.0296H35.4164L34.7944 29.4994H41.3982V7.4978H31.884Z" fill="#DDDDDD"/>
<path d="M34.148 30.0343H33.6761V25.4993H39.6225V25.9691H34.148V30.0343Z" fill="#DDDDDD"/>
<path d="M10.8999 25.4856H10.428V32.1387H10.8999V25.4856Z" fill="#DDDDDD"/>
<path d="M50.2905 25.4856H49.8186V32.1387H50.2905V25.4856Z" fill="#DDDDDD"/>
<path d="M10.8999 10.8704H10.428V17.6919H10.8999V10.8704Z" fill="#DDDDDD"/>
<path d="M50.2905 10.7048H49.8186V17.6947H50.2905V10.7048Z" fill="#DDDDDD"/>
<path d="M10.5398 17.2466H1.66391V17.6946H10.5398V17.2466Z" fill="#DDDDDD"/>
<path d="M58.9209 17.2466H50.045V17.6946H58.9209V17.2466Z" fill="#DDDDDD"/>
<path d="M36.0055 4.68701V5.15409H43.474V31.9215H17.2172V5.15409H36.1583V4.68701H16.7453V32.3913H43.9459V4.68701H36.0055Z" fill="#DDDDDD"/>
<path d="M24.4483 4.91259V-0.0107422H36.2401V4.90173L24.4483 4.91259ZM35.7682 4.93703V0.469913H24.9202V4.9479" fill="#DDDDDD"/>
<path d="M8.59225 39.5903C10.7908 39.5903 13.1284 40.3208 14.7323 41.8959L12.8775 44.9074C11.8218 43.995 10.2425 43.2401 8.78592 43.2401C5.51269 43.2401 4.14884 45.5456 4.14884 47.8946C4.14884 50.3114 5.61634 52.7989 8.78592 52.7989C10.4225 52.7989 12.0155 51.9082 13.1502 50.7921L15.2124 53.7113C14.3611 54.5952 13.3356 55.2946 12.2002 55.7656C11.0648 56.2367 9.84394 56.4692 8.61407 56.4486C3.34417 56.4486 0.0218445 52.8206 0.0218445 47.9842C2.29292e-05 43.2401 3.52693 39.5903 8.59225 39.5903Z" fill="#C79205"/>
<path d="M17.3427 39.8645H21.3551V52.7526H28.0434V56.1742H17.3427V39.8645Z" fill="#C79205"/>
<path d="M29.6718 39.8645H33.6815V50.1837C33.6815 51.8945 34.8026 52.8069 36.5211 52.8069C38.2395 52.8069 39.3633 51.8945 39.3633 50.1837V39.8645H43.373V50.1837C43.373 53.8551 40.6699 56.4567 36.5538 56.4567C32.3832 56.4567 29.68 53.8551 29.68 50.1837L29.6718 39.8645Z" fill="#C79205"/>
<path d="M46.7418 39.8645H52.7672C56.0405 39.8645 58.3345 41.3255 58.3345 44.1307C58.3464 44.8241 58.1766 45.5086 57.8418 46.1167C57.5069 46.7248 57.0186 47.2355 56.4251 47.5985V47.6446C58.3045 48.2149 58.9918 49.8795 58.9918 51.3161C58.9918 54.8735 56.0132 56.1742 52.759 56.1742H46.7418V39.8645ZM52.8136 46.1836C53.8201 46.1836 54.2566 45.4532 54.2566 44.6792C54.2566 43.9053 53.8201 43.2861 52.7427 43.2861H50.7542V46.1836H52.8136ZM53.1573 52.7526C53.3878 52.7675 53.6189 52.7336 53.8354 52.6532C54.0518 52.5728 54.2487 52.4477 54.4131 52.286C54.5775 52.1244 54.7057 51.93 54.7892 51.7156C54.8727 51.5011 54.9096 51.2715 54.8976 51.0418C54.8976 50.1294 54.352 49.3772 53.1791 49.3772H50.7542V52.7526H53.1573Z" fill="#C79205"/>
<path d="M0.450058 61.3068H3.09592C3.59569 61.2722 4.09749 61.3331 4.57433 61.486C5.43355 61.8146 5.97636 62.5885 5.97636 63.6883C5.97636 64.503 5.59449 65.3693 4.83891 65.7522V65.7712C4.94371 65.9172 5.03936 66.0696 5.12532 66.2274L6.60373 68.8723H4.53068L3.18048 66.3224H2.31034V68.8723H0.450058V61.3068ZM3.11774 64.7365C3.24548 64.751 3.37486 64.7371 3.49656 64.6959C3.61827 64.6546 3.72927 64.587 3.82161 64.4979C3.91394 64.4089 3.9853 64.3006 4.03056 64.1807C4.07582 64.0609 4.09384 63.9327 4.08334 63.8051C4.08334 63.4222 3.98788 63.1371 3.63873 62.9904C3.41334 62.9099 3.17412 62.8748 2.93499 62.8872H2.31034V64.7284L3.11774 64.7365Z" fill="#FDFBFB"/>
<path d="M7.62393 61.3069H12.3865V62.8955H9.48422V64.2696H11.8V65.8582H9.48422V67.2866H12.5338V68.8725H7.62393V61.3069Z" fill="#FDFBFB"/>
<path d="M14.3095 66.5208C14.8137 66.978 15.457 67.2542 16.137 67.3056C16.658 67.3056 16.9253 67.072 16.9253 66.776C16.9253 65.7061 13.5648 65.8772 13.5648 63.5174C13.5648 62.1188 14.7241 61.1982 16.3198 61.1982C17.1917 61.188 18.0378 61.4929 18.7011 62.0564L17.9128 63.5689C17.4442 63.1647 16.852 62.9302 16.2325 62.9036C15.6706 62.9036 15.4142 63.1345 15.4142 63.4467C15.4142 64.533 18.7747 64.2614 18.7747 66.6647C18.7747 67.9356 17.8282 69.0245 16.0743 69.0245C15.0489 69.0336 14.0605 68.6438 13.3193 67.9383L14.3095 66.5208Z" fill="#FDFBFB"/>
<path d="M20.144 61.3069H22.0043V68.8725H20.144V61.3069Z" fill="#FDFBFB"/>
<path d="M23.78 61.3069H26.4777C28.8699 61.3069 30.4001 62.6946 30.4001 65.0734C30.4001 67.4522 28.8699 68.8752 26.4777 68.8752H23.7773L23.78 61.3069ZM26.4068 67.2811C27.6915 67.2811 28.4798 66.5181 28.4798 65.068C28.4798 63.6178 27.6615 62.8955 26.4068 62.8955H25.6403V67.2866L26.4068 67.2811Z" fill="#FDFBFB"/>
<path d="M31.794 61.3069H36.5702V62.8955H33.6543V64.2696H35.9728V65.8582H33.6543V67.2866H36.7065V68.8725H31.7967L31.794 61.3069Z" fill="#FDFBFB"/>
<path d="M38.0758 61.3069H39.958L42.0637 64.8371C42.2991 65.2556 42.5121 65.6862 42.702 66.127H42.7211C42.7211 66.127 42.6365 65.3124 42.6365 64.8371V61.3069H44.4968V68.8725H42.6256L40.5117 65.3422C40.2761 64.9229 40.063 64.4914 39.8734 64.0496H39.8434C39.8434 64.0496 39.9279 64.8643 39.9279 65.3422V68.8725H38.0677L38.0758 61.3069Z" fill="#FDFBFB"/>
<path d="M49.854 61.1791C50.9071 61.1572 51.9281 61.5404 52.7045 62.249L51.8452 63.6449C51.3157 63.1787 50.642 62.9066 49.9359 62.8736C48.4165 62.8736 47.7892 63.9409 47.7892 65.0325C47.7892 66.1242 48.4711 67.3082 49.9359 67.3082C50.7047 67.2673 51.4283 66.9339 51.9571 66.3767L52.9145 67.7345C52.5195 68.1451 52.0434 68.4699 51.5163 68.6886C50.9891 68.9073 50.4223 69.0152 49.8513 69.0054C47.3964 69.0054 45.8661 67.3245 45.8661 65.0787C45.8689 62.8736 47.5055 61.1791 49.854 61.1791Z" fill="#FDFBFB"/>
<path d="M54.0438 61.3069H58.8036V62.8955H55.9041V64.2696H58.2199V65.8582H55.9041V67.2866H58.9536V68.8725H54.0438V61.3069Z" fill="#FDFBFB"/>
</g>
<defs>
<clipPath id="clip0">
<rect width="59" height="69" fill="white"/>
</clipPath>
</defs>
</svg>
