<svg width="16" height="16" viewBox="0 0 16 16" fill="none" xmlns="http://www.w3.org/2000/svg">
<path d="M1.90476 0C0.857327 0 0 0.857054 0 1.90416V14.0907C0 15.1378 0.857327 15.9949 1.90476 15.9949H8.31696C8.3581 16.0017 8.40008 16.0017 8.44122 15.9949H10.6027C10.6438 16.0017 10.6858 16.0017 10.7269 15.9949H14.0952C15.1427 15.9949 16 15.1378 16 14.0907V1.90416C16 0.857054 15.1427 0 14.0952 0H1.90476ZM1.90476 0.761662H14.0952C14.7309 0.761662 15.2381 1.26874 15.2381 1.90416V14.0907C15.2381 14.7262 14.7309 15.2332 14.0952 15.2332H11.0476V9.90161H12.503L13.0365 7.23579H11.0476V6.47413C11.0476 6.26182 11.0678 6.24522 11.1391 6.19892C11.2104 6.15261 11.4308 6.0933 11.8095 6.0933H12.9524V3.94889L12.7351 3.8455C12.7351 3.8455 11.8601 3.42748 10.6667 3.42748C9.80952 3.42748 9.10537 3.76888 8.65476 4.33195C8.20416 4.89503 8 5.64899 8 6.47413V7.23579H6.85714V9.90161H8V15.2332H1.90476C1.26915 15.2332 0.761905 14.7262 0.761905 14.0907V1.90416C0.761905 1.26874 1.26915 0.761662 1.90476 0.761662ZM10.6667 4.18914C11.4587 4.18914 11.9571 4.36373 12.1905 4.45617V5.33163H11.8095C11.3711 5.33163 11.0198 5.36789 10.724 5.55998C10.4281 5.75208 10.2857 6.11671 10.2857 6.47413V7.99745H12.1064L11.878 9.13994H10.2857V15.2332H8.7619V9.13994H7.61905V7.99745H8.7619V6.47413C8.7619 5.77594 8.9387 5.19699 9.25 4.80799C9.5613 4.41899 10 4.18914 10.6667 4.18914Z" fill="#B3AEAE"/>
</svg>
