<svg width="16" height="16" viewBox="0 0 16 16" fill="none" xmlns="http://www.w3.org/2000/svg">
<path d="M4.72727 0C2.1209 0 0 2.1209 0 4.72727V11.2727C0 13.8791 2.1209 16 4.72727 16H11.2727C13.8791 16 16 13.8791 16 11.2727V4.72727C16 2.1209 13.8791 0 11.2727 0H4.72727ZM4.72727 0.727273H11.2727C13.486 0.727273 15.2727 2.51401 15.2727 4.72727V11.2727C15.2727 13.486 13.486 15.2727 11.2727 15.2727H4.72727C2.51401 15.2727 0.727273 13.486 0.727273 11.2727V4.72727C0.727273 2.51401 2.51401 0.727273 4.72727 0.727273ZM12.3636 2.90909C12.1708 2.90909 11.9858 2.98571 11.8494 3.1221C11.713 3.25849 11.6364 3.44348 11.6364 3.63636C11.6364 3.82925 11.713 4.01423 11.8494 4.15062C11.9858 4.28701 12.1708 4.36364 12.3636 4.36364C12.5565 4.36364 12.7415 4.28701 12.8779 4.15062C13.0143 4.01423 13.0909 3.82925 13.0909 3.63636C13.0909 3.44348 13.0143 3.25849 12.8779 3.1221C12.7415 2.98571 12.5565 2.90909 12.3636 2.90909ZM8 4C5.79517 4 4 5.79517 4 8C4 10.2048 5.79517 12 8 12C10.2048 12 12 10.2048 12 8C12 5.79517 10.2048 4 8 4ZM8 4.72727C9.81178 4.72727 11.2727 6.18822 11.2727 8C11.2727 9.81178 9.81178 11.2727 8 11.2727C6.18822 11.2727 4.72727 9.81178 4.72727 8C4.72727 6.18822 6.18822 4.72727 8 4.72727Z" fill="#B3AEAE"/>
</svg>
