<svg width="23" height="21" viewBox="0 0 23 21" fill="none" xmlns="http://www.w3.org/2000/svg">
<path d="M22.1347 6.81068L19.5524 5.11558L19.4786 0.393506C19.4786 0.172159 19.3064 0 19.0851 0H3.07428C2.85294 0 2.68078 0.172159 2.68078 0.393506V4.99261L6.63353e-05 6.81068C6.63353e-05 6.81068 0 6.81068 1.66219e-05 7.00933V20.6591C1.66219e-05 20.6345 1.66219e-05 20.6837 1.66219e-05 20.6591H0.368929C0.368929 20.6591 0.368929 20.6591 0.393523 20.6591H21.7412H22.1347C22.1347 20.6591 22.1347 20.3148 22.1347 20.2902V7.00933C22.1347 6.88636 22.1347 6.98095 22.1347 6.81068ZM19.4786 6.00097L21.1018 7.00933L19.4786 8.26363V6.00097ZM3.46779 4.94342V0.787012H18.667V4.94342V8.73092L11.0674 14.5843L3.46779 8.73092V4.94342ZM2.65618 6.00097V8.26363L2.18889 7.89472L1.03297 7.00933L2.65618 6.00097ZM0.787029 7.82093L2.80375 9.39496L8.36202 13.6251L0.787029 19.454V7.82093ZM1.54945 19.8721L9.00147 14.1416L11.0674 15.7894L13.1333 14.1416L20.5607 19.8721H1.54945ZM21.3477 19.454L18.1013 16.9454L13.7727 13.6251L21.0034 8.04228L21.3231 7.79634V19.454H21.3477Z" fill="#A68E52"/>
<path d="M5.72992 3.36932H13.7722C13.9936 3.36932 14.1657 3.19716 14.1657 2.97582C14.1657 2.75447 13.9936 2.58231 13.7722 2.58231H5.72992C5.50858 2.58231 5.33642 2.75447 5.33642 2.97582C5.33642 3.19716 5.50858 3.36932 5.72992 3.36932Z" fill="#A68E52"/>
<path d="M16.7973 8.33759C16.7973 8.11624 16.6251 7.94409 16.4038 7.94409H5.72992C5.50858 7.94409 5.33642 8.11624 5.33642 8.33759C5.33642 8.55894 5.50858 8.7311 5.72992 8.7311H16.4038C16.6251 8.75569 16.7973 8.55894 16.7973 8.33759Z" fill="#A68E52"/>
<path d="M5.72992 6.07462H14.0181C14.2395 6.07462 14.4117 5.90246 14.4117 5.68111C14.4117 5.45976 14.2395 5.28761 14.0181 5.28761H5.72992C5.50858 5.28761 5.33642 5.45976 5.33642 5.68111C5.33642 5.90246 5.50858 6.07462 5.72992 6.07462Z" fill="#A68E52"/>
</svg>
