<svg width="9" height="13" viewBox="0 0 9 13" fill="none" xmlns="http://www.w3.org/2000/svg">
<path d="M4.4668 0C2.0032 0 1.5827e-07 2.0032 0 4.4668C-1.05513e-07 6.25815 1.08482 8.16774 2.14633 9.65386C3.20784 11.14 4.27 12.202 4.27 12.202C4.32235 12.2543 4.39332 12.2837 4.46732 12.2837C4.54132 12.2837 4.61229 12.2543 4.66464 12.202C4.66464 12.202 5.72679 11.14 6.7883 9.65386C7.84981 8.16774 8.93361 6.25815 8.93361 4.4668C8.93361 2.0032 6.9304 0 4.4668 0ZM4.4668 0.558479C6.62865 0.558479 8.37513 2.30495 8.37513 4.4668C8.37513 6.02551 7.36617 7.8841 6.33389 9.32928C5.40023 10.6364 4.63657 11.3972 4.4668 11.5704C4.29673 11.3968 3.5342 10.6361 2.60074 9.32928C1.56847 7.8841 0.558479 6.02551 0.558479 4.4668C0.558479 2.30495 2.30495 0.558479 4.4668 0.558479Z" fill="#A68E52"/>
<path d="M4.46688 2.51221C3.39091 2.51221 2.51323 3.39092 2.51323 4.46688C2.51323 5.54285 3.39091 6.42156 4.46688 6.42156C5.54284 6.42156 6.42155 5.54285 6.42155 4.46688C6.42155 3.39092 5.54284 2.51221 4.46688 2.51221ZM4.46688 3.07069C5.24109 3.07069 5.86307 3.69267 5.86307 4.46688C5.86307 5.2411 5.24109 5.86308 4.46688 5.86308C3.69266 5.86308 3.07171 5.2411 3.07171 4.46688C3.07171 3.69267 3.69266 3.07069 4.46688 3.07069Z" fill="#A68E52"/>
</svg>
