<svg width="47" height="52" viewBox="0 0 47 52" fill="none" xmlns="http://www.w3.org/2000/svg">
<path d="M11.996 20.456H15.512C16.384 20.456 17.076 20.656 17.588 21.056C18.1 21.448 18.356 22.068 18.356 22.916C18.356 24.636 17.384 25.496 15.44 25.496H13.124V29H11.996V20.456ZM13.124 21.428V24.548H15.296C15.904 24.548 16.376 24.436 16.712 24.212C17.056 23.98 17.228 23.572 17.228 22.988C17.228 22.66 17.172 22.388 17.06 22.172C16.956 21.956 16.8 21.796 16.592 21.692C16.384 21.588 16.168 21.52 15.944 21.488C15.72 21.448 15.452 21.428 15.14 21.428H13.124ZM19.7293 20.456H22.5133C23.9613 20.456 25.0293 20.792 25.7173 21.464C26.4053 22.136 26.7493 23.2 26.7493 24.656C26.7493 26.088 26.4293 27.172 25.7893 27.908C25.1493 28.636 24.1253 29 22.7173 29H19.7293V20.456ZM20.8573 21.428V28.028H22.5733C23.6453 28.028 24.4213 27.768 24.9013 27.248C25.3893 26.72 25.6333 25.9 25.6333 24.788C25.6333 23.62 25.3973 22.768 24.9253 22.232C24.4533 21.696 23.6533 21.428 22.5253 21.428H20.8573ZM33.8065 20.456V21.44H29.3185V24.104H33.2785V25.052H29.3185V29H28.1905V20.456H33.8065Z" fill="#A68E52"/>
<path d="M3.78349 32.7916C4.10834 35.3907 4.36939 38.0111 4.4738 40.6155L4.5086 41.3528C4.54921 42.2652 4.59562 43.2518 4.58402 44.2437L3.02938 44.2437C2.03162 44.2437 1.11508 44.7635 0.685817 45.5698C-0.590382 47.9939 0.198543 49.983 0.778633 50.9484C1.01647 51.3462 1.38773 51.6486 1.8228 51.8236L1.8228 51.8289C2.00842 51.9032 2.21145 51.9562 2.41449 51.9775L2.42029 51.9775C2.5189 51.9934 2.61751 51.9987 2.71613 51.9987L42.8177 51.9987C42.8235 51.9987 42.8235 51.9987 42.8293 51.9987C43.0207 52.0093 43.5196 51.9668 44.0533 51.4841C45.8458 49.8557 47.3424 44.1005 44.2679 25.9489C44.2447 25.8163 44.2273 25.689 44.2099 25.5564L44.1867 25.4397C44.1171 24.9623 44.0475 24.4902 43.9779 24.0128C43.8793 23.2968 43.7806 22.5754 43.6936 21.8593C43.5776 20.9575 43.4732 20.0611 43.3746 19.1647C43.2644 18.1462 43.1599 17.1278 43.0729 16.1093C42.9801 14.9795 42.9047 13.9293 42.8467 12.9002C42.7887 11.7545 42.7539 10.7095 42.7423 9.70698C42.7307 8.60367 42.7539 7.62767 42.8061 6.72062C42.8583 5.79236 42.9395 5.01262 43.0613 4.29653C43.0787 4.29653 43.0961 4.30183 43.1135 4.30183C43.9837 4.42914 45.2251 4.34957 46.0836 3.73957C46.6115 3.36826 46.9247 2.84313 46.9885 2.22252C47.0407 1.73982 46.9131 1.24121 46.6347 0.816868C46.4839 0.599388 46.2286 0.297039 45.8226 0.132603C45.6079 0.0424311 45.3701 -3.52972e-06 45.1264 -3.48712e-06C45.0452 -3.47292e-06 44.9582 0.0106014 44.8712 0.0265163C44.8654 0.0265163 44.8596 0.0212139 44.8538 0.0212139L4.23015 0.021221C4.16634 0.021221 4.11413 0.0318297 4.06193 0.0530471C3.73708 0.116699 3.42383 0.259914 3.15699 0.472092C2.5769 0.922962 2.28685 1.5754 2.09542 2.08992C1.55594 3.56984 1.40512 5.13462 1.32391 6.60394C1.12668 10.2003 1.32391 13.7913 1.69517 17.3559C1.69517 17.3559 3.78349 31.0571 3.78349 32.7916ZM2.71613 51.203C2.60011 51.203 2.48989 51.1871 2.38548 51.1659C2.03162 51.081 1.71838 50.8688 1.53855 50.5665C0.929454 49.5481 0.418975 47.9143 1.47474 45.9146C1.75318 45.3841 2.36227 45.0394 3.02938 45.0394L41.878 45.0393C41.7561 45.2515 41.6227 45.5167 41.4777 45.835C41.2051 46.4291 41.0484 47.0709 41.002 47.734C40.9266 48.954 41.2689 50.1581 41.9708 51.203L2.71613 51.203ZM42.3014 46.1002C42.6321 45.3629 42.8177 45.1242 42.8989 45.0447C43.1135 45.0553 43.2064 45.1348 43.2644 45.2091C43.624 45.6812 43.3572 47.0338 43.0149 47.9886L41.8664 47.9992C41.8664 47.9302 41.8664 47.856 41.8722 47.7817C41.907 47.2035 42.0462 46.6572 42.3014 46.1002ZM44.3781 1.06087C44.5174 0.954781 44.6972 0.864605 44.8944 0.822171C44.9176 0.822171 44.9466 0.822171 44.964 0.811562C45.1322 0.785042 45.3121 0.795647 45.4687 0.859299C45.6253 0.922951 45.7703 1.05557 45.8864 1.23061C46.072 1.50644 46.1532 1.8353 46.1242 2.14826C46.0778 2.54609 45.8864 2.87496 45.5499 3.10835C45.1438 3.40009 44.5116 3.55922 43.8444 3.55922C43.6472 3.55922 43.45 3.54331 43.247 3.51679L43.2122 3.51148C43.3282 2.99696 43.4558 2.57261 43.6182 2.18009C43.7632 1.84591 43.9953 1.36322 44.3781 1.06087ZM2.19405 6.64106C2.26945 5.2301 2.40868 3.72897 2.91915 2.33923C3.07578 1.92548 3.30201 1.40035 3.71968 1.07679C3.8763 0.954788 4.08513 0.85931 4.29977 0.816875L43.4384 0.816868C43.4384 0.822171 43.4326 0.822171 43.4268 0.827473C43.1251 1.18817 42.9337 1.5913 42.8061 1.89895C42.5567 2.48774 42.3826 3.14018 42.226 4.0207C42.0868 4.80575 41.9998 5.65445 41.936 6.67819C41.8837 7.60115 41.8605 8.59306 41.8721 9.71228C41.8837 10.7254 41.9186 11.781 41.9824 12.9373C42.0346 13.9717 42.11 15.0326 42.2086 16.173C42.2956 17.1967 42.3942 18.2205 42.5044 19.2389C42.6031 20.146 42.7133 21.0477 42.8293 21.9495C42.9163 22.6708 43.0149 23.3922 43.1193 24.1136C43.1832 24.591 43.2528 25.0684 43.3282 25.5511L43.3456 25.6678C43.3688 25.8004 43.3862 25.933 43.4094 26.0709C46.6521 45.2462 44.5638 49.7868 43.5138 50.8476C43.305 51.0598 43.1309 51.1447 43.0149 51.1818C42.4232 50.4763 42.052 49.6541 41.9186 48.7948L43.6298 48.7842L43.7342 48.5243C43.8445 48.2485 44.79 45.8138 43.9721 44.7476C43.798 44.5301 43.479 44.2649 42.9047 44.249C42.8815 44.2437 42.8583 44.2437 42.8351 44.2437L5.44835 44.2437C5.45995 43.2306 5.41934 42.2386 5.37874 41.3157L5.34393 40.5837C5.23952 37.9845 4.98428 35.3801 4.65943 32.7916L2.5711 17.3559C2.19404 13.802 1.99682 10.2162 2.19405 6.64106Z" fill="#A68E52"/>
</svg>
