<svg width="13" height="12" viewBox="0 0 13 12" fill="none" xmlns="http://www.w3.org/2000/svg">
<path d="M9.27374 11.9999C9.27371 11.9999 9.27371 11.9999 9.27368 11.9999C8.88953 11.9999 8.08521 11.9361 7.01449 11.5083C5.70558 10.9855 4.41304 10.0915 3.1728 8.85123C0.701063 6.37953 -0.206918 4.54136 0.0387565 2.50652C0.154373 1.48561 0.592239 0.975079 1.19812 0.365487C1.43403 0.129601 1.74458 0 2.07322 0C2.38857 0 2.68296 0.120754 2.90223 0.340001L4.67227 2.11004C5.13474 2.57416 5.12398 3.33819 4.64864 3.81353L4.1422 4.31929C4.00469 4.45662 3.97749 4.66991 4.07615 4.83801C4.47392 5.51587 4.83498 6.05071 5.4051 6.62178C5.90764 7.12431 6.42411 7.51055 7.18756 7.95464C7.25263 7.99248 7.32675 8.01249 7.40187 8.01246C7.51594 8.01246 7.62317 7.96814 7.70374 7.88768L8.21315 7.37898C8.44801 7.14412 8.75847 7.01469 9.08723 7.01469C9.40226 7.01469 9.69665 7.13516 9.91615 7.35386L11.6865 9.12428C12.1485 9.58791 12.1379 10.3523 11.6632 10.8287C11.6624 10.8295 11.6615 10.8304 11.6607 10.8312C11.0259 11.4523 10.5339 11.8685 9.51953 11.989C9.51847 11.9892 9.51739 11.9893 9.51633 11.9894C9.48691 11.9926 9.40448 11.9999 9.27374 11.9999ZM2.07322 0.570806C1.89704 0.570806 1.72983 0.641015 1.60237 0.768505C0.971939 1.40273 0.693928 1.79384 0.605681 2.57285C0.383409 4.41393 1.24413 6.11539 3.57641 8.44759C6.34285 11.2141 8.63661 11.4291 9.27371 11.4291C9.27371 11.4291 9.27374 11.4291 9.27377 11.4291C9.37886 11.4291 9.43982 11.4235 9.45397 11.422C10.2608 11.3257 10.6414 11.0297 11.26 10.4246C11.5122 10.1704 11.5224 9.76832 11.2825 9.52755L9.51282 7.75785C9.40143 7.64683 9.25014 7.5855 9.08717 7.5855C8.91091 7.5855 8.74378 7.65553 8.6166 7.78274L8.10704 8.29156C7.91868 8.47966 7.66824 8.58327 7.40184 8.58327C7.226 8.58329 7.05265 8.53652 6.9005 8.44801C6.33729 8.1204 5.67118 7.69515 5.00126 7.02522C4.3881 6.41101 4.00432 5.84351 3.58378 5.12686C3.3536 4.73455 3.41733 4.23635 3.73884 3.91536L4.24514 3.40977C4.49815 3.15673 4.5086 2.75451 4.26829 2.51332L2.49859 0.743646C2.38717 0.632196 2.2361 0.570806 2.07322 0.570806Z" fill="#A68E52"/>
</svg>
