<svg xmlns="http://www.w3.org/2000/svg" width="38.88" height="38.938" viewBox="0 0 38.88 38.938">
  <defs>
    <style>
      .cls-1 {
        fill: #fff;
        fill-rule: evenodd;
      }
    </style>
  </defs>
  <path id="Telephone" class="cls-1" d="M1493.1,853.1a3.835,3.835,0,0,0-2.78-1.275,3.961,3.961,0,0,0-2.81,1.266l-2.6,2.59c-0.22-.115-0.43-0.222-0.64-0.328-0.29-.148-0.57-0.288-0.81-0.436a28.255,28.255,0,0,1-6.76-6.167,16.505,16.505,0,0,1-2.22-3.5c0.67-.617,1.29-1.258,1.9-1.875,0.23-.23.46-0.468,0.69-0.7a3.769,3.769,0,0,0,0-5.691l-2.24-2.244c-0.26-.255-0.52-0.518-0.77-0.781-0.49-.51-1.01-1.036-1.54-1.53a3.894,3.894,0,0,0-2.75-1.209,4.023,4.023,0,0,0-2.8,1.209l-0.02.017-2.79,2.82a6.016,6.016,0,0,0-1.78,3.824,14.264,14.264,0,0,0,1.05,6.1,35.316,35.316,0,0,0,6.29,10.491,38.66,38.66,0,0,0,12.88,10.09,20.045,20.045,0,0,0,7.23,2.137c0.17,0.009.36,0.017,0.52,0.017a6.186,6.186,0,0,0,4.74-2.04c0.01-.016.03-0.024,0.04-0.04a18.534,18.534,0,0,1,1.43-1.489c0.36-.337.72-0.69,1.07-1.06a4.075,4.075,0,0,0,1.24-2.845,3.948,3.948,0,0,0-1.26-2.821Zm2.94,8.658c-0.01,0-.01.008,0,0-0.32.345-.65,0.658-1,1a20.736,20.736,0,0,0-1.59,1.644,3.961,3.961,0,0,1-3.09,1.308c-0.13,0-.26,0-0.38-0.008a17.83,17.83,0,0,1-6.41-1.924,36.618,36.618,0,0,1-12.14-9.506,33.386,33.386,0,0,1-5.91-9.858,11.739,11.739,0,0,1-.93-5.148,3.832,3.832,0,0,1,1.14-2.442l2.8-2.8a1.879,1.879,0,0,1,1.25-.584,1.747,1.747,0,0,1,1.2.575l0.03,0.025c0.5,0.469.98,0.954,1.48,1.472,0.25,0.263.51,0.526,0.78,0.8l2.24,2.245a1.571,1.571,0,0,1,0,2.549c-0.24.239-.47,0.477-0.71,0.707-0.69.707-1.34,1.365-2.06,2.007-0.01.016-.03,0.024-0.04,0.041a1.669,1.669,0,0,0-.43,1.866l0.03,0.074a17.823,17.823,0,0,0,2.65,4.333l0.01,0.009a30.18,30.18,0,0,0,7.3,6.643,11.286,11.286,0,0,0,1.01.551c0.3,0.148.58,0.288,0.82,0.436,0.03,0.016.06,0.041,0.09,0.058a1.821,1.821,0,0,0,.82.2,1.764,1.764,0,0,0,1.25-.567l2.81-2.812a1.851,1.851,0,0,1,1.24-.617,1.657,1.657,0,0,1,1.18.6l0.02,0.017,4.53,4.53A1.624,1.624,0,0,1,1496.04,861.76Zm-12.68-23.525a10.6,10.6,0,0,1,8.62,8.617,1.1,1.1,0,0,0,1.09.921,1.522,1.522,0,0,0,.19-0.016,1.107,1.107,0,0,0,.91-1.283,12.8,12.8,0,0,0-10.42-10.426,1.109,1.109,0,0,0-1.28.9A1.09,1.09,0,0,0,1483.36,838.235Zm17.86,7.918a21.062,21.062,0,0,0-17.17-17.168,1.108,1.108,0,0,0-.36,2.187,18.829,18.829,0,0,1,15.34,15.343,1.1,1.1,0,0,0,1.09.921,1.375,1.375,0,0,0,.19-0.016A1.1,1.1,0,0,0,1501.22,846.153Z" transform="translate(-1462.34 -829)"/>
</svg>
