<svg xmlns="http://www.w3.org/2000/svg" width="57.84" height="57.84" viewBox="0 0 57.84 57.84">
  <defs>
    <style>
      .cls-1 {
        fill: #b88b58;
        fill-rule: evenodd;
      }
    </style>
  </defs>
  <path id="Support" class="cls-1" d="M1228.18,1615.77a33.091,33.091,0,0,1-5.41-.46L1210.1,1623v-12.8c-6.6-4.63-10.84-11.74-10.84-19.73,0-13.97,12.95-25.3,28.92-25.3s28.91,11.33,28.91,25.3S1244.14,1615.77,1228.18,1615.77Zm0-46.98c-13.98,0-25.3,9.7-25.3,21.68,0,7.35,4.27,13.83,10.79,17.75l-0.11,8.39,8.51-5.12a29.1,29.1,0,0,0,6.11.67c13.97,0,25.3-9.71,25.3-21.69S1242.15,1568.79,1228.18,1568.79Zm14.45,25.3a3.615,3.615,0,1,1,3.62-3.62A3.617,3.617,0,0,1,1242.63,1594.09Zm-14.45,0a3.615,3.615,0,1,1,3.61-3.62A3.619,3.619,0,0,1,1228.18,1594.09Zm-14.46,0a3.615,3.615,0,1,1,3.61-3.62A3.619,3.619,0,0,1,1213.72,1594.09Z" transform="translate(-1199.25 -1565.16)"/>
</svg>
