<svg xmlns="http://www.w3.org/2000/svg" width="57.875" height="57.84" viewBox="0 0 57.875 57.84">
  <defs>
    <style>
      .cls-1 {
        fill: #b88b58;
        fill-rule: evenodd;
      }
    </style>
  </defs>
  <path id="Quality" class="cls-1" d="M401.548,1609.06s-5.716,1.15-11.516,2.34c-3.866,4.3-7.715,8.6-7.715,8.6l-8.287-14.14c-0.469.03-.935,0.07-1.412,0.07s-0.943-.04-1.412-0.07L362.919,1620s-3.849-4.3-7.715-8.6c-5.8-1.19-11.516-2.34-11.516-2.34l9.013-15.38a21.493,21.493,0,0,1-2.289-9.63,22.208,22.208,0,0,1,44.412,0,21.493,21.493,0,0,1-2.289,9.63Zm-18.8,4.38s2.776-2.63,5.385-5.17c3.7-1.05,7.435-2.12,7.435-2.12l-5.238-8.94a22.2,22.2,0,0,1-12.373,8.05Zm-33.078-7.29s3.735,1.07,7.435,2.12c2.609,2.54,5.385,5.17,5.385,5.17l4.791-8.18a22.2,22.2,0,0,1-12.373-8.05Zm22.949-40.39a18.09,18.09,0,1,0,18.054,18.09A18.073,18.073,0,0,0,372.618,1565.76Zm0,30.75a12.65,12.65,0,1,1,12.65-12.65A12.654,12.654,0,0,1,372.618,1596.51Zm0-21.69a9.035,9.035,0,1,0,9.036,9.04A9.04,9.04,0,0,0,372.618,1574.82Z" transform="translate(-343.688 -1562.16)"/>
</svg>
