<svg xmlns="http://www.w3.org/2000/svg" width="57.843" height="57.81" viewBox="0 0 57.843 57.81">
  <defs>
    <style>
      .cls-1 {
        fill: #b88b58;
        fill-rule: evenodd;
      }
    </style>
  </defs>
  <path id="Clock" class="cls-1" d="M943.229,1619.58a28.915,28.915,0,1,1,28.915-28.92A28.918,28.918,0,0,1,943.229,1619.58Zm0-54.22a25.3,25.3,0,1,0,25.3,25.3A25.3,25.3,0,0,0,943.229,1565.36Zm18.072,27.11v-3.61h3.614v3.61H961.3Zm-5.065,13-2.555-2.56,2.555-2.55,2.556,2.55Zm-2.026-28.77,2.5-2.51,2.5,2.51-2.5,2.51Zm-12.788,32.03h3.615v3.62h-3.615v-3.62Zm1.807-16.22H926.965a1.805,1.805,0,1,1,0-3.61h14.457v-18.11a1.808,1.808,0,1,1,3.615,0v19.92A1.807,1.807,0,0,1,943.229,1592.51Zm-16.51-15.72,2.556-2.56,2.556,2.56-2.556,2.56Zm4.765,26.22-2.5,2.51-2.5-2.51,2.5-2.51Z" transform="translate(-914.313 -1561.75)"/>
</svg>
